<?xml version="1.0" encoding="UTF-8" standalone="no"?>
<!-- Created with Inkscape (http://www.inkscape.org/) -->

<svg
   xmlns:dc="http://purl.org/dc/elements/1.1/"
   xmlns:cc="http://creativecommons.org/ns#"
   xmlns:rdf="http://www.w3.org/1999/02/22-rdf-syntax-ns#"
   xmlns:svg="http://www.w3.org/2000/svg"
   xmlns="http://www.w3.org/2000/svg"
   xmlns:sodipodi="http://sodipodi.sourceforge.net/DTD/sodipodi-0.dtd"
   xmlns:inkscape="http://www.inkscape.org/namespaces/inkscape"
   width="100"
   height="100"
   id="svg3259"
   version="1.1"
   inkscape:version="0.48.2 r9819"
   sodipodi:docname="4.svg">
  <defs
     id="defs3261" />
  <sodipodi:namedview
     id="base"
     pagecolor="#ffffff"
     bordercolor="#666666"
     borderopacity="1.0"
     inkscape:pageopacity="0.0"
     inkscape:pageshadow="2"
     inkscape:zoom="0.35"
     inkscape:cx="142.14286"
     inkscape:cy="47.142862"
     inkscape:document-units="px"
     inkscape:current-layer="layer1"
     showgrid="false"
     fit-margin-top="0"
     fit-margin-left="0"
     fit-margin-right="0"
     fit-margin-bottom="0"
     inkscape:window-width="978"
     inkscape:window-height="619"
     inkscape:window-x="360"
     inkscape:window-y="210"
     inkscape:window-maximized="0" />
  <metadata
     id="metadata3264">
    <rdf:RDF>
      <cc:Work
         rdf:about="">
        <dc:format>image/svg+xml</dc:format>
        <dc:type
           rdf:resource="http://purl.org/dc/dcmitype/StillImage" />
        <dc:title></dc:title>
      </cc:Work>
    </rdf:RDF>
  </metadata>
  <g
     inkscape:label="Layer 1"
     inkscape:groupmode="layer"
     id="layer1"
     transform="translate(-232.85714,-479.50504)">
    <g
       id="g3213"
       transform="matrix(0.43538019,0,0,0.39641676,233.12336,220.69682)">
      <g
         id="g3148"
         transform="matrix(1.118237,0,0,1.118237,832.66371,-157.95611)"
         style="fill:#1a1a1a">
        <path
           style="fill:#1a1a1a"
           d="m -745.02351,948.92938 c 1.97554,-3.6273 7.83861,-8.2361 14.11726,-11.0972 5.25062,-2.39264 8.42213,-3.084 16.5,-3.59681 5.5,-0.34916 12.475,-1.06066 15.5,-1.5811 10.88602,-1.8729 31.65615,-4.97489 33.3106,-4.97489 1.47231,0 1.6894,1.27449 1.6894,9.91821 0,5.45502 -0.27314,10.63002 -0.60699,11.5 -0.53964,1.40629 -5.09245,1.58179 -41.03518,1.58179 -38.19947,0 -40.37565,-0.0965 -39.47509,-1.75 z m 86.17855,-1.46371 c 1.19251,-4.15804 3.69395,-6.59404 8.45027,-8.22918 l 3.8297,-1.31659 -3.92063,-2.48423 c -3.70223,-2.34585 -22.86674,-22.12179 -24.83517,-25.62752 -0.50299,-0.89582 -1.21691,-1.85377 -1.58648,-2.12877 -1.21023,-0.90053 -9.99898,-19.35234 -9.99898,-20.99264 0,-0.88002 -1.56348,-4.05418 -3.4744,-7.0537 -3.65307,-5.7341 -4.35788,-8.12012 -2.2756,-7.70366 0.73889,0.14778 1.12724,-0.56778 0.94977,-1.75 -0.16512,-1.1 -0.35262,-3.25502 -0.41667,-4.78894 -0.064,-1.53392 -1.4072,-5.35892 -2.9848,-8.5 l -2.86837,-5.71106 0.6186,4 c 0.34023,2.2 1.03099,4.15 1.53503,4.33333 1.21466,0.44181 1.18009,2.16667 -0.0434,2.16667 -0.52792,0 -1.49473,-1.78526 -2.14847,-3.96725 -1.30414,-4.35284 -3.20647,-4.52923 -2.38842,-0.22146 0.39242,2.06642 0.0522,1.76293 -1.4701,-1.31129 -1.08939,-2.2 -1.9925,-4.4974 -2.00693,-5.10534 -0.0144,-0.60794 -1.44181,-1.51133 -3.17198,-2.00753 -3.61006,-1.03535 -3.61478,-1.04332 -7.33235,-12.38713 -1.53209,-4.675 -3.13718,-8.95 -3.56687,-9.5 -1.07854,-1.38051 -2.95502,-15.45953 -2.95502,-22.17123 0,-5.97829 1.64222,-10.3849 5.36731,-14.40224 1.63358,-1.76174 2.28959,-3.53201 2.11786,-5.71507 -0.13684,-1.73951 0.33761,-3.64942 1.05434,-4.24425 1.01699,-0.84403 1.18501,-0.62979 0.76518,0.97564 -0.30575,1.16919 -0.056,2.05715 0.57868,2.05715 0.61415,0 1.12352,-0.5625 1.13194,-1.25 0.0104,-0.84652 0.31561,-0.77517 0.94563,0.22104 1.09461,1.73082 1.24595,1.60377 3.53911,-2.97104 l 1.75441,-3.5 -2.62329,2.42061 c -3.52861,3.25599 -4.34434,2.0804 -1.17227,-1.6894 1.39761,-1.66096 2.54973,-4.07996 2.56028,-5.37557 0.0105,-1.2956 1.58556,-4.15072 3.5,-6.34471 3.16346,-3.62537 3.48082,-3.77733 3.48082,-1.66667 0,3.07233 2.40632,2.27707 2.7916,-0.92259 0.62436,-5.1852 4.06673,-9.82598 7.33596,-9.88987 1.7934,-0.035 4.48437,-2.75321 3.60059,-3.63699 -0.30627,-0.30627 -1.53394,-0.0339 -2.72815,0.60519 -2.97122,1.59015 -3.98798,0.22351 -1.39682,-1.87748 1.15675,-0.93793 2.59883,-2.63145 3.20462,-3.76339 0.6307,-1.17847 3.67091,-2.99493 7.11349,-4.25016 3.30663,-1.20566 6.27861,-2.6234 6.6044,-3.15054 0.32579,-0.52713 1.41069,-0.95843 2.41088,-0.95843 1.0002,0 2.35513,-0.64655 3.01097,-1.43679 0.65583,-0.79023 3.74843,-1.74259 6.87244,-2.11635 3.2047,-0.38342 6.55161,-1.45868 7.68002,-2.46736 1.1,-0.98329 3.8,-2.53096 6,-3.43927 3.9929,-1.64855 4.00415,-1.64666 6.34108,1.06579 1.64005,1.9036 2.56407,2.35647 3.08576,1.51235 0.54248,-0.87775 1.40024,-0.63119 3.15893,0.90804 l 2.41423,2.11297 -3,-0.62177 -3,-0.62176 3.23272,2.30207 c 1.778,1.26615 3.2405,2.65305 3.25,3.08202 0.01,0.42896 -1.30024,-0.19415 -2.91053,-1.38469 -1.67666,-1.23961 -3.62186,-1.8983 -4.55194,-1.54139 -0.89327,0.34278 -1.40482,0.26839 -1.13678,-0.16531 0.26804,-0.4337 -1.05858,-0.78855 -2.94806,-0.78855 -3.49943,0 -4.59771,1.21675 -1.99855,2.21414 1.81691,0.69722 0.86851,3.38586 -1.19433,3.38586 -0.84892,0 0.43672,1.34181 2.85699,2.9818 4.50757,3.05437 6.90048,3.76511 6.90048,2.04959 0,-0.53274 0.64217,-0.7222 1.42704,-0.42101 1.05828,0.4061 1.27885,-0.019 0.85359,-1.64524 -0.48552,-1.85664 -0.25726,-2.0925 1.48881,-1.53832 1.13423,0.36 2.36518,0.16438 2.73543,-0.4347 0.47818,-0.77371 1.08892,-0.74421 2.10832,0.10182 2.27012,1.88403 2.71268,0.34847 0.79464,-2.75718 -1.27348,-2.06199 -0.68079,-1.70083 2.1701,1.32239 3.42329,3.63023 4.36566,4.10608 7.41022,3.7418 1.91849,-0.22954 4.28099,-0.66898 5.25,-0.97654 2.19351,-0.69619 2.23888,-0.0443 0.1428,2.05178 -2.87635,2.87635 -0.66871,3.25094 3.61905,0.61408 0.825,-0.50736 3.075,-1.34568 5,-1.86294 l 3.5,-0.94048 -2.75,-1.11867 c -1.5125,-0.61527 -2.75,-1.59394 -2.75,-2.17481 0,-2.10402 3.04864,-2.1478 7.22951,-0.10383 4.66469,2.28051 18.34432,15.19235 19.30604,18.22246 0.32957,1.0384 0.95135,1.888 1.38173,1.888 0.99353,0 12.08272,16.60164 12.08272,18.08906 0,0.60977 0.61847,2.52669 1.37438,4.25981 2.33133,5.34522 3.76253,11.64441 3.1116,13.69529 -0.35143,1.10726 -0.15765,1.95584 0.44663,1.95584 0.58707,0 1.06739,0.9 1.06739,2 0,1.30059 -0.66667,2 -1.90638,2 -1.41405,0 -1.77131,-0.51651 -1.38337,-2 0.60135,-2.29955 -0.44796,-2.51505 -2.96025,-0.60795 -2.02088,1.53406 -2.29548,2.72116 -0.54545,2.35795 0.6625,-0.1375 1.2627,0.2 1.33379,0.75 0.0711,0.55 0.65404,2.2668 1.29545,3.8151 0.64142,1.5483 1.16621,3.2358 1.16621,3.75 0,1.44919 1.72188,1.10206 2.32461,-0.46865 0.29623,-0.77195 0.32283,-2.23445 0.0591,-3.25 -0.53048,-2.04279 2.04541,-6.25065 3.15014,-5.14592 0.38356,0.38355 0.21339,2.08576 -0.37816,3.78267 -0.59154,1.69691 -0.69397,2.84947 -0.22762,2.56125 1.31021,-0.80975 1.97926,5.78 0.74256,7.31376 -0.82931,1.02853 -0.62001,1.70564 0.86224,2.78949 1.56005,1.14074 1.68296,1.60087 0.60549,2.26679 -0.98738,0.61023 -1.04038,1.02804 -0.19657,1.54954 0.76175,0.47079 0.82439,1.11277 0.18388,1.88454 -0.54076,0.65157 -0.65572,2.7142 -0.25931,4.65242 0.46056,2.25191 0.18169,4.95699 -0.78944,7.65758 -1.27339,3.54117 -1.31735,5.44974 -0.28924,12.56045 0.66677,4.61163 1.21231,9.54682 1.21231,10.96708 0,2.63606 -7.65449,19.04266 -9.1664,19.64723 -0.45848,0.18334 -0.8336,1.20194 -0.8336,2.26357 0,1.06163 -0.39082,2.71163 -0.86849,3.66667 -0.47766,0.95504 -1.49038,3.76143 -2.25047,6.23643 -1.01219,3.29588 -1.91703,4.52728 -3.38152,4.60194 -1.09973,0.0561 -2.54819,0.16857 -3.21879,0.25 -0.6706,0.0814 -2.79259,2.60755 -4.71553,5.61359 -1.92294,3.00604 -4.41177,6.38104 -5.53073,7.5 -2.02297,2.02298 -2.03446,2.02317 -2.03446,0.0345 0,-1.1 0.45,-2 1,-2 0.55,0 1,-0.88588 1,-1.96862 0,-1.46064 -0.45156,-1.79762 -1.75,-1.30595 -1.66667,0.63111 -1.66667,0.57859 0,-1.10281 0.9625,-0.97101 1.75,-3.18346 1.75,-4.91655 0,-2.94839 -0.0862,-3.0242 -1.33992,-1.17858 -0.73696,1.08488 -2.39255,4.11166 -3.67909,6.72617 -1.28654,2.61452 -3.13147,5.60412 -4.09986,6.64355 -0.96838,1.03944 -1.53285,2.11773 -1.25438,2.39621 0.27847,0.27847 0.0264,0.80293 -0.56022,1.16546 -1.49902,0.92645 -1.26419,-1.48914 0.43347,-4.45888 3.70541,-6.48194 -0.56978,-3.15154 -6.41498,4.9973 l -3.22593,4.4973 2.31813,0.54724 c 2.28668,0.53981 2.27067,0.59532 -1.17954,4.09019 -1.92372,1.94863 -4.84768,4.23325 -6.49768,5.07693 -1.65,0.84368 -5.02724,2.64552 -7.50497,4.00409 -2.47773,1.35856 -6.30273,3.08299 -8.5,3.83208 -4.31008,1.46937 -13.49503,2.094 -13.49503,0.91774 0,-1.32608 -8.37834,-2.96874 -9.10933,-1.78597 -0.71988,1.16479 4.15283,6.8231 5.87579,6.8231 0.57746,0 1.96174,2.7 3.07616,6 l 2.02623,6 -4.77944,0 c -3.50944,0 -5.26038,-0.53144 -6.58941,-2 -0.99549,-1.1 -2.25998,-2 -2.80998,-2 -0.55,0 -0.18551,0.9 0.80998,2 1.78945,1.97732 1.74663,2 -3.77521,2 l -5.58518,0 0.92168,-3.21371 z m 31.65095,-21.31258 c 5.14929,-3.21305 18.58901,-13.72678 21.28776,-16.65315 3.73762,-4.05287 4.24701,-4.76597 8.44381,-11.82056 2.12678,-3.575 4.75766,-7.49361 5.84642,-8.70803 1.62153,-1.8087 2.0103,-3.80352 2.14962,-11.02992 0.0935,-4.85204 0.48565,-9.33249 0.87135,-9.95656 0.38569,-0.62407 0.13596,-1.3981 -0.55497,-1.72008 -1.00308,-0.46744 -1.00434,-0.70296 -0.006,-1.16874 2.20972,-1.03121 1.33783,-2.94504 -1.89813,-4.16648 -2.35114,-0.88746 -2.89196,-1.51258 -2.13624,-2.46924 0.55653,-0.70452 1.29866,-5.19034 1.64916,-9.96849 0.5713,-7.78818 0.36574,-9.44454 -1.98569,-16 -1.44263,-4.02185 -3.7074,-9.17641 -5.03282,-11.45456 -2.53222,-4.35242 -2.70378,-5.57114 -2.37395,-16.86358 0.16554,-5.66732 -0.24211,-7.85866 -2.13385,-11.47067 -2.92891,-5.59191 -5.93702,-7.23905 -11.83871,-6.48238 -2.475,0.31733 -6.525,0.73038 -9,0.91789 -7.37924,0.55908 -25.16242,3.5574 -27.0313,4.55759 -0.95537,0.5113 -4.60166,0.66737 -8.10287,0.34682 -6.81512,-0.62394 -16.18851,1.81626 -19.43069,5.05844 -0.8679,0.86789 -1.94798,1.57799 -2.40019,1.57799 -1.42306,0 -9.9839,13.3588 -10.57384,16.5 -0.30988,1.65 -0.19675,5.475 0.25139,8.5 0.74859,5.05301 1.02912,5.50366 3.45177,5.54507 1.45033,0.0248 3.24418,0.52688 3.98635,1.11575 0.74216,0.58886 4.44577,1.37465 8.23024,1.74618 3.78447,0.37153 8.50947,1.37803 10.5,2.23666 3.24464,1.39959 3.41219,1.64675 1.61914,2.38845 -1.1,0.45503 -1.63594,0.85895 -1.19098,0.8976 0.44496,0.0387 0.51739,0.54214 0.16097,1.11885 -0.44644,0.72235 -1.03517,0.72727 -1.89243,0.0158 -0.90226,-0.74881 -1.83824,-0.34976 -3.40436,1.45144 -2.43798,2.80392 -5.32958,3.20561 -7.16406,0.9952 -1.49889,-1.80605 -2.82652,-1.12153 -4.04607,2.08613 -1.13836,2.99412 -3.37353,3.08264 -5.38336,0.21319 -1.92449,-2.74758 -2.2868,-2.36191 -4.03107,4.29096 -1.13607,4.33309 -1.19583,6.82974 -0.30276,12.64871 0.61198,3.9875 1.48202,7.25 1.93341,7.25 0.45139,1e-5 0.82071,1.32224 0.82071,2.93829 0,1.87563 1.0956,4.136 3.02938,6.25 2.83605,3.10037 6.92026,13.83811 7.00606,18.41953 0.0195,1.04071 0.67854,3.01719 1.46456,4.39219 0.78602,1.375 1.44507,3.5125 1.46457,4.75 0.0195,1.2375 0.37558,2.25 0.79132,2.25 0.41574,0 1.37553,1.39986 2.13286,3.1108 2.16631,4.89402 14.34297,16.3189 18.7809,17.62136 2.10669,0.61829 8.11641,1.03215 13.35492,0.91971 7.49926,-0.16098 10.19718,-0.62414 12.68767,-2.17816 z m -23.71224,-19.47371 c 0,-1.26441 2.04347,-1.26441 4,0 1.16887,0.75538 0.89294,0.97275 -1.25,0.98469 -1.5125,0.008 -2.75,-0.43469 -2.75,-0.98469 z M -663.7401,895.8548 c -2.25254,-1.51497 0.36462,-1.71451 14.83385,-1.13096 13.41715,0.54112 13.43863,0.54579 3.5,0.76101 -5.5,0.1191 -11.575,0.4529 -13.5,0.74179 -1.925,0.28889 -4.10023,0.12156 -4.83385,-0.37184 z m 30.83385,-0.24347 c -2.17513,-0.63739 -2.0127,-0.74554 1.25,-0.83227 3.80757,-0.10121 4.76475,0.32975 2.5,1.1256 -0.6875,0.2416 -2.375,0.1096 -3.75,-0.29333 z m -12.08969,-20.32389 c 1.4444,-1.74038 4.91116,-2.70594 5.6167,-1.56435 0.63088,1.02078 -2.69746,2.95629 -5.08371,2.95629 -1.32898,0 -1.44239,-0.29617 -0.53299,-1.39194 z m 28.25495,-36.27725 c -0.80741,-1.44276 -1.34446,-1.49923 -3.95897,-0.41626 -3.19924,1.32517 -7.20629,0.17151 -7.20629,-2.07473 0,-0.67441 -1.12875,-0.86407 -2.96123,-0.49757 -3.51896,0.70379 -4.91888,-0.80086 -2.13252,-2.29208 5.95524,-3.18714 21.10957,1.13908 19.41932,5.54379 -0.72266,1.88323 -2.01957,1.77524 -3.16031,-0.26315 z m -5.16526,-1.33081 c 0,-0.55 -0.47656,-1 -1.05902,-1 -0.58246,0 -0.7809,0.45 -0.44098,1 0.33992,0.55 0.81648,1 1.05902,1 0.24254,0 0.44098,-0.45 0.44098,-1 z m -3,-1 c 0,-0.55 -0.47656,-1 -1.05902,-1 -0.58246,0 -0.7809,0.45 -0.44098,1 0.33992,0.55 0.81648,1 1.05902,1 0.24254,0 0.44098,-0.45 0.44098,-1 z m 18.125,-2.70395 c -0.75625,-0.30033 -2.15864,-1.32969 -3.11643,-2.28748 -2.63062,-2.63062 -9.5945,-3.2822 -16.30736,-1.5258 -6.59138,1.72461 -14.70121,2.00994 -14.70121,0.51723 0,-0.55 0.88473,-1 1.96607,-1 1.77314,0 6.63283,-1.77741 11.27036,-4.12208 0.95504,-0.48286 3.43004,-0.90955 5.5,-0.94821 2.06996,-0.0387 4.6087,-0.40226 5.64164,-0.80801 4.62146,-1.81535 10.90677,1.49927 13.32774,7.02853 1.55161,3.54373 0.26574,4.6734 -3.58081,3.14582 z m 3.31613,84.17215 c 1.06762,-0.80751 1.44193,-1.4682 0.83179,-1.4682 -1.89699,0 -4.27292,1.17158 -4.27292,2.10699 0,1.27684 1.20391,1.05336 3.44113,-0.63879 z m 19.55887,-39.4682 c 0,-5.07479 -1.33738,-6.6631 -2.50713,-2.97753 -0.78208,2.46411 0.31444,7.97753 1.58659,7.97753 0.50629,0 0.92054,-2.25 0.92054,-5 z m 11.31996,-13.31693 c 2.40407,-2.70744 7.67818,-13.59327 7.67925,-15.85006 6.1e-4,-1.2932 -0.7883,-1.60438 -3.51823,-1.38778 -3.26832,0.25933 -4.94751,1.26813 -9.66227,5.80477 -1.00029,0.9625 -2.69215,1.75 -3.75969,1.75 -2.07571,0 -2.96355,0.9444 -3.52189,3.74624 -0.19221,0.96457 -0.66548,2.99126 -1.05171,4.50376 -0.61768,2.41889 -0.41827,2.75184 1.65617,2.76531 1.29713,0.008 3.03341,0.4629 3.85841,1.00995 2.0739,1.37519 6.0007,0.26973 8.31996,-2.34219 z m -108.31996,-27.27424 c 3.31216,-1.25015 3.35494,-1.3234 0.79705,-1.36494 -3.16695,-0.0514 -7.79705,1.86284 -7.79705,3.22361 0,0.52056 0.7875,0.61256 1.75,0.20443 0.9625,-0.40813 3.325,-1.33652 5.25,-2.0631 z m 7,0.53215 c 0,-0.58246 -0.45,-0.7809 -1,-0.44098 -0.55,0.33992 -1,0.81648 -1,1.05902 0,0.24254 0.45,0.44098 1,0.44098 0.55,0 1,-0.47656 1,-1.05902 z m 97.25,-45.60326 c -0.6875,-0.27741 -1.8125,-0.27741 -2.5,0 -0.6875,0.27741 -0.125,0.50438 1.25,0.50438 1.375,0 1.9375,-0.22697 1.25,-0.50438 z m -55,-25.36983 c 6.32428,-1.6048 6.0179,-2.96789 -0.66709,-2.96789 -3.19516,0 -7.33088,-0.82034 -10.08291,-2 -2.5662,-1.1 -6.316,-1.93241 -8.33291,-1.84981 -3.62033,0.14828 -3.60971,0.15912 0.83291,0.84981 l 4.5,0.69961 -5.80902,0.1502 c -3.21922,0.0832 -5.55701,0.55794 -5.24377,1.06478 0.31089,0.50302 -5e-5,1.11156 -0.69098,1.3523 -0.69093,0.24075 0.6822,0.77311 3.05138,1.18305 3.9377,0.68132 4.15239,0.86585 2.5,2.14884 -1.58223,1.22852 -0.74779,1.35183 6.69239,0.98898 4.675,-0.228 10.6375,-0.95694 13.25,-1.61987 z m 37.9375,-3.651 c -0.72188,-0.28887 -1.58438,-0.25335 -1.91667,0.0789 -0.33229,0.33229 0.25834,0.56864 1.3125,0.52522 1.16495,-0.048 1.4019,-0.28494 0.60417,-0.60417 z m 1.05627,-2.98125 c -0.69093,-0.27855 -1.03154,-0.87002 -0.75691,-1.31438 0.67558,-1.09311 -4.28046,-2.26686 -5.74631,-1.36091 -1.25938,0.77834 3.60168,3.27556 6.25945,3.2156 1.0226,-0.0231 1.10019,-0.19503 0.24377,-0.54031 z m -43.47628,-3.7149 c -1.60142,-1.2161 -1.5404,-1.40318 0.80639,-2.47245 1.39639,-0.63624 2.26196,-1.60488 1.92349,-2.15254 -0.33847,-0.54766 0.31115,-0.99575 1.44361,-0.99575 1.13246,0 2.05902,-0.45 2.05902,-1 0,-0.90543 -2.48918,-1.369 -7.24559,-1.34935 -0.96008,0.004 -1.53057,-0.20782 -1.26776,-0.47063 0.26281,-0.26281 -0.75167,-1.53528 -2.25441,-2.82771 -1.50273,-1.29243 -2.3626,-2.35042 -1.91081,-2.35109 0.45178,-6.7e-4 0.0929,-0.72979 -0.79762,-1.62027 -0.89048,-0.89047 -1.86889,-1.3692 -2.17425,-1.06384 -0.30536,0.30536 -1.71211,0.11535 -3.12611,-0.42225 -2.62489,-0.99799 -8.22345,-0.32293 -8.22345,0.99155 0,0.40013 1.2375,1.23387 2.75,1.85276 l 2.75,1.12525 -2.86061,-0.56838 c -2.56491,-0.50963 -2.79052,-0.34757 -2.18261,1.56779 0.45247,1.42559 0.23978,2.17295 -0.63939,2.24675 -2.05275,0.1723 9.37238,3.03801 12.18261,3.0557 1.74341,0.011 1.06249,0.49528 -2.25,1.6003 -2.6125,0.8715 -4.75,1.90309 -4.75,2.29241 0,0.77425 3.05751,1.65474 10,2.87975 7.09383,1.25172 7.78443,1.21364 5.76749,-0.318 z m 34.76311,-1.40158 c -0.29183,-0.76051 -0.5306,-1.84842 -0.5306,-2.41758 0,-0.56916 -0.9,-0.79949 -2,-0.51183 -1.1,0.28766 -2,0.11514 -2,-0.38337 0,-0.49851 0.87344,-0.90638 1.94098,-0.90638 1.06754,0 2.18996,-0.40285 2.49426,-0.89521 0.69656,-1.12706 -1.77333,-2.10479 -5.31703,-2.10479 -1.49501,0 -3.18617,-0.46796 -3.75813,-1.03992 -0.71989,-0.71989 -1.75462,-0.46118 -3.36233,0.84066 -1.5865,1.28467 -1.9541,2.1082 -1.16008,2.59893 0.63928,0.3951 1.16233,0.24181 1.16233,-0.34065 0,-0.58246 1.42844,-1.05902 3.17431,-1.05902 l 3.17432,0 -2.27908,2.42597 c -2.37004,2.52279 -2.0895,4.90265 0.46248,3.92337 0.80738,-0.30983 1.46797,-0.10971 1.46797,0.44469 0,0.55441 1.58877,0.96298 3.5306,0.90794 2.5694,-0.0728 3.38615,-0.47653 3,-1.48281 z m 8.72774,-9.33926 c -0.6121,-2.34067 -4.59021,-4.91086 -6.12899,-3.95984 -0.85297,0.52716 -0.9281,1.47906 -0.25622,3.24624 0.71763,1.88751 1.67393,2.50037 3.90155,2.50037 2.34119,0 2.85437,-0.36918 2.48366,-1.78677 z m -32.81721,-4.3481 c -2.10563,-1.59262 -6.4995,-2.15755 -4.89113,-0.62887 0.85931,0.81675 3.41358,1.67569 5.89113,1.98107 0.51762,0.0638 0.0676,-0.54469 -1,-1.3522 z m 31.43515,202.7182 c 7.33368,-7.26704 18.15149,-19.82374 21.70639,-25.19556 l 2.7277,-4.12183 -1.58687,-5.70128 c -0.87278,-3.13571 -1.39537,-5.89279 -1.16132,-6.12685 1.11976,-1.11976 5.12215,4.29147 9.53812,12.89552 7.39038,14.39938 9.69289,18.09387 14.3343,23 2.34145,2.475 5.25718,5.9625 6.47939,7.75 l 2.2222,3.25 -30.03132,0 -30.03133,0 5.80274,-5.75 z m -52.3692,-12.23855 c -0.35034,-0.56686 0.0511,-0.7345 0.94098,-0.39301 1.73242,0.66479 2.04939,1.38156 0.61096,1.38156 -0.51754,0 -1.21592,-0.44485 -1.55194,-0.98855 z m 26.02414,-198.30458 c -0.42806,-0.98622 -0.4977,-2.07372 -0.15476,-2.41666 1.01549,-1.0155 1.83409,0.41094 1.3667,2.38152 -0.41435,1.74695 -0.46826,1.74851 -1.21194,0.0351 z m 8.46878,-1.20687 c 0,-1.84109 0.77935,-1.84109 4,0 l 2.5,1.42913 -3.25,0.0354 c -2.23797,0.0244 -3.25,-0.43166 -3.25,-1.46457 z"
           id="path3150"
           inkscape:connector-curvature="0" />
      </g>
    </g>
  </g>
</svg>
