<?xml version="1.0" encoding="UTF-8" standalone="no"?>
<!-- Created with Inkscape (http://www.inkscape.org/) -->

<svg
   xmlns:dc="http://purl.org/dc/elements/1.1/"
   xmlns:cc="http://creativecommons.org/ns#"
   xmlns:rdf="http://www.w3.org/1999/02/22-rdf-syntax-ns#"
   xmlns:svg="http://www.w3.org/2000/svg"
   xmlns="http://www.w3.org/2000/svg"
   xmlns:sodipodi="http://sodipodi.sourceforge.net/DTD/sodipodi-0.dtd"
   xmlns:inkscape="http://www.inkscape.org/namespaces/inkscape"
   version="1.1"
   width="100"
   height="100"
   id="svg3009"
   inkscape:version="0.48.2 r9819"
   sodipodi:docname="1.svg">
  <sodipodi:namedview
     pagecolor="#ffffff"
     bordercolor="#666666"
     borderopacity="1"
     objecttolerance="10"
     gridtolerance="10"
     guidetolerance="10"
     inkscape:pageopacity="0"
     inkscape:pageshadow="2"
     inkscape:window-width="1237"
     inkscape:window-height="793"
     id="namedview3832"
     showgrid="false"
     inkscape:zoom="2.36"
     inkscape:cx="50"
     inkscape:cy="50"
     inkscape:window-x="0"
     inkscape:window-y="0"
     inkscape:window-maximized="0"
     inkscape:current-layer="svg3009" />
  <defs
     id="defs3011" />
  <metadata
     id="metadata3014">
    <rdf:RDF>
      <cc:Work
         rdf:about="">
        <dc:format>image/svg+xml</dc:format>
        <dc:type
           rdf:resource="http://purl.org/dc/dcmitype/StillImage" />
        <dc:title />
      </cc:Work>
    </rdf:RDF>
  </metadata>
  <g
     id="g3812"
     transform="translate(-122.74912,-465.20088)">
    <path
       inkscape:connector-curvature="0"
       style="fill:#656565"
       id="path3032"
       d="m 150.99117,562.14044 c -0.54997,-0.6199 -0.63502,-1.75162 -0.34995,-4.65631 0.20714,-2.11056 0.33777,-6.06452 0.2903,-8.78658 -0.093,-5.33557 0.21503,-7.08288 1.2488,-7.08288 0.42916,0 0.87934,1.75318 1.29478,5.04239 0.47529,3.7631 1.1811,6.27911 2.78199,9.91703 1.17982,2.68106 2.14513,5.18174 2.14513,5.55708 0,1.05751 -6.47389,1.0656 -7.41105,0.009 z m 23.50982,-2.06877 c -1.80812,-1.61336 -4.00425,-3.30404 -4.8803,-3.75705 -2.25263,-1.16488 -1.97542,-1.77457 0.67992,-1.49545 1.25,0.13139 3.2353,0.0314 4.41177,-0.22216 1.8656,-0.40212 2.29606,-0.79102 3.36742,-3.04234 0.6756,-1.41971 1.10167,-2.70798 0.94682,-2.86283 -0.54819,-0.5482 -5.94193,-1.17851 -7.54872,-0.88215 -1.92318,0.35472 -4.35297,-1.25564 -3.85451,-2.55461 0.31508,-0.82107 4.51775,-1.50138 9.27491,-1.50138 1.26303,0 2.4673,-0.2765 2.67617,-0.61446 0.27819,-0.45011 -0.59478,-0.53623 -3.26382,-0.32199 -3.71373,0.29811 -8.81752,-0.71361 -8.81752,-1.74787 0,-0.78256 2.453,-1.21083 4.95337,-0.86479 1.24623,0.17246 3.06634,0.13785 4.04468,-0.0769 l 1.77881,-0.39051 -1.69111,-1.25028 c -1.68516,-1.2459 -1.69517,-1.2466 -2.84832,-0.19883 -1.50529,1.36774 -2.49412,0.96299 -2.49412,-1.02087 0,-1.20421 -0.38685,-1.80327 -1.61151,-2.49555 -0.88633,-0.50102 -1.54563,-1.27192 -1.46512,-1.71309 0.22478,-1.23175 2.21653,-1.24585 3.32271,-0.0235 1.10727,1.22352 3.09952,1.44166 3.8778,0.42461 0.28993,-0.37889 0.46197,-4.57976 0.39714,-9.69754 l -0.11438,-9.0291 1.76398,-1.71305 c 1.41293,-1.37215 2.65056,-1.90274 6.21914,-2.66623 2.45034,-0.52425 4.8307,-1.14895 5.28969,-1.38823 1.64219,-0.8561 4.63493,-6.74466 5.02841,-9.89398 0.50295,-4.02544 -0.487,-3.76215 -2.65438,0.70599 -0.88235,1.81899 -1.78476,3.3134 -2.00535,3.3209 -0.6601,0.0224 -0.45462,-2.99853 0.37063,-5.44895 1.28352,-3.8112 1.56096,-7.48678 0.65649,-8.69726 -1.38206,-1.84964 -10.8358,-1.25354 -14.27019,0.8998 -2.21359,1.3879 -4.12961,1.59556 -5.96493,0.64648 -1.19674,-0.61885 -2.60158,-0.80528 -4.84525,-0.64299 -2.91324,0.21072 -3.13878,0.14797 -2.88982,-0.80404 0.23412,-0.89528 0.0588,-0.99034 -1.3186,-0.71487 -1.47015,0.29402 -1.57726,0.21065 -1.4362,-1.11789 0.20743,-1.95379 -2.07468,-2.87935 -3.9958,-1.62059 -1.65271,1.0829 -4.14055,9.92465 -4.14055,14.71547 0,1.79427 -0.48,6.1058 -1.06667,9.58119 -0.58667,3.47539 -1.06796,6.37905 -1.06952,6.45258 -0.0196,0.92018 -3.74617,-1.90002 -3.74617,-2.83504 0,-0.13191 -0.46786,-0.70769 -1.03969,-1.27952 -1.12243,-1.12243 -1.94364,-4.33422 -1.44227,-5.64078 0.17015,-0.44339 0.8124,-0.80616 1.42722,-0.80616 0.67461,0 0.97418,-0.23249 0.75549,-0.58633 -0.68795,-1.11312 -0.30136,-14.61947 0.5045,-17.62578 1.70133,-6.34686 4.13858,-10.40324 8.60917,-14.32847 4.28273,-3.76029 12.72558,-6.37494 18.59447,-5.75848 8.72995,0.91697 14.71834,3.49632 20.78204,8.95132 3.13001,2.81582 4.46178,4.47772 5.75095,7.17657 1.6753,3.50722 3.25999,10.66467 3.29633,14.88828 0.0104,1.21147 0.36285,2.80428 0.78318,3.53957 1.00613,1.76003 0.99719,4.6603 -0.0233,7.55257 -0.45397,1.28669 -1.33626,4.48892 -1.96064,7.11605 -0.87173,3.6679 -1.53255,5.21959 -2.84696,6.68502 -2.15064,2.39774 -2.19287,2.5473 -3.18189,11.26668 l -0.81886,7.21926 1.22153,2.40641 c 2.6227,5.16671 4.37496,7.48316 6.0883,8.04862 0.93088,0.30722 3.2078,1.9871 5.05983,3.73308 3.27768,3.09 4.23338,3.69818 9.09904,5.79031 l 2.33618,1.00451 -10.29412,0.0925 c -6.84264,0.0615 -10.29412,-0.0943 -10.29412,-0.46473 0,-0.3065 -0.48128,-0.55727 -1.06952,-0.55727 -0.58823,0 -1.06952,0.24064 -1.06952,0.53476 0,0.29412 -1.08288,0.53476 -2.40641,0.53476 -1.32353,0 -2.40642,-0.24268 -2.40642,-0.53929 0,-0.32193 -0.42573,-0.27342 -1.05625,0.12035 -0.89215,0.55715 -1.1803,0.49555 -1.85465,-0.39654 -0.52467,-0.69407 -0.80423,-0.80562 -0.81541,-0.32536 -0.0108,0.46497 -0.40606,0.62908 -1.08653,0.45113 -0.58823,-0.15382 -1.06951,-0.0616 -1.06951,0.20501 0,0.26659 -1.65414,0.4847 -3.67585,0.4847 l -3.67585,0 -3.2875,-2.93337 z m 13.66376,-2.55809 c -0.14648,-0.36205 -0.25741,0.0636 -0.24652,0.94601 0.0109,0.88235 0.13075,1.17857 0.26634,0.65827 0.13558,-0.52031 0.12666,-1.24223 -0.0198,-1.60428 z m -0.51093,-27.79731 c -0.10561,-3.81895 -0.0862,-3.87944 1.29729,-4.03984 1.71113,-0.19838 4.99476,-4.03053 4.51806,-5.27279 -0.33517,-0.87343 -0.7067,-0.84155 -4.95264,0.4251 -2.65932,0.79332 -5.18834,0.0243 -4.63785,-1.41024 0.17694,-0.46107 -0.10498,-1.30979 -0.62647,-1.88603 -0.73948,-0.81712 -1.11221,-0.91157 -1.69347,-0.42917 -0.40992,0.3402 -0.63875,0.89622 -0.50852,1.23559 0.13023,0.33938 0.004,1.90009 -0.28144,3.46826 -0.28502,1.56816 -0.38373,3.38706 -0.21935,4.04199 0.22414,0.89304 6.47266,7.69841 7.10439,7.7375 0.059,0.004 0.059,-1.73802 0,-3.87037 z m -41.76274,-19.50758 c -0.1777,-0.17769 -0.30409,0.13815 -0.28087,0.70188 0.0257,0.62296 0.15238,0.74967 0.32309,0.32308 0.15447,-0.38603 0.13547,-0.84726 -0.0422,-1.02496 z m 13.48594,39.56106 c -2.4879,-2.92772 -4.35773,-8.4051 -4.99949,-14.64526 -0.50985,-4.95748 -0.0109,-6.80756 2.0724,-7.68355 2.9222,-1.22875 3.94596,0.73557 1.95229,3.74592 -1.85056,2.79424 -1.15214,13.00098 1.06117,15.50802 0.94896,1.07489 2.14738,3.14437 2.14738,3.70816 0,0.66693 -1.48714,0.2453 -2.23375,-0.63329 z m 1.80747,-5.08321 c -0.95966,-1.15631 -1.25999,-3.32133 -0.67441,-4.86154 0.50963,-1.34043 0.77811,-1.46497 2.83715,-1.31602 2.012,0.14554 2.29314,0.32779 2.43818,1.58054 0.11073,0.95638 -0.27983,1.8598 -1.2032,2.78317 -0.75194,0.75194 -1.36716,1.61874 -1.36716,1.92623 0,0.77614 -1.35541,0.70113 -2.03056,-0.11238 z m -10.03032,-5.79226 c -0.19761,-0.31975 -0.0915,-0.84917 0.23582,-1.17648 0.43698,-0.43698 0.59512,-0.2825 0.59512,0.58136 0,1.29118 -0.27779,1.49013 -0.83094,0.59512 z m 10.72763,-5.29511 c -0.56781,-0.91873 0.83345,-2.74887 2.70269,-3.52989 0.99997,-0.41781 2.21148,-1.36 2.69226,-2.09377 0.98056,-1.49652 1.82066,-1.74199 1.82066,-0.53197 0,0.44118 -0.26149,0.80214 -0.58109,0.80214 -0.31959,0 -1.87099,1.32122 -3.44756,2.93603 -1.57656,1.61481 -3.01069,2.70267 -3.18696,2.41746 z m -2.76171,-13.90964 c -0.78618,-0.88235 -1.72697,-1.60428 -2.09065,-1.60428 -0.36368,0 -1.16105,-0.78208 -1.77195,-1.73796 -1.02809,-1.6087 -1.04429,-1.78769 -0.21768,-2.40642 0.54058,-0.40464 0.64164,-0.69483 0.25606,-0.7353 -0.35033,-0.0368 -0.87761,-0.127 -1.17173,-0.20053 -0.29411,-0.0735 -0.7754,-0.16377 -1.06952,-0.20053 -0.94589,-0.11824 -0.57583,-2.68103 0.46779,-3.23956 2.24737,-1.20276 5.29323,-1.25603 8.19208,-0.14329 1.5606,0.59904 3.82761,1.34946 5.03778,1.6676 3.24595,0.85331 5.02062,2.4452 5.01074,4.4947 -0.0113,2.3358 -0.74266,3.43148 -1.73878,2.60478 -0.61054,-0.50671 -0.87866,-0.36717 -1.37108,0.71357 -0.74142,1.62724 -2.57455,2.3915 -5.73616,2.3915 -1.95638,0 -2.6157,-0.27858 -3.7969,-1.60428 z m 1.88856,-1.25573 c 0.84924,-1.02327 -1.03272,-2.77787 -1.97202,-1.83857 -0.82561,0.8256 -0.80956,1.86498 0.034,2.20538 1.08006,0.43582 1.3076,0.39275 1.93798,-0.36681 z m 4.8802,-1.41806 c 0,-0.29412 -0.22644,-0.53476 -0.5032,-0.53476 -0.27676,0 -0.65192,0.24064 -0.8337,0.53476 -0.18177,0.29411 0.0447,0.53475 0.5032,0.53475 0.45853,0 0.8337,-0.24064 0.8337,-0.53475 z" />
    <path
       inkscape:connector-curvature="0"
       style="fill:#313131"
       id="path3030"
       d="m 151.31312,560.93199 c -0.15293,-1.14017 -0.0287,-3.12547 0.27599,-4.41176 0.30473,-1.2863 0.57865,-3.58215 0.60871,-5.10191 0.0635,-3.20942 0.17689,-3.19187 1.43055,0.22143 0.51346,1.39797 1.7764,4.52705 2.80654,6.95353 1.77962,4.19183 1.90606,5.20613 0.46998,3.77005 -0.49911,-0.49911 -0.78431,-0.49911 -1.28342,0 -0.35294,0.35294 -1.40414,0.64171 -2.33601,0.64171 -1.56336,0 -1.71578,-0.1602 -1.97234,-2.07305 z m 41.1639,1.3845 c -0.27444,-0.7152 0.54812,-14.711 0.98883,-16.82482 0.30718,-1.47332 1.11319,-1.56474 1.55388,-0.17625 0.29149,0.91844 -0.24359,8.24564 -1.10633,15.14951 -0.3094,2.47584 -0.90313,3.24118 -1.43638,1.85156 z m -19.50261,-5.00331 c -1.32638,-0.55484 -0.62806,-1.26001 1.24777,-1.26001 1.29388,0 1.84473,0.21709 1.69608,0.66845 -0.23714,0.72008 -1.85798,1.04578 -2.94385,0.59156 z m 4.53654,-1.32637 c 0.36275,-0.36547 0.79425,-0.52977 0.95889,-0.36512 0.16465,0.16464 -0.13214,0.46366 -0.65953,0.66448 -0.76214,0.2902 -0.82356,0.22878 -0.29936,-0.29936 z m -15.68293,-14.45327 c -0.60396,-0.97722 1.39166,-2.18502 2.32728,-1.40854 0.64981,0.5393 0.62184,0.73272 -0.19203,1.32784 -1.17271,0.85751 -1.64415,0.87533 -2.13525,0.0807 z m 11.0127,0.0811 c 0,-0.29412 0.66177,-0.53108 1.47059,-0.52658 1.14595,0.006 1.29352,0.12263 0.66845,0.52658 -1.04628,0.67615 -2.13904,0.67615 -2.13904,0 z m 6.41711,0.011 c -1.02941,-0.22275 -1.38607,-0.43667 -0.79258,-0.47539 0.59349,-0.0387 1.96499,-0.67239 3.04778,-1.40817 1.69265,-1.15019 2.15997,-1.25063 3.33269,-0.7163 2.01024,0.91592 1.87448,2.27373 -0.24029,2.40348 -0.7353,0.0451 -1.81818,0.19887 -2.40642,0.34169 -0.58824,0.14283 -1.91176,0.0774 -2.94118,-0.14531 z m -6.92114,-5.3012 c -0.52309,-0.97739 -0.45621,-1.12693 0.50403,-1.12693 1.30922,0 3.65975,-1.37642 4.8781,-2.8565 0.55087,-0.66922 1.20131,-0.92562 1.78244,-0.70262 1.10656,0.42463 0.86684,1.40415 -0.5345,2.18402 -0.56625,0.31513 -1.34766,0.99409 -1.73646,1.50879 -0.3888,0.51471 -1.24674,0.93583 -1.90653,0.93583 -0.6598,0 -1.4661,0.26648 -1.7918,0.59217 -0.43305,0.43306 -0.75422,0.28937 -1.19528,-0.53476 z m 10.26061,-4.09008 c -1.16672,-0.8172 -1.65872,-2.38444 -0.74855,-2.38444 0.72004,0 2.35075,2.01994 2.14032,2.6512 -0.12202,0.36608 -0.62625,0.26944 -1.39177,-0.26676 z m 3.93477,-12.40076 c -0.59218,-0.59218 -0.33205,-1.13848 0.69775,-1.46533 1.15323,-0.36602 1.85336,-1.7008 1.12745,-2.14945 -0.26374,-0.163 -0.96492,0.22465 -1.55817,0.86143 -1.0231,1.09816 -1.14771,1.11254 -2.41949,0.27924 -1.66981,-1.09411 -3.18395,-1.12266 -4.05226,-0.0764 -0.85186,1.02644 -2.88573,1.03334 -3.7328,0.0127 -0.53527,-0.64495 -0.34482,-1.18137 1.04041,-2.93036 1.72025,-2.17199 2.51226,-2.52836 8.41464,-3.78619 1.70933,-0.36427 3.66707,-1.29704 5.08021,-2.42048 2.71419,-2.15778 3.21666,-2.23043 4.39194,-0.63499 0.83326,1.13115 0.86643,0.64646 0.55377,-8.09357 -0.36124,-10.09858 -0.96763,-12.3826 -3.77599,-14.22271 -0.94716,-0.62061 -1.23515,-1.17096 -1.00017,-1.91134 0.45794,-1.44282 -0.51575,-1.30352 -1.51155,0.21625 -0.85774,1.30908 -4.73458,2.72099 -6.60244,2.40455 -0.57474,-0.0974 -1.6334,0.19954 -2.35257,0.65979 -1.95265,1.24965 -5.97274,3.06686 -7.19953,3.25441 -0.5935,0.0907 -2.03735,-0.10924 -3.20855,-0.44438 -1.1712,-0.33515 -3.39213,-0.97135 -4.93539,-1.41379 -1.54327,-0.44244 -3.28792,-0.6784 -3.87701,-0.52435 -0.80277,0.20992 -1.07106,0.0173 -1.07106,-0.76893 0,-1.56606 -1.71283,-2.81905 -3.85364,-2.81905 -2.37963,0 -2.81877,0.54072 -4.15947,5.12163 -0.59589,2.03605 -1.31491,4.42383 -1.59783,5.30618 -0.28292,0.88236 -0.62997,4.73262 -0.77122,8.55615 -0.20854,5.64498 -0.83764,9.77163 -1.65278,10.84147 -0.0613,0.0805 -0.51715,-0.009 -1.013,-0.19968 -0.72476,-0.27812 -0.83681,-0.77869 -0.57141,-2.5527 0.20402,-1.36368 0.0305,-3.12607 -0.45422,-4.61315 -1.0076,-3.09132 -1.65123,-15.03102 -0.9322,-17.29279 0.2957,-0.93014 0.94004,-3.0147 1.43188,-4.63235 1.08542,-3.56993 5.2921,-9.40814 8.37311,-11.62054 10.3828,-7.45567 25.83246,-6.29614 37.0649,2.78178 6.56032,5.30197 9.18157,11.15458 10.3639,23.14003 0.48275,4.89361 0.43163,5.7775 -0.47936,8.28877 -0.56085,1.54607 -1.28128,4.13456 -1.60095,5.75221 -0.61736,3.12406 -2.18033,6.93552 -2.84825,6.94574 -0.22059,0.003 -0.40107,-0.22076 -0.40107,-0.49806 0,-0.27731 -0.51344,-1.37441 -1.14098,-2.43801 l -1.14097,-1.93381 -1.39913,1.27109 c -2.57598,2.34023 -6.56555,4.40998 -7.2265,3.74903 z m -19.5737,-37.30988 c 0,-0.94296 0.29073,-1.3369 0.98664,-1.3369 1.20054,0 2.99217,-1.86013 2.52292,-2.61939 -0.18619,-0.30126 -1.21425,-0.71203 -2.28458,-0.91283 -1.60787,-0.30163 -2.1074,-0.16584 -2.87445,0.78143 -0.51665,0.63803 -1.54257,1.14651 -2.31326,1.14651 -0.76167,0 -1.38487,0.19869 -1.38487,0.44154 0,0.85104 3.78354,3.77312 4.94653,3.82027 0.22059,0.009 0.40107,-0.58534 0.40107,-1.32063 z m 5.88235,-8.49894 c 0,-0.70383 -0.3008,-1.38749 -0.66845,-1.51926 -0.96577,-0.34614 -7.8877,0.18347 -7.8877,0.6035 0,0.30841 6.05038,1.94024 7.8877,2.12736 0.36765,0.0374 0.66845,-0.50777 0.66845,-1.2116 z m -10.16043,45.02257 c 0,-0.23506 0.84225,-0.42738 1.87166,-0.42738 1.02941,0 1.87166,0.094 1.87166,0.20887 0,0.11489 -0.84225,0.30721 -1.87166,0.42738 -1.02941,0.12019 -1.87166,0.0262 -1.87166,-0.20887 z m -1.1966,-2.48068 c -1.20573,-0.72971 -1.65254,-0.76826 -2.53285,-0.21849 -2.61042,1.63023 -3.75689,-0.0687 -1.26922,-1.88082 1.50586,-1.09694 1.34345,-2.2645 -0.315,-2.2645 -1.39625,0 -2.31976,-1.24357 -1.51852,-2.04481 0.92852,-0.92852 3.23313,-0.7673 6.29743,0.44053 1.49237,0.58824 3.1774,1.06952 3.74451,1.06952 1.07791,0 4.81164,2.95799 4.81164,3.81195 0,0.95365 -2.82996,1.63616 -4.19856,1.01259 -1.01566,-0.46277 -1.47967,-0.413 -2.19631,0.23555 -1.06551,0.96427 -0.95221,0.97076 -2.82312,-0.16152 z m -17.73014,-6.2792 c -0.51508,-1.34227 -0.37776,-3.33622 0.25676,-3.72838 1.03247,-0.6381 1.64367,0.63093 1.26809,2.63294 -0.3862,2.05864 -0.98905,2.49172 -1.52485,1.09544 z" />
  </g>
</svg>
