<?xml version="1.0" encoding="UTF-8" standalone="no"?>
<!-- Created with Inkscape (http://www.inkscape.org/) -->

<svg
   xmlns:dc="http://purl.org/dc/elements/1.1/"
   xmlns:cc="http://creativecommons.org/ns#"
   xmlns:rdf="http://www.w3.org/1999/02/22-rdf-syntax-ns#"
   xmlns:svg="http://www.w3.org/2000/svg"
   xmlns="http://www.w3.org/2000/svg"
   xmlns:sodipodi="http://sodipodi.sourceforge.net/DTD/sodipodi-0.dtd"
   xmlns:inkscape="http://www.inkscape.org/namespaces/inkscape"
   width="100"
   height="100"
   id="svg3259"
   version="1.1"
   inkscape:version="0.48.2 r9819"
   sodipodi:docname="5.svg">
  <defs
     id="defs3261" />
  <sodipodi:namedview
     id="base"
     pagecolor="#ffffff"
     bordercolor="#666666"
     borderopacity="1.0"
     inkscape:pageopacity="0.0"
     inkscape:pageshadow="2"
     inkscape:zoom="0.35"
     inkscape:cx="142.14286"
     inkscape:cy="47.142862"
     inkscape:document-units="px"
     inkscape:current-layer="layer1"
     showgrid="false"
     fit-margin-top="0"
     fit-margin-left="0"
     fit-margin-right="0"
     fit-margin-bottom="0"
     inkscape:window-width="978"
     inkscape:window-height="619"
     inkscape:window-x="360"
     inkscape:window-y="210"
     inkscape:window-maximized="0" />
  <metadata
     id="metadata3264">
    <rdf:RDF>
      <cc:Work
         rdf:about="">
        <dc:format>image/svg+xml</dc:format>
        <dc:type
           rdf:resource="http://purl.org/dc/dcmitype/StillImage" />
        <dc:title></dc:title>
      </cc:Work>
    </rdf:RDF>
  </metadata>
  <g
     inkscape:label="Layer 1"
     inkscape:groupmode="layer"
     id="layer1"
     transform="translate(-232.85714,-479.50504)">
    <g
       id="g3217"
       transform="matrix(0.36816283,0,0,0.32889894,121.22994,268.72647)">
      <g
         id="g3189"
         style="fill:#1a1a1a"
         transform="matrix(0.67639646,0,0,0.67639646,215.63813,189.6201)">
        <path
           style="fill:#1a1a1a"
           d="m 134.45439,1114.105 c 7.14244,-3.4284 28.83585,-13.1846 36.55926,-16.4419 8.00097,-3.3743 16.52892,-9.3569 18.39844,-12.9069 1.75588,-3.3343 14.14619,-16.7984 14.84363,-16.1301 0.28699,0.275 0.0601,2.975 -0.50426,6 -1.0158,5.445 -0.50593,29.2677 0.80796,37.75 l 0.65831,4.25 -37.88167,-0.061 -37.88167,-0.061 5,-2.4 z m 84.5,1.7742 c -3.83888,-0.6829 -4.82643,-1.9579 -7.06651,-9.1229 -6.23009,-19.9274 -5.81608,-39.7793 1.12391,-53.8917 l 3.07917,-6.2614 -1.99119,-7.7386 c -1.09516,-4.2562 -3.84865,-14.4885 -6.11888,-22.7385 -2.77342,-10.0786 -3.95633,-16.1483 -3.60543,-18.49998 0.31501,-2.11114 0.18648,-2.96194 -0.3239,-2.14406 -0.5589,0.89563 -1.22175,-0.77641 -1.95258,-4.92537 -0.70463,-4.00025 -1.95116,-7.21628 -3.43255,-8.85594 -1.27937,-1.41604 -3.55957,-4.51016 -5.06713,-6.8758 l -2.74102,-4.30117 -4.14895,3.05117 c -2.28192,1.67814 -5.04327,3.05117 -6.13634,3.05117 -3.84395,0 -13.14628,-3.16634 -15.63297,-5.32118 -2.88265,-2.49795 -6.42198,-8.02194 -7.48284,-11.67882 -0.39889,-1.375 -1.29938,-3.85 -2.00109,-5.5 -0.7017,-1.65 -2.74924,-7.275 -4.55008,-12.5 -4.11954,-11.95255 -5.44321,-14.62839 -9.44653,-19.09641 -6.57974,-7.34351 -11.76171,-28.35149 -8.16152,-33.08729 0.70398,-0.92604 2.60217,-2.04568 4.2182,-2.4881 2.82415,-0.77315 2.76476,-0.82426 -1.52961,-1.31629 l -4.46784,-0.51191 3.13913,-3.5 c 2.93527,-3.2727 3.50144,-3.48751 8.71784,-3.30767 6.69482,0.23082 6.76253,-0.02 2.62787,-9.73634 -1.70149,-3.99843 -3.40536,-10.43193 -4.02436,-15.19519 -0.59043,-4.54344 -1.80128,-10.24272 -2.69078,-12.66508 -1.37444,-3.74298 -1.50751,-6.97114 -0.88623,-21.5 0.40207,-9.40264 0.75539,-18.33322 0.78515,-19.84572 0.0298,-1.5125 0.43951,-2.75 0.91058,-2.75 0.47106,0 0.85648,-0.47656 0.85648,-1.05902 0,-0.58246 -0.39884,-0.81252 -0.88631,-0.51124 -1.46449,0.9051 -1.98643,-3.16265 -0.65631,-5.11505 1.89885,-2.7872 4.582,-11.44195 3.89291,-12.55693 -0.80262,-1.29866 1.62857,-11.69623 3.32736,-14.23027 0.72729,-1.08487 1.32235,-2.74023 1.32235,-3.67857 0,-0.93833 0.61563,-2.32169 1.36807,-3.07413 0.75244,-0.75244 1.67955,-2.34945 2.06024,-3.54892 0.3807,-1.19947 2.29994,-4.10349 4.26499,-6.45336 1.96504,-2.34988 4.06019,-5.39751 4.65589,-6.77251 1.63198,-3.76696 5.76814,-9.04552 6.65728,-8.496 0.43118,0.26648 1.04199,-0.1879 1.35736,-1.00974 0.31537,-0.82185 1.2322,-1.49426 2.0374,-1.49426 0.8052,0 1.74964,-0.9 2.09877,-2 0.34913,-1.1 1.12945,-2 1.73405,-2 0.60461,0 0.81153,-0.28775 0.45983,-0.63945 -0.35169,-0.3517 -2.19667,0.5483 -4.09994,2 -1.90327,1.4517 -3.74814,2.63945 -4.0997,2.63945 -1.82038,0 4.97695,-6.53636 12.00576,-11.54482 8.79482,-6.26686 21.52205,-18.42789 19.36337,-18.50195 -0.74985,-0.0257 0.76658,-0.87937 3.36985,-1.89699 2.60327,-1.01762 6.12529,-3.02157 7.82672,-4.45323 1.70143,-1.43165 3.86898,-2.60301 4.81679,-2.60301 0.9478,0 2.15077,-0.41051 2.67327,-0.91224 0.5225,-0.50173 5,-2.12804 9.95,-3.61402 4.95,-1.48598 11.025,-3.61905 13.5,-4.74014 2.475,-1.1211 6.975,-2.13469 10,-2.25244 6.42507,-0.25009 11,-1.3271 11,-2.58957 0,-1.00386 -1.15724,-1.19367 -5.5,-0.90209 -1.65,0.11078 -2.72362,-0.0804 -2.38581,-0.4249 1.10851,-1.13039 6.76913,-2.41179 7.08099,-1.60292 0.16765,0.43484 1.76273,0.57095 3.54462,0.30247 1.78188,-0.26849 3.0458,-0.80204 2.8087,-1.18568 -0.2371,-0.38363 3.14249,-0.69752 7.5102,-0.69752 4.36772,0 7.9413,0.36429 7.9413,0.80953 0,1.62031 10.89374,0.83493 14.21958,-1.02517 4.44717,-2.48722 10.7524,-3.42498 12.65915,-1.88275 1.00023,0.80902 1.27498,0.83325 0.81897,0.0722 -0.37742,-0.62987 -0.0282,-1.39771 0.77602,-1.70632 0.80423,-0.30862 1.73274,-0.12343 2.06335,0.41152 0.33062,0.53495 0.96342,0.74873 1.40622,0.47506 0.4428,-0.27366 2.04896,0.6552 3.56924,2.06415 1.78909,1.65807 3.4753,2.37575 4.78019,2.03451 2.49748,-0.65311 11.95492,1.39388 12.90728,2.79367 1.4055,2.0658 7.15491,3.25448 11.38137,2.35306 4.00603,-0.8544 4.27254,-0.74402 8.7794,3.63615 4.97349,4.83367 5.74609,4.91895 11.0724,1.22217 2.50995,-1.74206 2.83912,-1.79072 2.28138,-0.33728 -0.43088,1.12288 -0.15405,1.69853 0.81683,1.69853 1.72466,0 1.82515,-1.24943 0.48309,-6.0066 l -0.98554,-3.4934 3.44799,4 c 1.89639,2.2 3.46488,4.35789 3.48553,4.79531 0.0206,0.43742 1.72505,0.49023 3.78755,0.11734 2.11607,-0.38257 3.39246,-0.29894 2.92942,0.19194 -0.45132,0.47844 -1.53758,0.87564 -2.41391,0.88266 -0.87633,0.007 -1.80295,0.63789 -2.05915,1.40195 -0.25621,0.76405 -0.0321,1.12111 0.4981,0.79345 0.53015,-0.32765 3.17603,-0.81893 5.87973,-1.09173 2.7037,-0.2728 6.8718,-1.44887 9.26245,-2.61349 2.39065,-1.16462 4.5863,-1.87782 4.87922,-1.5849 0.29293,0.29292 -0.66333,1.07749 -2.12501,1.74347 -1.46168,0.66599 -2.20303,1.49183 -1.64744,1.83521 0.5556,0.34337 -1.68163,1.22149 -4.97162,1.95137 -3.28998,0.72988 -5.98179,1.68789 -5.98179,2.12892 0,0.44102 -0.7875,1.00765 -1.75,1.25917 -0.9625,0.25153 0.275,0.51642 2.75,0.58864 3.19796,0.0933 4.07437,0.40049 3.02896,1.06163 -1.95714,1.23773 -1.54174,1.47005 5.47104,3.05967 10.06326,2.28108 10.59049,2.57426 9.55331,5.31225 -0.71636,1.89106 -0.16694,2.52306 4.31287,4.96108 4.23285,2.30361 4.60733,2.70556 2.13382,2.29036 -2.71818,-0.45627 -2.62423,-0.32161 1,1.43351 2.2,1.06539 4.57291,1.73236 5.27314,1.48214 1.00709,-0.35987 1.02805,0.0105 0.1003,1.77255 -0.64507,1.22513 -1.59554,2.50382 -2.11217,2.84154 -0.54085,0.35355 -0.0916,2.3686 1.05895,4.75 1.09906,2.27478 1.62662,4.13596 1.17236,4.13596 -0.45425,0 -1.02681,-0.5625 -1.27234,-1.25 -0.24554,-0.6875 -0.74363,-0.97691 -1.10687,-0.64313 -1.02869,0.94524 0.50847,4.06032 1.76567,3.57817 0.61653,-0.23645 1.18134,0.56511 1.25513,1.78124 0.0738,1.21614 1.1988,3.37405 2.5,4.79537 5.24774,5.73215 14.35096,20.45632 15.82524,25.59681 1.07267,3.7402 -0.86811,4.41692 -3.08744,1.07654 -1.84885,-2.78278 -5.34807,-1.69312 -3.80741,1.18563 0.56536,1.05639 0.78718,2.31024 0.49293,2.78635 -0.29425,0.4761 0.40522,1.11151 1.55437,1.41202 1.28371,0.3357 1.80837,1.00105 1.36064,1.7255 -0.4008,0.64851 -0.10858,1.57817 0.64938,2.06591 0.85465,0.54995 0.0487,0.63719 -2.12188,0.22968 -1.925,-0.36142 -3.65,-1.03579 -3.83333,-1.4986 -0.448,-1.13095 -3.16667,-1.07885 -3.16667,0.0607 0,0.4962 1.38367,1.38453 3.07482,1.97407 1.69115,0.58954 4.38947,2.17809 5.99627,3.53012 2.71194,2.28195 2.80342,2.57628 1.27555,4.10414 -1.52786,1.52786 -1.5171,1.62236 0.14999,1.3177 0.98774,-0.18051 1.99267,0.23461 2.23319,0.92248 0.27887,0.79757 -0.1364,1.03053 -1.14626,0.64301 -2.22224,-0.85275 -1.97069,0.53597 0.48249,2.6636 1.15954,1.00566 2.27364,3.46558 2.53918,5.60647 0.26022,2.09803 0.9055,4.24697 1.43395,4.77542 1.58282,1.58282 1.09717,2.55898 -1.28918,2.59123 -2.18569,0.0295 -2.19284,0.0623 -0.25,1.14748 1.1,0.61439 2.16671,1.25492 2.37048,1.4234 1.59323,1.31737 3.59549,23.99269 2.19501,24.85823 -0.47219,0.29183 -0.88685,2.90213 -0.92147,5.80065 -0.0531,4.44797 -2.34424,11.73983 -3.68867,11.73983 -0.21899,0 -0.85453,-1.4625 -1.41231,-3.25 l -1.01415,-3.25 0.30878,3.22559 c 0.16983,1.77408 -0.0874,3.35766 -0.57167,3.51908 -0.48425,0.16141 -0.55102,1.152 -0.14836,2.20129 0.71837,1.87205 0.74745,1.87169 1.55126,-0.0191 0.49582,-1.16629 0.71518,1.13226 0.55571,5.82311 -0.14491,4.2625 0.11852,7.75 0.58541,7.75 0.46689,0 0.58861,1.2375 0.27049,2.75 -0.31812,1.5125 -0.79055,4.55 -1.04984,6.75 -1.00125,8.49517 -1.79471,12.0551 -3.00897,13.5 -1.19631,1.42354 -2.48906,5.73558 -2.69821,9 -0.0529,0.825 -0.58944,2.12223 -1.1924,2.88273 -0.88932,1.12168 -1.21119,0.93289 -1.70489,-1 -0.33473,-1.3105 -0.23002,-2.87888 0.23268,-3.48529 1.05062,-1.3769 -0.1274,-13.39743 -1.31296,-13.39743 -0.47804,0 -0.7546,-3.375 -0.61459,-7.5 0.23969,-7.06168 0.93542,-9.11468 2.11804,-6.25 0.31328,0.75888 0.78359,0.3704 1.19702,-0.98875 0.37454,-1.23132 1.19233,-1.98545 1.8173,-1.67585 0.62497,0.30961 0.40525,-0.0413 -0.48826,-0.77977 -0.89351,-0.73847 -1.55944,-2.45934 -1.47984,-3.82415 0.0796,-1.36482 -0.42685,-3.07612 -1.12543,-3.80291 -1.84138,-1.91571 -1.55993,-3.17857 0.7084,-3.17857 1.7303,0 1.84016,-0.30375 0.87555,-2.42086 -0.6744,-1.48012 -1.65885,-2.20756 -2.53339,-1.87197 -1.05582,0.40516 -0.91045,-0.37679 0.55515,-2.98617 1.09204,-1.94427 1.74344,-4.46076 1.44756,-5.59219 -0.31025,-1.18641 0.14236,-2.73746 1.06931,-3.66441 0.88399,-0.88399 1.60726,-1.12511 1.60726,-0.53583 0,0.58929 0.675,1.07143 1.5,1.07143 2.0415,0 1.90489,-0.60261 -1,-4.41111 -1.375,-1.80272 -2.5,-3.7977 -2.5,-4.43328 0,-0.63559 -0.43247,-1.15561 -0.96104,-1.15561 -1.14838,0 -5.03896,-4.02389 -5.03896,-5.21161 0,-0.45897 1.2375,-0.0444 2.75,0.92129 2.7036,1.72617 2.72552,1.72234 1.29908,-0.22694 -0.798,-1.09051 -2.148,-2.56478 -3,-3.27617 -0.91444,-0.76352 -1.54908,-2.89637 -1.54908,-5.206 0,-3.67139 0.15411,-3.87451 2.5,-3.29514 2.34566,0.57931 2.2992,0.4475 -0.75268,-2.13515 -1.78898,-1.51392 -3.02367,-3.12313 -2.74377,-3.57602 0.2799,-0.45289 -0.0564,-1.05135 -0.74732,-1.3299 -0.93517,-0.37703 -0.90547,-0.52664 0.11621,-0.58541 1.10604,-0.0636 1.1308,-0.37012 0.12756,-1.57895 -1.7542,-2.11368 -3.32862,-1.86465 -2.72816,0.43151 0.41269,1.57814 0.0242,1.89455 -2.12363,1.72947 -3.88247,-0.29842 -4.03038,-3.30831 -0.20388,-4.14875 3.55157,-0.78006 3.81491,-1.55698 1.10203,-3.2512 -1.23008,-0.7682 -2.17785,-0.85729 -2.55902,-0.24055 -0.33295,0.53874 -0.10226,0.97952 0.51266,0.97952 0.61492,0 0.82481,0.47445 0.46642,1.05434 -0.43087,0.69716 -1.49454,0.50203 -3.13981,-0.57599 -1.3685,-0.89668 -3.0759,-1.4048 -3.79421,-1.12916 -0.89678,0.34413 -1.14167,-0.12736 -0.7815,-1.50463 0.35731,-1.36637 1.11864,-1.85043 2.38819,-1.51844 1.07998,0.28242 1.60538,0.0694 1.24943,-0.5065 -0.33783,-0.54662 -1.50685,-0.76043 -2.59783,-0.47513 -3.0395,0.79484 -4.79069,-0.30561 -4.79069,-3.0105 0,-1.34861 -0.41559,-2.19518 -0.92353,-1.88125 -1.23161,0.76118 -4.39887,-3.989 -5.96939,-8.95274 -1.42224,-4.49506 -6.42426,-10.64022 -8.34622,-10.25362 -0.69347,0.13949 -1.15376,-0.29269 -1.02286,-0.96039 0.13091,-0.66771 -0.3442,-0.9906 -1.05578,-0.71754 -0.71158,0.27306 -2.43331,-0.75564 -3.82606,-2.28599 -4.29318,-4.71734 -8.38117,-7.94079 -9.56856,-7.54499 -0.62337,0.20779 -1.28205,-0.66064 -1.46373,-1.92984 -0.25653,-1.792 -0.88823,-2.25109 -2.8271,-2.0546 -1.37323,0.13916 -2.01395,-0.0858 -1.42383,-0.5 1.25462,-0.88053 2.64699,-4.25303 1.75592,-4.25303 -0.33461,0 -1.20617,0.7875 -1.93681,1.75 -0.8113,1.06875 -1.34082,1.26339 -1.36025,0.5 -0.0182,-0.7143 -1.21033,-1.20728 -2.7818,-1.15032 l -2.75,0.0997 2.5,0.80064 2.5,0.80064 -2.64301,0.0997 c -1.59314,0.0601 -2.89241,-0.55023 -3.27085,-1.53644 -0.57628,-1.50176 -0.77324,-1.50454 -2.3984,-0.0338 -1.52009,1.37566 -2.73806,1.45172 -8.60928,0.53765 -5.28824,-0.8233 -7.0116,-0.78496 -7.60125,0.16913 -0.46145,0.74663 -1.73848,0.98887 -3.23417,0.61347 -1.7216,-0.43209 -3.19559,0.009 -4.85733,1.45437 -2.04279,1.77648 -2.43218,1.84619 -2.70903,0.48499 -0.44768,-2.20113 -1.70377,-1.98763 -3.88473,0.66029 -1.01927,1.2375 -2.91174,3.15 -4.20548,4.25 l -2.35227,2 0.70029,-2.25 c 0.79809,-2.56425 0.66716,-2.61935 -2.95331,-1.24285 -1.45696,0.55394 -3.16584,0.68774 -3.79751,0.29734 -2.08928,-1.29124 -4.80162,-1.05424 -4.25442,0.37175 0.39123,1.01953 -0.14689,1.18303 -2.20589,0.67025 -2.38969,-0.59514 -2.56509,-0.48605 -1.43162,0.89039 1.00092,1.21548 1.0167,1.66031 0.0701,1.97584 -2.43397,0.81133 0.007,3.78728 3.10679,3.78728 1.66726,0 3.03138,0.45 3.03138,1 0,0.55 -0.54,1 -1.2,1 -0.93333,0 -0.93333,0.26667 0,1.2 1.51413,1.51413 1.5418,2.8 0.0602,2.8 -0.62686,0 -1.6836,0.74375 -2.34829,1.65278 -0.8031,1.0983 -1.67879,1.35877 -2.61025,0.77643 -1.87442,-1.1719 -4.24176,-1.15247 -5.09733,0.0418 -1.00976,1.40954 -2.05437,-0.0121 -2.05437,-2.79587 0,-2.24748 -0.2396,-2.35413 -3.59079,-1.59831 -2.02653,0.45706 -4.06744,0.41426 -4.68497,-0.0982 -1.33604,-1.10885 -18.47421,-0.0236 -18.47421,1.1699 0,0.46831 -0.62686,0.85147 -1.39301,0.85147 -0.76616,0 -1.64903,0.66718 -1.96194,1.48261 -0.40084,1.04456 -1.42786,1.31083 -3.47599,0.9012 -2.17565,-0.43513 -3.40523,-0.0467 -4.88711,1.54393 -1.22039,1.30993 -2.61346,1.88228 -3.631,1.49181 -0.90802,-0.34844 -1.65095,-0.14951 -1.65095,0.44208 0,0.59158 -0.7875,0.82227 -1.75,0.51265 -1.37239,-0.44147 -1.44884,-0.34859 -0.35428,0.43046 1.9017,1.35354 0.63886,4.19526 -1.86434,4.19526 -1.23782,0 -2.06231,0.68364 -2.11055,1.75 -0.0435,0.9625 -0.1524,4.1125 -0.24191,7 -0.0895,2.8875 -0.55202,5.25 -1.02782,5.25 -0.47579,0 -0.61078,0.66269 -0.29997,1.47263 0.31822,0.82927 -0.30015,2.07868 -1.41542,2.85984 -1.23799,0.86713 -1.74454,2.00212 -1.35112,3.02737 0.48417,1.26174 0.0279,1.64016 -1.9776,1.64016 -1.43385,0 -2.60699,0.45 -2.60699,1 0,0.55 0.91412,1 2.03138,1 2.4939,0 3.49684,2.25815 2.08271,4.68926 -0.82997,1.42684 -1.08483,1.49272 -1.2021,0.31074 -0.0819,-0.825 -0.0955,-1.8375 -0.0304,-2.25 0.0651,-0.4125 -0.27983,-0.75 -0.76657,-0.75 -1.34358,0 -4.24714,4.86842 -4.05454,6.79827 0.45556,4.56467 -0.004,5.43264 -2.54112,4.79594 -2.14236,-0.5377 -2.68694,-0.12888 -3.99336,2.99783 -1.69634,4.05992 -1.3142,5.40796 1.53303,5.40796 1.06754,0 1.94098,0.675 1.94098,1.5 0,1.78947 -2.12815,1.97185 -3.77637,0.32363 -0.90183,-0.90183 -1.64315,-0.75395 -3.17642,0.63365 -1.10003,0.99551 -1.74692,2.21958 -1.43754,2.72017 0.30938,0.50059 0.0366,1.54383 -0.60616,2.31832 -0.64276,0.77448 -0.97505,2.21727 -0.73841,3.20619 0.36254,1.51502 0.59588,1.40453 1.48242,-0.70196 0.87583,-2.08103 1.16455,-2.22267 1.72278,-0.8452 0.36884,0.91015 0.52641,3.16015 0.35016,5 -0.25946,2.70839 -0.70119,3.28284 -2.32046,3.01763 -1.95068,-0.31949 -1.95311,-0.29243 -0.0985,1.09736 1.43264,1.07358 1.59125,1.61667 0.64324,2.20257 -0.88838,0.54905 -0.93395,0.97807 -0.15502,1.45948 1.12316,0.69415 1.79768,4.53408 1.99851,11.37718 0.0665,2.26607 0.51761,3.55819 1.11365,3.18982 0.94602,-0.58467 3.51422,4.11723 3.15268,5.77195 -0.0926,0.42394 1.0337,0.46908 2.50294,0.10033 2.15557,-0.54102 2.55643,-0.37097 2.07613,0.88067 -0.39585,1.03156 0.13526,1.76233 1.58558,2.18164 2.06884,0.59814 2.02678,0.70171 -0.8192,2.01732 -3.08098,1.42425 -2.70002,1.90834 1.25,1.58838 1.2375,-0.10025 2.25,0.29994 2.25,0.8893 0,1.99116 4.16773,1.14616 4.71758,-0.95647 0.37772,-1.44439 1.07026,-1.85668 2.40638,-1.43262 1.03182,0.32749 1.87604,0.19115 1.87604,-0.30297 0,-0.49413 1.2375,-1.52074 2.75,-2.28135 1.5125,-0.76062 3.9258,-2.17337 5.36288,-3.13944 1.43708,-0.96607 2.88871,-1.48066 3.22583,-1.14353 0.33713,0.33712 1.18633,0.18678 1.88712,-0.33409 0.7008,-0.52087 2.62417,-1.49231 4.27417,-2.15875 2.44336,-0.98688 2.70203,-0.97586 1.39409,0.0594 -1.20698,0.95537 -1.34559,1.68382 -0.55799,2.93243 1.17277,1.85922 -0.64012,4.93272 -2.68201,4.54697 -0.63475,-0.11992 -1.02997,0.37934 -0.87826,1.10945 0.2115,1.0179 -0.88811,1.20191 -4.71511,0.78903 -2.74752,-0.29642 -5.25789,-0.1065 -5.58484,0.42252 -0.32665,0.52853 -1.91736,0.96097 -3.5349,0.96097 -2.98539,0 -3.97109,1.38548 -1.69098,2.37679 0.6875,0.2989 0.125,0.49142 -1.25,0.42781 -4.34572,-0.20103 -5.77085,0.15585 -6.31819,1.58222 -0.38035,0.99116 0.0884,1.25683 1.64301,0.93119 1.93557,-0.40543 1.9824,-0.3324 0.42518,0.66288 -2.45081,1.5664 -2.17918,2.87329 0.75,3.60847 1.375,0.3451 2.5,1.02867 2.5,1.51905 0,1.36728 -4.77759,1.05881 -5.24338,-0.33855 -0.31356,-0.94069 -0.98024,-0.96501 -2.83333,-0.10336 l -2.42329,1.12677 2.5,1.03998 c 2.21396,0.92099 2.26443,1.04723 0.44113,1.10336 -1.13238,0.0349 -2.93238,0.77179 -4,1.63761 -1.91491,1.55295 -1.91411,1.56749 0.0589,1.07613 10.45486,-2.60372 18.69044,-5.42165 17,-5.81682 -1.30895,-0.30599 -0.44515,-0.74259 2.5,-1.26359 2.475,-0.43784 5.02244,-1.21704 5.66097,-1.73156 0.72344,-0.58294 1.38476,-0.5734 1.75478,0.0253 0.33458,0.54136 1.79223,0.63609 3.33903,0.21699 2.07896,-0.56328 2.66929,-1.27007 2.43236,-2.91223 -0.20676,-1.43305 0.21716,-2.16844 1.25,-2.16844 0.85957,0 1.56286,0.3876 1.56286,0.86133 0,0.47373 1.125,0.64627 2.5,0.38342 1.375,-0.26285 2.5,-1.10044 2.5,-1.86133 0,-0.76088 0.70156,-1.38342 1.55902,-1.38342 0.85746,0 1.31535,-0.39426 1.01753,-0.87613 -0.29781,-0.48188 1.13813,-0.27663 3.19099,0.4561 5.24225,1.87114 6.77802,1.82273 4.80389,-0.1514 -2.07502,-2.07502 -1.99941,-2.23304 0.81135,-1.69573 1.31053,0.25053 2.70089,-0.0592 3.08968,-0.68828 0.47957,-0.77596 1.32122,-0.43545 2.61722,1.05884 1.17382,1.35343 1.91032,1.68441 1.91032,0.85848 0,-0.84512 0.52695,-0.62349 1.41939,0.59699 0.79022,1.0807 2.67409,1.97612 4.25,2.02008 1.55683,0.0434 3.28061,0.20921 3.83061,0.36842 3.37482,0.97692 6.50993,-0.1556 8.15907,-2.94737 2.43774,-4.12676 3.38453,-3.75938 3.22145,1.25 -0.0761,2.3375 0.32503,6.05 0.8914,8.25 0.56637,2.2 1.30344,7.825 1.63795,12.5 0.3345,4.675 1.06628,10.3 1.62619,12.5 1.79535,7.0544 2.15093,13.56977 0.82758,15.1643 -0.98365,1.18523 -0.97096,1.65134 0.0623,2.28994 1.294,0.79974 1.26113,1.71124 -0.51548,14.29576 -0.36882,2.6125 -1.05882,4.75 -1.53333,4.75 -0.47452,0 -0.79161,1.81562 -0.70466,4.03471 0.087,2.21908 -0.36628,4.55908 -1.0072,5.2 -1.38574,1.38574 -1.55752,4.76529 -0.24221,4.76529 0.50769,0 2.26618,1.2375 3.90774,2.75 7.78925,7.17681 9.12547,8.25 10.27207,8.25 2.94209,0 -0.47172,1.26164 -7.15883,2.64569 -5.46538,1.13118 -7.96102,2.21742 -10.17026,4.42666 -2.95691,2.95692 -4.33091,3.55918 -4.94047,2.16556 -0.34741,-0.79428 -19.62241,-4.25699 -23.62878,-4.24486 -3.01466,0.009 -7.20455,-4.25784 -7.20455,-7.33707 0,-1.33921 3.06462,-7.09717 6.81026,-12.79546 8.0613,-12.26374 14.27526,-23.44167 13.47591,-24.24101 -0.31414,-0.31415 0.0106,-1.2722 0.72171,-2.12901 1.54028,-1.85592 2.13094,-7.28667 0.87682,-8.06176 -0.48662,-0.30071 -0.88473,-1.62201 -0.88473,-2.93622 0,-1.3142 -1.12963,-3.60835 -2.51029,-5.09811 -2.36556,-2.55247 -2.47392,-3.14646 -1.87941,-10.30152 0.65199,-7.84678 -1.09598,-15.09287 -3.64083,-15.09287 -0.65215,0 -0.23576,1.45109 0.98159,3.42082 1.34557,2.17717 1.73621,3.65443 1.0745,4.06338 -0.57183,0.35341 -1.30965,-0.061 -1.63961,-0.92082 -0.32996,-0.85986 -1.62168,-1.56338 -2.87049,-1.56338 -1.24882,0 -2.85437,-0.70343 -3.5679,-1.56319 -1.17649,-1.41758 -1.37882,-1.41758 -2.17214,0 -1.17248,2.09512 -2.58673,1.98569 -2.41431,-0.18681 0.11301,-1.42397 -0.54106,-1.69099 -3.51083,-1.43324 -2.00735,0.17422 -3.94641,-0.16328 -4.30902,-0.75 -0.36261,-0.58672 -1.53274,-1.06676 -2.60028,-1.06676 -2.19856,0 -2.64553,2.89545 -0.74098,4.8 0.93333,0.93333 0.84631,1.2 -0.39159,1.2 -0.87538,0 -1.87395,-1.125 -2.21905,-2.5 -0.49375,-1.96723 -1.26272,-2.5 -3.60841,-2.5 -1.63952,0 -2.98095,0.43875 -2.98095,0.97501 0,0.53625 -1.97189,1.8733 -4.38197,2.97122 -3.85983,1.75836 -6.95531,5.05377 -4.74716,5.05377 0.44445,0 1.3237,1.13163 1.95389,2.51473 0.63018,1.3831 2.27741,3.03033 3.66051,3.66051 3.56502,1.62434 3.35368,4.82476 -0.3186,4.82476 -1.55834,0 -3.17053,-0.3372 -3.58266,-0.74933 -1.29958,-1.29958 -11.06114,-3.15663 -11.41734,-2.17204 -0.18334,0.50675 -1.44402,0.92137 -2.80153,0.92137 l -2.46818,0 2.72556,2.52596 c 2.85556,2.64645 2.54995,3.74395 -1.37252,4.92903 -1.40399,0.42419 -2.25,0.25625 -2.25,-0.44662 0,-0.61952 -0.40285,-0.87743 -0.89522,-0.57313 -0.49236,0.3043 -1.16419,-0.14766 -1.49293,-1.00437 -0.32875,-0.8567 -1.01205,-1.30157 -1.51844,-0.9886 -0.51532,0.31849 -0.72065,-0.70038 -0.46634,-2.314 0.32808,-2.08172 -0.0211,-3.06551 -1.2564,-3.53953 -0.94092,-0.36106 -1.9802,-0.22054 -2.30949,0.31227 -0.3293,0.53282 -3.01962,1.2899 -5.97849,1.68241 -3.1593,0.41909 -6.16036,1.49425 -7.271,2.60489 -1.85222,1.85222 -1.85241,1.94715 -0.01,4.60146 3.04826,4.3904 5.28831,9.53096 4.41968,10.14241 -1.18595,0.83483 -1.36761,6.06782 -0.21064,6.06782 0.54384,0 0.9888,1.54844 0.9888,3.44098 0,3.50877 1.44493,5.58774 2.30416,3.31525 0.26124,-0.69093 0.45886,0.11258 0.43915,1.78558 -0.0429,3.64273 2.13003,10.68856 3.5873,11.63197 0.70355,0.45547 0.64963,1.1451 -0.16641,2.12837 -0.80178,0.96609 -0.91236,2.25103 -0.32928,3.82621 0.48286,1.3044 0.67993,2.93445 0.43794,3.62232 -0.29446,0.83703 0.14118,1.02767 1.31719,0.57639 1.37883,-0.52911 1.61213,-0.29633 1.08356,1.08111 -0.37049,0.96547 -0.6805,2.50609 -0.68892,3.42361 -0.0132,1.4425 -0.14647,1.46526 -0.98469,0.16821 -0.79168,-1.22503 -0.97218,-1.10716 -0.98469,0.64301 -0.008,1.17866 -0.6204,2.37521 -1.35996,2.659 -1.63421,0.62711 -1.46935,6.92666 0.19581,7.48171 0.63186,0.21062 1.14884,1.88295 1.14884,3.71628 0,1.83333 0.5625,3.59583 1.25,3.91667 1,0.46666 1,0.7 0,1.16666 -1.55881,0.72767 -1.65194,3.41667 -0.11786,3.41667 0.74117,0 0.94835,1.36676 0.6004,3.96088 -0.36974,2.75664 -0.0928,4.32473 0.91071,5.15762 1.00041,0.83026 1.12278,1.51594 0.3996,2.23912 -1.47549,1.47549 -1.31217,4.90578 0.20762,4.36084 0.6875,-0.24651 2.07493,-0.0231 3.08319,0.49637 1.33244,0.68656 2.35677,0.47074 3.75,-0.79011 1.11474,-1.00883 1.91681,-1.2514 1.91681,-0.57971 0,0.63525 -0.45,1.15499 -1,1.15499 -0.55,0 -1,0.94814 -1,2.10698 0,1.5105 0.44784,1.9352 1.58179,1.5 0.86998,-0.3338 2.01471,-0.607 2.54383,-0.607 0.52913,0 0.88901,-0.5625 0.79973,-1.25 -0.4564,-3.51472 0.20332,-5.74998 1.69709,-5.74998 1.3071,0 1.38755,0.28303 0.41391,1.4562 -0.66469,0.8009 -0.91823,1.9259 -0.56342,2.5 1.05151,1.70138 2.52707,1.19081 2.52707,-0.87441 0,-2.71145 1.03718,-5.08179 2.22362,-5.08179 0.5553,0 0.77976,0.87909 0.49878,1.95352 -0.28097,1.07444 0.11765,2.76194 0.88583,3.75 1.34197,1.72616 1.37191,1.72556 0.76434,-0.0132 -0.45586,-1.30462 -0.0379,-1.96509 1.49755,-2.36663 2.58629,-0.67633 2.65285,-1.19599 0.37988,-2.96592 -1.64535,-1.28121 -1.63845,-1.32361 0.1154,-0.70897 1.55269,0.54414 1.75094,0.29309 1.18261,-1.49755 -0.77239,-2.43357 0.12691,-6.15125 1.48799,-6.15125 0.49568,0 0.65968,0.62948 0.36444,1.39885 -0.29523,0.76937 -0.0885,1.6759 0.45939,2.01452 1.58118,0.97722 2.57018,-3.52377 0.99718,-4.53822 -1.13261,-0.73043 -1.1196,-1.02791 0.0787,-1.79893 1.2476,-0.80276 1.2476,-1.15483 0,-2.68724 -1.28491,-1.57823 -1.24503,-1.69192 0.37969,-1.0825 1.50263,0.56362 1.69842,0.31239 1.13643,-1.45829 -0.5929,-1.86806 -0.48774,-1.96233 0.82965,-0.74371 0.82973,0.76754 1.30747,1.72787 1.06163,2.13407 -0.24584,0.4062 0.2514,0.47055 1.10496,0.14301 0.85357,-0.32755 1.60414,-1.55989 1.66794,-2.73855 0.0915,-1.69038 0.21259,-1.77339 0.57333,-0.39301 0.25152,0.9625 0.82554,1.75 1.27559,1.75 0.45004,0 1.11722,1.2375 1.48261,2.75 0.94515,3.91237 2.91655,8.25 3.74953,8.25 0.38986,0 1.89764,-0.54166 3.35063,-1.20368 2.36198,-1.07619 2.4464,-1.28058 0.79705,-1.92972 -1.59885,-0.62925 -1.61934,-0.7354 -0.15376,-0.79631 2.32746,-0.0967 3.23409,1.71261 1.75261,3.49768 -1.54439,1.86088 -0.46234,3.10745 1.37425,1.58321 0.7514,-0.62361 1.66227,-0.83773 2.02417,-0.47584 1.04006,1.04007 0.76526,5.50899 -0.29834,4.85165 -0.52598,-0.32507 -0.82473,-1.13913 -0.66389,-1.80902 0.16084,-0.66988 0.10368,-0.88047 -0.12701,-0.46797 -0.23069,0.4125 -1.12668,0.75 -1.99109,0.75 -1.42871,0 -1.42875,0.15916 -4.3e-4,1.75 1.67055,1.86062 1.3091,7.24998 -0.48624,7.24998 -0.56718,0 -0.71418,1.1063 -0.34334,2.5838 0.42117,1.6781 0.28325,2.3581 -0.39346,1.9398 -1.35578,-0.8379 -3.30297,4.3111 -2.74135,7.249 0.24893,1.3022 -0.16186,2.6121 -0.9591,3.0583 -1.09803,0.6145 -0.72358,1.5659 1.7611,4.4747 3.36316,3.9373 4.90114,4.6259 4.90114,2.1944 0,-0.825 0.48032,-1.5 1.06739,-1.5 0.58706,0 0.83343,0.7875 0.54749,1.75 -1.77885,5.9876 -1.81658,7.25 -0.21667,7.25 0.88826,0 2.62454,1.173 3.8584,2.6067 1.23387,1.4337 3.36839,3.0582 4.74339,3.6101 1.97535,0.7929 2.1721,1.1377 0.93754,1.6433 -1.11619,0.4571 -1.36972,1.3539 -0.88765,3.1399 0.57897,2.1449 0.78057,2.2514 1.41945,0.75 0.40955,-0.9625 1.17305,-1.75 1.69667,-1.75 0.52361,0 0.67966,0.4407 0.34676,0.9793 -0.33289,0.5387 -0.11293,1.8993 0.4888,3.0236 0.86536,1.617 0.73504,2.4033 -0.62339,3.7618 -1.28446,1.2844 -1.82527,1.394 -2.14507,0.4346 -0.32829,-0.9848 -0.75341,-1.0124 -1.83036,-0.1186 -1.0124,0.8402 -1.40276,0.8518 -1.40276,0.042 0,-0.6173 -0.66088,-1.1224 -1.46862,-1.1224 -0.89459,0 -1.24363,0.5863 -0.89301,1.5 0.31659,0.825 1.00961,1.5 1.54005,1.5 1.56736,0 3.43631,2.3288 4.14955,5.1706 0.66543,2.6513 6.87226,9.8294 8.49938,9.8294 0.47447,0 1.66756,0.8894 2.65131,1.9764 1.91649,2.1177 3.52134,1.8468 3.52134,-0.5944 0,-0.825 -0.45,-1.2219 -1,-0.882 -0.55,0.3399 -1,-0.083 -1,-0.941 0,-2.1563 2.97249,-1.9741 3.116,0.191 0.11048,1.6667 0.13778,1.6667 0.57333,0 0.25152,-0.9625 0.77431,-1.75 1.16175,-1.75 1.30961,0 4.21386,4.0859 3.60476,5.0714 -0.33247,0.538 -0.0353,0.8545 0.66044,0.7034 1.70925,-0.3713 2.40571,3.2845 0.81322,4.2688 -3.37035,2.0829 16.0286,2.3062 21.88802,0.2519 3.96782,-1.3911 -0.64412,1.5629 -4.92441,3.1542 -6.35534,2.3627 -12.89214,6.8618 -15.88304,10.9317 -1.38054,1.8786 -3.86007,5.2469 -5.51007,7.4851 -1.65,2.2382 -3.82004,4.3495 -4.82232,4.6918 -1.00228,0.3423 -1.59578,1.2127 -1.3189,1.9343 0.27688,0.7215 0.21029,1.605 -0.14798,1.9633 -0.35828,0.3582 -0.51585,2.2247 -0.35018,4.1477 0.16568,1.9231 -0.24028,4.1489 -0.90214,4.9464 -0.66185,0.7975 -0.89113,1.45 -0.5095,1.45 0.38163,0 0.0189,0.675 -0.80612,1.5 -1.73891,1.7389 -7.64286,2.035 -7.64286,0.3834 0,-0.6243 0.88181,-0.8861 2,-0.5937 2.31003,0.6041 2.74344,-1.0672 0.5,-1.9281 -0.86217,-0.3308 -1.5,-1.8244 -1.5,-3.5124 0,-2.2423 -0.41388,-2.8674 -1.75,-2.6431 -1.35553,0.2277 -1.68779,-0.3089 -1.47401,-2.3805 0.20864,-2.0217 -0.26866,-2.8472 -1.95577,-3.3827 -1.36098,-0.4319 -2.37907,-0.2664 -2.60932,0.4244 -0.20766,0.623 -1.06321,1.1327 -1.90122,1.1327 -0.90398,0 -1.30247,-0.5764 -0.97981,-1.4173 0.29911,-0.7794 -0.10274,-1.6653 -0.89301,-1.9686 -0.79027,-0.3032 -1.43686,-0.095 -1.43686,0.4627 0,0.5578 -1.10455,2.1186 -2.45455,3.4686 -1.68939,1.6894 -2.00112,2.4546 -1,2.4546 0.8,0 1.45455,0.4586 1.45455,1.019 0,0.6099 -1.09324,0.7447 -2.72266,0.3357 l -2.72266,-0.6833 1.74572,2.6643 c 1.84202,2.8113 0.82339,3.7233 -1.3004,1.1643 -1.68232,-2.0271 -3.15406,-1.8954 -2.79384,0.25 0.19798,1.1791 -0.45922,1.8567 -2.01453,2.0772 -1.79769,0.2548 -2.06349,0.6223 -1.20145,1.661 0.8127,0.9792 0.7985,1.5244 -0.0534,2.0509 -0.63819,0.3944 -1.55315,0.097 -2.03324,-0.661 -0.61819,-0.976 -0.87735,-1.0176 -0.8882,-0.1427 -0.0117,0.9447 -4.89659,1.2032 -20.76531,1.0989 -11.4125,-0.075 -21.875,-0.3366 -23.25,-0.5812 z m 18.66468,-3.6551 c -0.001,-0.6039 -0.8261,-1.9642 -1.83334,-3.023 -1.61338,-1.6958 -1.83134,-1.7256 -1.83134,-0.25 0,0.9213 -0.675,1.675 -1.5,1.675 -1.41148,0 -2.01218,1.1605 -1.07836,2.0833 0.95266,0.9414 6.24488,0.5301 6.24304,-0.4853 z m 44.33532,-79.539 c 0,-1.1799 -1.95035,-2.442 -2.66667,-1.7257 -0.71631,0.7163 0.54583,2.6667 1.72569,2.6667 0.51754,0 0.94098,-0.4235 0.94098,-0.941 z m -26.63837,-43.55898 c -0.31659,-0.825 -0.75246,-1.5 -0.96862,-1.5 -0.21615,0 -0.39301,0.675 -0.39301,1.5 0,0.825 0.43588,1.5 0.96862,1.5 0.53273,0 0.70959,-0.675 0.39301,-1.5 z m -27.69935,-4.75 c -0.27741,-0.6875 -0.50439,-0.125 -0.50439,1.25 0,1.375 0.22698,1.9375 0.50439,1.25 0.27741,-0.6875 0.27741,-1.8125 0,-2.5 z m 38.33772,-3.44113 c 0,-1.79842 -2.80554,-1.64619 -4.70714,0.25542 -1.16748,1.16747 -1.27619,1.85238 -0.42857,2.7 0.84761,0.84761 1.13571,0.70447 1.13571,-0.56429 0,-0.935 0.48032,-1.7 1.06739,-1.7 0.62371,0 0.81002,0.93525 0.44822,2.25 -0.60174,2.18667 -0.57549,2.19536 0.93261,0.30887 0.85348,-1.06762 1.55178,-2.53012 1.55178,-3.25 z m 46.60417,-32.03804 c -0.3323,-0.33229 -0.56864,0.25834 -0.52522,1.3125 0.048,1.16495 0.28494,1.4019 0.60416,0.60417 0.28887,-0.72188 0.25335,-1.58438 -0.0789,-1.91667 z M 163.45439,907.62612 c 0.33992,-0.55 -0.0835,-1 -0.94098,-1 -0.85746,0 -1.55902,0.45 -1.55902,1 0,0.55 0.42344,1 0.94098,1 0.51754,0 1.2191,-0.45 1.55902,-1 z m 55.5,-8.93801 c 0,-0.81371 -4.78536,-0.60996 -5.63527,0.23994 -0.35735,0.35736 -0.0711,1.34697 0.63615,2.19913 1.15744,1.39463 1.47134,1.38156 3.1425,-0.13082 1.02114,-0.92412 1.85662,-1.96283 1.85662,-2.30825 z m 18.8125,-8.99949 c 0.25,-0.75 -0.125,-1.125 -0.875,-0.875 -0.72188,0.24062 -1.50938,1.02812 -1.75,1.75 -0.25,0.75 0.125,1.125 0.875,0.875 0.72187,-0.24063 1.50937,-1.02813 1.75,-1.75 z m 40.1875,-9.0625 c 0,-0.55 -0.47656,-1 -1.05902,-1 -0.58246,0 -0.7809,0.45 -0.44098,1 0.33992,0.55 0.81648,1 1.05902,1 0.24254,0 0.44098,-0.45 0.44098,-1 z m 149.60417,-13.72917 c -0.33229,-0.33229 -0.56864,0.25834 -0.52522,1.3125 0.048,1.16495 0.28494,1.4019 0.60416,0.60417 0.28887,-0.72188 0.25335,-1.58438 -0.0789,-1.91667 z m 5.31688,-7.64327 c -0.0492,-0.70253 -0.26985,-0.65403 -0.58541,0.12867 -0.27855,0.69093 -0.91803,1.00187 -1.42105,0.69098 -0.50302,-0.31088 -0.91459,0.19141 -0.91459,1.11622 0,1.38125 0.26781,1.45919 1.5,0.43657 0.825,-0.68469 1.46447,-1.75229 1.42105,-2.37244 z m -0.25877,-25.87756 c -0.27741,-0.6875 -0.50439,-0.125 -0.50439,1.25 0,1.375 0.22698,1.9375 0.50439,1.25 0.27741,-0.6875 0.27741,-1.8125 0,-2.5 z m 7.14459,-7.27646 c -0.30789,-0.30789 -0.86705,0.24711 -1.24258,1.23333 -0.54268,1.4252 -0.42782,1.54006 0.5598,0.5598 0.68342,-0.67834 0.99067,-1.48524 0.68278,-1.79313 z m -2.49785,-2.78256 c -0.30746,-0.49748 -0.92308,-0.31545 -1.36804,0.40451 -0.44496,0.71996 -0.55746,1.71605 -0.25,2.21353 0.30746,0.49748 0.92308,0.31545 1.36804,-0.40451 0.44496,-0.71996 0.55746,-1.71605 0.25,-2.21353 z M 431.067,793.83654 c -0.52676,-0.98427 -2.07059,-2.38516 -3.43072,-3.11308 -1.36014,-0.72792 -3.43345,-2.62261 -4.60737,-4.21042 -3.21055,-4.3425 -4.52742,-3.46833 -1.8885,1.25364 1.9319,3.45688 6.41734,6.75301 10.59916,7.7888 0.15685,0.0388 -0.1458,-0.73467 -0.67257,-1.71894 z m 3.38184,-10.21655 c -0.99854,-1.10337 -2.01368,-1.80798 -2.25587,-1.56579 -0.58508,0.58508 2.01367,3.48543 3.16641,3.53388 0.49774,0.0209 0.088,-0.86472 -0.91054,-1.96809 z m -3.74445,-2.29334 c 0,-3.16231 -9.22309,-10.04959 -12.39261,-9.25409 -1.22915,0.30849 -2.51396,0.10925 -2.85512,-0.44277 -0.34117,-0.55202 -1.15625,-0.9887 -1.81129,-0.9704 -0.65504,0.0183 -0.066,0.96903 1.30902,2.11273 1.375,1.1437 2.5,2.49515 2.5,3.0032 0,1.33133 2.66063,2.81767 5.07569,2.83549 1.14162,0.008 3.13256,1.14031 4.42431,2.51531 2.91267,3.1004 3.75,3.14517 3.75,0.20053 z m -26.25708,-4.68908 c 0.35034,-0.56686 -0.0511,-0.7345 -0.94098,-0.39301 -1.73242,0.66479 -2.04939,1.38156 -0.61096,1.38156 0.51754,0 1.21592,-0.44485 1.55194,-0.98855 z m 8.04543,-3.35975 c -1.01414,-0.74156 -1.54281,-1.83546 -1.17481,-2.4309 0.83799,-1.35589 0.0407,-1.82928 -4.36354,-2.59071 l -3.5,-0.6051 3,1.38976 c 1.65,0.76437 3,1.90016 3,2.52398 0,1.1993 2.356,3.02017 3.94113,3.04596 0.51762,0.008 0.11137,-0.59142 -0.90278,-1.33299 z m 17.46165,-1.75869 c 0,-1.28596 -0.57887,-1.10536 -2.019,0.62988 -1.05678,1.27335 -0.99492,1.41968 0.37756,0.89301 0.90279,-0.34643 1.64144,-1.03173 1.64144,-1.52289 z m -235.95913,-6.66115 c 4.98399,-4.19913 7.11835,-6.40598 6.64925,-6.87508 -0.2871,-0.2871 -1.96546,0.75268 -3.72968,2.31061 -1.76423,1.55794 -3.49555,2.75561 -3.84739,2.6615 -0.35185,-0.0941 -1.15414,0.91894 -1.78288,2.25123 -1.19003,2.52166 -0.60668,2.44671 2.7107,-0.34826 z m 215.70913,-12.9587 c 0,-2.57972 -0.0131,-2.58429 -1.17697,-0.40962 -0.64733,1.20955 -1.49108,1.88507 -1.875,1.50116 -0.38392,-0.38392 -0.69803,-0.24803 -0.69803,0.30197 0,1.52402 1.05297,2.25023 2.47277,1.70541 0.70247,-0.26957 1.27723,-1.66408 1.27723,-3.09892 z m 12.96429,0.0125 c -0.91667,-0.91666 -1.98203,-1.3513 -2.36748,-0.96585 -0.38544,0.38544 0.16563,1.33436 1.22462,2.10871 2.49394,1.82362 3.30164,1.01592 1.14286,-1.14286 z m -16.30466,-1.13948 c 0.29021,-0.46958 -0.53254,-1.33683 -1.82834,-1.92724 -2.07874,-0.94713 -2.29668,-0.84666 -1.85201,0.85377 0.51449,1.96741 2.72871,2.61324 3.68035,1.07347 z m -186.17129,-2.85349 c -1.24391,-0.23919 -3.04391,-0.23011 -4,0.0202 -0.95609,0.25029 0.0617,0.446 2.26166,0.4349 2.2,-0.0111 2.98225,-0.21589 1.73834,-0.45508 z m 202.76166,-0.29269 c 0,-0.55 -0.47656,-1 -1.05902,-1 -0.58246,0 -0.7809,0.45 -0.44098,1 0.33992,0.55 0.81648,1 1.05902,1 0.24254,0 0.44098,-0.45 0.44098,-1 z m -122.36431,-5.49384 2.86431,-1.49384 -2.66821,-0.006 c -3.99398,-0.009 -6.34064,1.05591 -4.66564,2.11769 1.65942,1.0519 1.12723,1.12545 4.46954,-0.61769 z m -24.06269,-2.02763 c -2.05508,-1.55476 -3.20345,-1.30764 -2.11412,0.45494 0.36254,0.58659 1.4201,1.05222 2.35014,1.03473 1.48465,-0.0279 1.45585,-0.2097 -0.23602,-1.48967 z m 120.71675,-2.47853 c 0.28766,-1.1 0.35597,-2 0.15181,-2 -0.20415,0 -0.85286,0.9 -1.44156,2 -0.59134,1.10492 -0.65928,2 -0.15182,2 0.50521,0 1.15391,-0.9 1.44157,-2 z m -118.28975,-6 c 0,-0.55 -1.0125,-0.96837 -2.25,-0.92972 -2.1469,0.0671 -2.15836,0.10967 -0.25,0.92972 1.1,0.47269 2.1125,0.89106 2.25,0.92971 0.1375,0.0387 0.25,-0.37971 0.25,-0.92971 z m 113.60417,-1.72917 c -0.33229,-0.33229 -0.56864,0.25834 -0.52522,1.3125 0.048,1.16495 0.28494,1.4019 0.60416,0.60417 0.28887,-0.72188 0.25335,-1.58438 -0.0789,-1.91667 z m -65.60417,0.17814 c 0,-0.87803 -6.72885,-3.44897 -9.0269,-3.44897 -1.19394,0 -1.81518,0.4465 -1.44796,1.04068 0.35375,0.57237 1.3928,0.81708 2.30902,0.5438 0.91621,-0.27328 2.79084,0.14247 4.16584,0.92389 2.67191,1.51846 4,1.83076 4,0.9406 z m 65.38994,-4.19897 c -0.35648,-1.5125 -1.04006,-3.1775 -1.51905,-3.7 -0.47899,-0.5225 -0.87257,-1.8725 -0.87463,-3 -0.002,-1.1275 -0.92901,-3.56771 -2.05991,-5.42268 -1.13089,-1.85498 -1.82713,-3.96956 -1.54719,-4.69908 0.31329,-0.81641 -0.0134,-1.12592 -0.84975,-0.80499 -0.75183,0.2885 -1.63053,-0.29257 -1.96724,-1.30093 -0.69213,-2.07271 -12.55811,-11.32232 -14.52499,-11.32232 -1.03512,0 -1.04451,0.2983 -0.0472,1.5 1.03462,1.24665 0.91351,1.5 -0.71704,1.5 -1.1223,0 -2.44941,-1.0699 -3.10101,-2.5 -0.62649,-1.375 -1.60564,-2.5 -2.1759,-2.5 -0.57025,0 -3.51168,-1.64322 -6.53651,-3.65159 -3.02483,-2.00838 -5.71723,-3.43405 -5.98311,-3.16817 -0.26588,0.26588 0.61704,1.07236 1.96204,1.79218 3.568,1.90954 4.30893,4.43449 1.06215,3.6196 -1.3816,-0.34676 -4.55585,-0.91061 -7.0539,-1.25301 -2.94093,-0.4031 -5.09583,-1.36567 -6.11337,-2.73077 l -1.57145,-2.10824 0.52044,2.25 c 0.30899,1.33584 0.0506,2.25063 -0.63594,2.25155 -0.63601,8.6e-4 0.41862,0.79088 2.34362,1.75561 1.925,0.96473 3.65,1.41403 3.83333,0.99845 0.51385,-1.16479 3.89053,-0.89783 7.44879,0.58891 1.76983,0.73948 3.54515,1.42471 3.94515,1.52272 0.4,0.098 1.85264,1.30358 3.22808,2.67902 1.6743,1.6743 3.27941,2.35962 4.85667,2.0736 1.91918,-0.34801 2.57441,0.17715 3.53483,2.83317 0.64843,1.79319 2.09252,4.08711 3.20909,5.0976 1.97587,1.78813 2.01147,1.78528 1.33186,-0.1067 -0.38405,-1.06916 -1.0899,-2.45388 -1.56856,-3.07715 -0.54543,-0.71021 -0.2975,-1.35301 0.66421,-1.72206 0.90073,-0.34564 2.01742,0.18444 2.70376,1.28344 0.64309,1.02975 1.70319,1.66739 2.35578,1.41697 0.65258,-0.25042 2.35771,0.93657 3.78916,2.63777 2.00353,2.38105 2.46629,3.77492 2.01025,6.05509 -0.3502,1.751 -0.17073,2.96201 0.43898,2.96201 0.56726,0 0.80931,-0.84921 0.53788,-1.88714 -0.27142,-1.03793 -0.0215,-2.17882 0.55528,-2.53532 1.15187,-0.7119 4.00805,4.51393 6.1063,11.17246 1.47193,4.67096 3.44621,5.90022 2.4091,1.5 z m -18.20138,-24.28896 c -1.20371,-1.12142 -2.18856,-2.26743 -2.18856,-2.54668 0,-0.8064 4.93366,3.00228 4.96858,3.83564 0.0477,1.13801 -0.39557,0.93249 -2.78002,-1.28896 z m -197.6621,24.23209 c -0.30789,-0.30789 -1.11479,-6.4e-4 -1.79313,0.68278 -0.98026,0.98762 -0.8654,1.10248 0.5598,0.5598 0.98622,-0.37553 1.54122,-0.9347 1.23333,-1.24258 z m 71.93155,0.87481 c 0.33931,-0.54901 -1.3609,-0.74237 -4.13714,-0.47051 -6.23442,0.61052 -6.82543,1.40257 -1.04655,1.40257 2.5342,0 4.86686,-0.41943 5.18369,-0.93206 z m 42.08876,0.008 c -0.31419,-0.50837 0.22175,-1.13117 1.19099,-1.384 1.40502,-0.36649 1.32783,-0.48319 -0.38077,-0.57568 -1.17866,-0.0638 -2.40203,0.559 -2.71862,1.384 -0.35684,0.92992 0.005,1.5 0.95203,1.5 0.8402,0 1.27057,-0.41594 0.95637,-0.92432 z m 18.16265,-0.70788 c 0.25497,-0.76226 -1.43272,-1.089 -5.1652,-1 -3.2349,0.0771 -5.54398,0.58376 -5.54407,1.2164 -2e-4,1.46461 10.21603,1.25817 10.70927,-0.2164 z m -45.70942,-0.14852 c 0,-0.42942 -1.35,-1.29033 -3,-1.91314 -3.47975,-1.31346 -4.19721,0.27713 -0.75,1.66274 2.88685,1.16037 3.75,1.218 3.75,0.2504 z m 18,-0.61225 c 0,-1.8192 2.70569,-2.84371 3.43539,-1.30081 0.42957,0.90829 0.70413,0.89485 1.14794,-0.0562 0.32084,-0.6875 1.78334,-1.25664 3.25,-1.26475 l 2.66667,-0.0147 -2.5,-1.29686 c -1.49962,-0.77792 -2.75538,-0.92083 -3.1382,-0.35714 -0.351,0.51684 -1.16239,0.61574 -1.80307,0.21978 -0.65669,-0.40586 -2.01423,0.25938 -3.1118,1.52489 -2.13814,2.46529 -2.49239,3.93881 -0.94693,3.93881 0.55,0 1,-0.62686 1,-1.39301 z m -97.55,-1.71939 c 1.52746,-1.42714 -0.66379,-0.98917 -3.45,0.68955 l -2.5,1.50628 2.5,-0.65411 c 1.375,-0.35976 2.9275,-1.05353 3.45,-1.54172 z m 90.1,1.20946 c 0.5225,-0.49661 1.85,-1.138 2.95,-1.4253 1.1,-0.28731 0.45966,-0.44348 -1.42299,-0.34707 -1.88264,0.0964 -3.60764,0.73781 -3.83333,1.42531 -0.47652,1.45159 0.92269,1.66215 2.30632,0.34706 z m -66.06468,-4.07331 c 0.24979,-0.40416 -0.65723,-0.52238 -2.01558,-0.26272 -1.35836,0.25967 -2.46974,0.82754 -2.46974,1.26193 0,0.92714 3.82083,0.076 4.48532,-0.99921 z m 68.11036,-0.63499 c -0.50769,-1.32305 -0.13785,-1.49067 2.06765,-0.93712 2.31123,0.58008 2.51187,0.46438 1.43819,-0.82932 -0.68626,-0.82689 -1.96797,-1.22706 -2.84824,-0.88927 -1.20534,0.46253 -1.43701,0.18813 -0.93834,-1.11138 0.36418,-0.94905 0.25574,-1.47437 -0.24098,-1.16738 -0.49673,0.30699 -1.05407,0.17284 -1.23855,-0.29812 -0.18448,-0.47096 -2.33702,-1.1179 -4.78344,-1.43764 -2.44641,-0.31974 -3.94459,-0.2702 -3.32928,0.11008 0.61531,0.38028 1.42919,1.92833 1.80862,3.44011 0.47326,1.88562 1.51863,2.93042 3.32928,3.32746 1.45168,0.31832 3.08941,0.72887 3.63941,0.91234 0.55,0.18347 1.16064,0.36911 1.35699,0.41253 0.19634,0.0434 0.0788,-0.64611 -0.26131,-1.53229 z m 25.40432,0.22787 c 0,-0.21085 -0.9,-0.61872 -2,-0.90638 -1.1,-0.28766 -2,-0.11514 -2,0.38337 0,0.49851 0.9,0.90638 2,0.90638 1.1,0 2,-0.17252 2,-0.38337 z m -35.22916,-3.11484 c -0.16636,-2.01002 -0.60385,-2.37889 -2.2388,-1.88761 -3.03564,0.91218 -4.57385,2.78882 -1.72087,2.09949 1.48554,-0.35894 2.50616,-0.0503 2.85699,0.86395 0.83644,2.17972 1.33209,1.69613 1.10268,-1.07583 z m 30.00001,1.93573 c -1.08232,-1.08233 -7.9344,-1.51116 -7.28212,-0.45575 0.34612,0.56003 2.25275,1.01823 4.23695,1.01823 1.98421,0 3.35454,-0.25312 3.04517,-0.56248 z m -85.84966,-5.43752 c 1.22202,0 6.54856,-4.86358 5.96531,-5.44683 -0.96045,-0.96046 -12.8865,8.46889 -12.8865,10.18873 0,0.23974 1.38453,-0.72912 3.07673,-2.15301 1.69219,-1.42389 3.4222,-2.58889 3.84446,-2.58889 z m -6.4543,0.41018 c 0.84321,-1.2869 1.53311,-2.59648 1.53311,-2.91018 0,-0.71037 -2.73245,0.83688 -5.91001,3.34655 l -2.41002,1.90345 2.62691,0 c 1.65059,0 3.1967,-0.86961 4.16001,-2.33982 z m 49.55525,0.1165 c -1.04095,-1.25427 -0.68745,-1.4532 2.37756,-1.33797 1.98016,0.0744 3.6003,0.51244 3.6003,0.97332 0,0.46088 1.1563,0.83797 2.56955,0.83797 2.09274,0 2.51025,-0.41752 2.25,-2.25 -0.25361,-1.78569 -0.86733,-2.18623 -2.97404,-1.94095 -1.45997,0.16998 -2.9121,-0.10777 -3.22695,-0.61722 -0.5123,-0.82892 -5.9782,-0.006 -10.61856,1.59893 -1.22684,0.42429 -1.18131,0.59498 0.25,0.93732 0.9625,0.23021 1.75,0.80427 1.75,1.27569 0,0.47142 1.0125,1.05214 2.25,1.2905 1.2375,0.23835 2.4176,0.49465 2.62244,0.56955 0.20485,0.0749 -0.17779,-0.52681 -0.8503,-1.33714 z m 95.11708,-1.55995 c -1.29844,-1.0817 -2.87344,-1.95672 -3.5,-1.94449 -0.62657,0.0122 -0.0142,0.90222 1.36078,1.97776 3.26804,2.5563 5.21135,2.52607 2.13922,-0.0333 z m -139.79714,-1.4158 c 0.37092,-0.96661 0.0755,-1.26467 -0.88726,-0.89522 -0.79383,0.30462 -1.19436,0.95671 -0.89006,1.44907 0.76643,1.24011 1.13272,1.12596 1.77732,-0.55385 z m 204.79463,-0.33869 c -0.72144,-0.24048 -1.78716,0.0382 -2.36826,0.61931 -0.74207,0.74207 -0.35164,0.87221 1.31171,0.43724 1.3522,-0.35361 1.8055,-0.80691 1.05655,-1.05655 z m -96.94921,0.10465 c -0.72188,-0.28888 -1.58438,-0.25335 -1.91667,0.0789 -0.33229,0.33229 0.25834,0.56864 1.3125,0.52522 1.16495,-0.048 1.4019,-0.28495 0.60417,-0.60417 z m -45.86931,-2.70371 c 0.37333,-0.97287 -0.0425,-1.23654 -1.39301,-0.88336 -2.21416,0.57901 -2.6106,2.27018 -0.53217,2.27018 0.76616,0 1.63249,-0.62407 1.92518,-1.38682 z m -23.48019,-2.07037 c 3.11833,-0.32962 7.162,-1.75805 7.162,-2.52999 0,-1.21478 -9.33341,1.02667 -11,2.64168 -1.32691,1.28585 -1.28791,1.3734 0.338,0.75878 1.0109,-0.38214 2.5859,-0.77385 3.5,-0.87047 z m 14.912,-0.54281 c 0.87083,0 1.31725,-0.26609 0.99203,-0.59131 -1.04637,-1.04636 -4.80827,0.67512 -4.07347,1.86405 0.5082,0.82229 0.80628,0.80274 1.09786,-0.072 0.22013,-0.6604 1.11275,-1.20074 1.98358,-1.20074 z m 92.75,0 c -1.73702,-0.60932 -1.74316,-0.69271 -0.0974,-1.32424 0.96599,-0.37069 2.95363,-0.37348 4.41698,-0.006 2.48454,0.62358 2.55019,0.55733 0.99197,-1.00089 -0.91779,-0.91777 -3.22408,-1.66867 -5.12511,-1.66867 -2.61428,0 -3.86938,-0.63025 -5.15133,-2.58676 -0.9322,-1.42272 -1.96449,-2.31719 -2.29398,-1.98771 -0.32948,0.32949 0.29784,1.83103 1.39405,3.33677 3.32798,4.57127 3.61893,5.27244 1.91676,4.61926 -0.85357,-0.32755 -1.55194,-0.30789 -1.55194,0.0437 0,1.04672 4.38592,2.35542 5.92689,1.7685 1.10593,-0.42122 1.00992,-0.68973 -0.42689,-1.19373 z m -19,0 c 1.61501,-0.694 1.29419,-0.87296 -1.66667,-0.92972 -2.01666,-0.0387 -3.89364,-0.63278 -4.17105,-1.32028 -0.27741,-0.6875 -0.53991,-0.2375 -0.58333,1 -0.0853,2.42991 2.50279,2.93374 6.42105,1.25 z m 12.5,0 c 0,-0.55 -1.0125,-0.99311 -2.25,-0.98469 -1.81944,0.0124 -1.96296,0.20082 -0.75,0.98469 1.93876,1.25292 3,1.25292 3,0 z m -6.5,-1 c -2.73138,-1.17371 -3.5,-1.17371 -3.5,0 0,0.55 1.2375,0.96837 2.75,0.92971 2.43684,-0.0623 2.52225,-0.16815 0.75,-0.92971 z m -79.58333,-1.64068 c 0.95205,-0.82102 -0.61979,-1.09133 -3.65647,-0.62879 -1.78188,0.27141 -2.99181,0.89472 -2.68871,1.38514 0.48305,0.78159 5.21601,0.21742 6.34518,-0.75635 z m 9.08333,-0.96873 c 0,-0.21482 -1.575,-0.39059 -3.5,-0.39059 -1.925,0 -3.5,0.35964 -3.5,0.7992 0,0.43956 1.575,0.61533 3.5,0.39059 1.925,-0.22473 3.5,-0.58437 3.5,-0.7992 z m 72,-0.39059 c 0,-0.55 -2.1375,-0.93241 -4.75,-0.84981 l -4.75,0.1502 4.5,0.69961 c 2.475,0.38479 4.6125,0.7672 4.75,0.84981 0.1375,0.0826 0.25,-0.29981 0.25,-0.84981 z m -19.63729,-1.431 c 7.57217,0.0589 8.60004,-0.12307 7.05887,-1.25 -1.87141,-1.36841 -17.38763,-1.95172 -16.03887,-0.60296 0.39382,0.39383 -0.99368,1.27615 -3.08333,1.96073 -3.79128,1.24203 -3.79192,1.24317 -0.29938,0.53396 1.925,-0.3909 7.48822,-0.67968 12.36271,-0.64173 z m -51.86271,-3.32195 c 2.93508,-0.59393 3.5341,-0.99243 2.25,-1.49685 -0.9625,-0.37809 -2.50379,-0.39818 -3.42508,-0.0446 -0.92129,0.35353 -4.18379,1.22763 -7.25,1.94243 l -5.57492,1.29964 5,-0.44559 c 2.75,-0.24507 6.8,-0.80982 9,-1.25499 z m 35.5,-1.24705 c 1.33333,-0.86167 1.33333,-0.96327 0,-0.9144 -0.825,0.0302 -2.4,0.44171 -3.5,0.9144 -2,0.85943 -2,0.85943 0,0.9144 1.1,0.0302 2.675,-0.38124 3.5,-0.9144 z m -52.5,-2 c 1.13361,-1.25262 1.3538,-2 0.58925,-2 -1.83779,0 -5.08925,1.93914 -5.08925,3.03518 0,1.65645 2.6068,1.05678 4.5,-1.03518 z m 14.6875,-0.68311 c -0.72188,-0.28888 -1.58438,-0.25335 -1.91667,0.0789 -0.33229,0.33229 0.25834,0.56864 1.3125,0.52522 1.16495,-0.048 1.4019,-0.28495 0.60417,-0.60417 z m 94.17413,-1.81689 c -0.31659,-0.825 -1.03256,-1.5 -1.59106,-1.5 -0.58531,0 -0.48812,0.63541 0.22943,1.5 0.68469,0.825 1.40067,1.5 1.59106,1.5 0.19039,0 0.0871,-0.675 -0.22943,-1.5 z m -52.86163,-1.5 c -0.33992,-0.55 -0.029,-1.02852 0.69098,-1.06339 0.71996,-0.0349 0.29082,-0.47247 -0.95366,-0.97246 -2.64203,-1.06149 -8.46853,-0.14728 -7.63693,1.19828 0.31236,0.50541 1.42097,0.64818 2.46359,0.31726 1.04261,-0.33091 2.69224,-0.1379 3.66584,0.42892 2.25157,1.31083 2.53281,1.32535 1.77018,0.0914 z m 5.7,-0.2 c -0.93333,-0.93333 -1.46667,-0.93333 -2.4,0 -0.93333,0.93333 -0.66667,1.2 1.2,1.2 1.86667,0 2.13333,-0.26667 1.2,-1.2 z m 17.36847,-3.68922 c -0.30227,-0.48907 -1.78682,-1.19975 -3.299,-1.57929 -1.51219,-0.37953 -3.13389,-1.21688 -3.60379,-1.86077 -0.5743,-0.78698 -0.6942,-0.66064 -0.36578,0.38544 0.41532,1.32287 -0.43255,1.49093 -5.65567,1.12103 -3.37933,-0.23933 -6.41806,-0.86313 -6.75274,-1.38624 -0.33468,-0.52311 -1.90968,-0.78745 -3.5,-0.58743 l -2.89149,0.36368 3.5,1.52585 c 1.925,0.83922 6.40294,1.62704 9.95098,1.75071 3.54804,0.12368 6.66054,0.43442 6.91666,0.69055 0.87044,0.87044 6.25338,0.47052 5.70083,-0.42353 z m 11.16268,-1.93472 c -0.70831,-0.85347 -1.29442,-0.98625 -1.50921,-0.34189 -0.19313,0.57941 -0.9945,0.8066 -1.7808,0.50487 -0.78631,-0.30174 -1.25021,-0.83896 -1.03089,-1.19383 0.21932,-0.35486 -0.57076,-0.73125 -1.75574,-0.8364 -1.18498,-0.10516 -3.72951,-0.44235 -5.65451,-0.74931 -2.26707,-0.36151 -1.26243,0.24681 2.85197,1.7269 7.48368,2.69215 10.63736,3.00813 8.87918,0.88966 z m -20.73115,-2.57824 c 0,-0.22119 -1.4625,-0.89001 -3.25,-1.48626 -2.97337,-0.99181 -3.08478,-0.95758 -1.30887,0.40218 1.789,1.36978 4.55887,2.02844 4.55887,1.08408 z m 6.09191,-5.98708 c -1.56859,-1.89003 -6.07612,-2.73318 -5.41606,-1.01309 0.42587,1.10982 1.80611,1.65889 5.69659,2.26617 0.47985,0.0749 0.35361,-0.48899 -0.28053,-1.25308 z m 21.92071,433.63924 c 4.58986,-4.2625 13.88969,-13.3661 20.66629,-20.2302 6.7766,-6.8641 12.32109,-11.9531 12.32109,-11.309 0,0.6441 -0.39157,1.4132 -0.87015,1.7089 -0.47859,0.2958 -3.6956,4.7099 -7.14892,9.8091 -6.54424,9.6632 -11.75156,16.3244 -18.38751,23.5212 -3.69794,4.0105 -4.22894,4.25 -9.42239,4.25 l -5.50361,0 8.3452,-7.75 z m 64.24221,5.5 c 0.2684,-1.2375 1.65373,-6.1788 3.07853,-10.9806 5.19566,-17.5103 7.28223,-47.1465 4.16264,-59.1235 -0.8272,-3.1758 -2.82929,-8.4454 -4.44908,-11.7101 -1.6198,-3.2647 -2.5593,-5.9358 -2.08778,-5.9358 1.75737,0 9.61938,8.689 11.77699,13.0157 1.22987,2.4664 2.24237,4.1161 2.25,3.6662 0.0166,-0.9768 4.2735,2.024 8.70393,6.1354 1.75453,1.6283 6.92953,5.5724 11.5,8.7649 9.8132,6.8545 14.47894,11.1027 13.35116,12.1563 -0.44827,0.4188 -0.99412,0.2644 -1.21301,-0.3432 -0.58075,-1.6119 -5.32821,-0.4285 -5.32821,1.3283 0,0.868 0.58576,1.2656 1.4028,0.9521 0.77154,-0.2961 2.22824,0.065 3.23711,0.8029 1.69565,1.2399 1.57071,1.4169 -1.6528,2.3412 -1.91791,0.5499 -2.69961,1.0404 -1.73711,1.09 0.9625,0.05 1.75,0.7652 1.75,1.5902 0,0.825 0.70714,1.5 1.57143,1.5 1.42612,0 1.42665,0.1448 0.006,1.5656 -0.86111,0.8612 -1.57308,2.9987 -1.58215,4.75 -0.009,1.7514 -0.0575,4.4511 -0.10751,5.9993 -0.11744,3.6319 0.36128,4.0301 5.13883,4.274 2.75116,0.1405 3.97364,-0.2084 3.97364,-1.134 0,-2.4743 1.74138,-2.4408 4.26411,0.082 2.06025,2.0602 2.61001,2.2336 3.09293,0.9751 0.32302,-0.8417 1.10255,-1.4138 1.7323,-1.2712 1.68423,0.3814 1.99641,-3.2978 0.41407,-4.8802 -1.7628,-1.7625 -2.50365,-1.7213 -2.50365,0.1395 0,2.1173 -1.145,1.8399 -3.75,-0.9082 -2.70781,-2.8567 -2.80795,-3.5821 -0.5,-3.6222 1.66667,-0.029 1.66667,-0.079 0,-1.0497 -0.9625,-0.5606 -1.75,-1.9128 -1.75,-3.0048 0,-1.6498 0.32545,-1.8113 1.92494,-0.9553 2.17887,1.1661 7.1883,1.0324 6.44395,-0.172 -0.26781,-0.4333 -1.09324,-0.7878 -1.83429,-0.7878 -0.89475,0 -1.16125,-0.7558 -0.79333,-2.25 0.3214,-1.3053 0.17712,-1.9001 -0.34362,-1.4167 -0.49371,0.4584 -0.89765,1.3522 -0.89765,1.9863 0,0.6342 -0.7875,1.3046 -1.75,1.49 -0.9625,0.1854 -1.75,-0.1348 -1.75,-0.7115 0,-0.7013 -0.81633,-0.7382 -2.4646,-0.1116 -1.52307,0.5791 -2.68476,0.5808 -3.0409,0.01 -0.31696,-0.5128 0.56711,-1.2194 1.9646,-1.5702 1.3975,-0.3507 2.5409,-1.0837 2.5409,-1.6288 0,-1.6698 8.01873,-0.2224 16.5,2.9783 13.80841,5.2111 15.69764,6.4217 11.66667,7.4758 -2.27128,0.5939 -2.43963,3.7538 -0.2,3.7538 0.89833,0 2.19207,-0.5587 2.87497,-1.2416 0.98886,-0.9889 1.42332,-0.9477 2.13402,0.2022 1.2787,2.069 0.44925,2.8433 -2.45179,2.2887 -2.65491,-0.5075 -3.10735,0.2797 -1.56365,2.7206 0.62596,0.9898 2.38453,1.4065 5.38384,1.276 2.90181,-0.1263 4.8806,0.3199 5.67754,1.2801 0.67281,0.8107 1.95569,1.4424 2.85084,1.4037 1.25222,-0.054 1.16633,-0.2685 -0.37244,-0.9297 -1.67602,-0.7202 -1.47353,-0.8708 1.25,-0.9297 2.78126,-0.06 3.25,-0.4309 3.25,-2.5703 0,-1.375 0.12881,-2.5 0.28625,-2.5 0.15744,0 2.96994,1.0386 6.25,2.308 l 5.96375,2.308 0.28383,10.692 0.28383,10.692 -57.65041,0 -57.6504,0 0.48798,-2.25 z m 72.73516,-9.75 c 0.46384,0 1.07032,0.5625 1.34773,1.25 0.27741,0.6875 0.53991,0.013 0.58333,-1.5 0.084,-2.9251 -0.98689,-3.2555 -5.92105,-1.8268 l -2.5,0.7239 2.25,0.7438 c 1.2375,0.4091 2.3022,1.501 2.366,2.4265 0.10372,1.5044 0.16443,1.4973 0.57333,-0.067 0.25152,-0.9625 0.83682,-1.75 1.30066,-1.75 z m 13.01001,-2.6903 c 0,-1.9684 -2.41213,-1.097 -2.82265,1.0196 -0.225,1.1602 0.15332,1.481 1.25,1.0602 0.86496,-0.3319 1.57265,-1.2679 1.57265,-2.0798 z m -14.62633,-2.8996 c 1.18807,-0.4559 1.27014,-0.8758 0.36131,-1.8487 -1.52601,-1.6336 -4.76596,-0.8057 -4.05879,1.0371 0.58914,1.5353 1.36675,1.706 3.69748,0.8116 z m 10.293,-5.4101 c 0,-1.8678 -0.51503,-3 -1.36472,-3 -1.66472,0 -2.72422,2.4572 -1.94032,4.5 1.03884,2.7072 3.30504,1.6786 3.30504,-1.5 z m 25.83333,1 c -0.33992,-0.55 -1.29303,-1 -2.11803,-1 -0.825,0 -1.22189,0.45 -0.88197,1 0.33992,0.55 1.29303,1 2.11803,1 0.825,0 1.22189,-0.45 0.88197,-1 z m -86.89583,-22.7292 c -0.33229,-0.3323 -0.56864,0.2583 -0.52522,1.3125 0.048,1.165 0.28494,1.4019 0.60416,0.6042 0.28887,-0.7219 0.25335,-1.5844 -0.0789,-1.9167 z m 0.39583,-13.8298 c 0,-0.8575 -0.45,-1.2809 -1,-0.941 -0.55,0.3399 -1,1.0415 -1,1.559 0,0.5175 0.45,0.941 1,0.941 0.55,0 1,-0.7016 1,-1.559 z m -152,46.559 c 0,-0.55 0.45,-1 1,-1 0.55,0 1,0.45 1,1 0,0.55 -0.45,1 -1,1 -0.55,0 -1,-0.45 -1,-1 z m 218,-11 c 0,-0.55 0.45,-1 1,-1 0.55,0 1,0.45 1,1 0,0.55 -0.45,1 -1,1 -0.55,0 -1,-0.45 -1,-1 z m 6.43627,-3.2903 c -1.06495,-1.2597 -3.06127,-2.8043 -4.43627,-3.4324 -2.13134,-0.9736 -2.20508,-1.141 -0.5,-1.1355 2.67442,0.01 10.58859,3.6864 8.14301,3.784 -1.22601,0.049 -1.66141,0.5839 -1.28138,1.5742 0.79494,2.0716 0.33428,1.8825 -1.92536,-0.7903 z m -43.7696,-16.3764 c -1.26779,-1.2678 -0.65891,-2.3333 1.33333,-2.3333 1.11111,0 2,0.6667 2,1.5 0,1.5224 -2.1154,2.0512 -3.33333,0.8333 z m -163.66667,-18.3333 c -1.2819,-0.8285 -1.24555,-0.9716 0.25,-0.9847 0.9625,-0.01 1.75,0.4347 1.75,0.9847 0,1.2196 -0.11279,1.2196 -2,0 z m -7.92105,-40.4166 c -0.0434,-1.0542 0.19292,-1.6448 0.52522,-1.3125 0.33229,0.3322 0.36781,1.1947 0.0789,1.9166 -0.31922,0.7977 -0.55618,0.5608 -0.60416,-0.6041 z m -5.51692,-2.9172 c -0.66207,-1.4448 -1.01974,-1.5509 -1.68588,-0.5 -0.56586,0.8926 -0.85059,0.2994 -0.86084,-1.7937 -0.0253,-5.1737 1.78266,-5.8308 16.78053,-6.0995 7.42853,-0.133 13.67062,-0.4061 13.87131,-0.6068 0.20069,-0.2007 2.70575,0.2423 5.5668,0.9845 2.86105,0.7421 6.34134,1.3778 7.73398,1.4127 l 2.53207,0.063 -2.35393,0.9429 c -1.45668,0.5834 -8.12722,0.6033 -17.5,0.052 -8.66809,-0.5098 -15.61312,-0.5162 -16.23808,-0.015 -0.6006,0.4817 -1.35419,0.6136 -1.67464,0.2931 -1.54387,-1.5438 -4.63426,0.8791 -4.97241,3.8984 -0.29482,2.6325 -0.50792,2.8757 -1.19891,1.3678 z m 71.7088,-11.2703 c 0.33229,-0.3323 1.19479,-0.3679 1.91667,-0.079 0.79773,0.3192 0.56078,0.5561 -0.60417,0.6041 -1.05416,0.043 -1.64479,-0.1929 -1.3125,-0.5252 z M 249.03334,988.20975 c -0.0434,-1.05416 0.19292,-1.64479 0.52522,-1.3125 0.33229,0.33229 0.36781,1.19479 0.0789,1.91667 -0.31922,0.79773 -0.55618,0.56078 -0.60416,-0.60417 z m 2.92105,-5.08333 c 0,-0.825 0.43588,-1.5 0.96862,-1.5 0.53273,0 0.70959,0.675 0.39301,1.5 -0.31659,0.825 -0.75246,1.5 -0.96862,1.5 -0.21615,0 -0.39301,-0.675 -0.39301,-1.5 z m -20.5,-3.5 c -0.33992,-0.55 -0.14148,-1 0.44098,-1 0.58246,0 1.05902,0.45 1.05902,1 0,0.55 -0.19844,1 -0.44098,1 -0.24254,0 -0.7191,-0.45 -1.05902,-1 z m 124.77083,-23.60417 c 0.33229,-0.33229 1.19479,-0.36781 1.91667,-0.0789 0.79773,0.31922 0.56078,0.55618 -0.60417,0.60416 -1.05416,0.0434 -1.64479,-0.19293 -1.3125,-0.52522 z m -126.81195,-4.46236 c -1.07627,-1.74144 0.14952,-2.11024 1.52106,-0.45764 0.78875,0.95039 0.86462,1.52417 0.20152,1.52417 -0.58488,0 -1.36004,-0.47994 -1.72258,-1.06653 z m 1.67198,-7.09553 c -0.69819,-1.11798 -1.01326,-2.28888 -0.70015,-2.60199 0.31311,-0.3131 0.56929,-0.0177 0.56929,0.6564 0,0.67413 0.40285,0.97671 0.89522,0.67241 0.49236,-0.3043 1.14771,0.10473 1.45632,0.90896 0.8916,2.32346 -0.82163,2.60445 -2.22068,0.36422 z m 193.86914,-46.0325 c 0,-0.31726 0.67223,-1.86576 1.49384,-3.44113 0.82161,-1.57537 1.4823,-2.18931 1.4682,-1.36431 -0.0141,0.825 -0.68634,2.37351 -1.49384,3.44113 -0.80751,1.06762 -1.4682,1.68156 -1.4682,1.36431 z m -27.5,-17.80544 c -0.33992,-0.55 -0.14148,-1 0.44098,-1 0.58246,0 1.05902,0.45 1.05902,1 0,0.55 -0.19844,1 -0.44098,1 -0.24254,0 -0.7191,-0.45 -1.05902,-1 z m -4.5,-1.25022 c 0,-0.56296 -1.42209,-0.70558 -3.37753,-0.33873 -2.81096,0.52734 -3.4634,0.30524 -3.88946,-1.324 -0.36459,-1.3942 -1.09924,-1.80404 -2.55257,-1.42398 -1.37832,0.36043 -2.46597,-0.14742 -3.35109,-1.56472 -1.53309,-2.45487 -2.82935,-2.729 -2.82935,-0.59835 0,0.825 -0.45,1.5 -1,1.5 -0.55,0 -1,-0.675 -1,-1.5 0,-0.825 -0.765,-1.5 -1.7,-1.5 -1.20216,0 -1.38822,-0.31178 -0.63534,-1.06466 0.58556,-0.58556 4.26175,-1.31839 8.1693,-1.62851 5.54478,-0.44006 7.90732,-0.18295 10.76059,1.17101 3.00227,1.42467 3.80436,1.49475 4.48595,0.39191 0.64949,-1.0509 1.31977,-0.81723 3.08219,1.0745 1.54729,1.66082 1.86122,2.54778 1.00302,2.83385 -0.85609,0.28536 -0.93399,0.79618 -0.24757,1.62326 0.73816,0.88943 -0.0399,1.48488 -2.95826,2.26383 -2.50688,0.66912 -3.95988,0.70016 -3.95988,0.0846 z m -11,-6.3088 c 0,-0.85746 -0.45,-1.2809 -1,-0.94098 -0.55,0.33992 -1,1.04148 -1,1.55902 0,0.51754 0.45,0.94098 1,0.94098 0.55,0 1,-0.70156 1,-1.55902 z m 44.07895,3.14235 c -0.0434,-1.05416 0.19293,-1.64479 0.52522,-1.3125 0.33229,0.33229 0.36781,1.19479 0.0789,1.91667 -0.31922,0.79773 -0.55618,0.56078 -0.60416,-0.60417 z m -160.62007,-1.64986 c -0.36253,-0.58659 -0.44468,-1.281 -0.18255,-1.54313 0.26212,-0.26213 0.74306,0.21781 1.06875,1.06653 0.67618,1.76211 0.0999,2.07206 -0.8862,0.4766 z m -9.45888,-3.37445 c 0,-1.05548 1.91911,-1.49891 2.48992,-0.57533 0.34546,0.55897 -0.0734,1.01631 -0.9309,1.01631 -0.85746,0 -1.55902,-0.19844 -1.55902,-0.44098 z m 187.08333,0.15801 c 0.22917,-0.15563 1.31667,-0.94313 2.41667,-1.75 1.85001,-1.35701 1.89707,-1.33579 0.62756,0.28297 -0.75485,0.9625 -1.84235,1.75 -2.41667,1.75 -0.57432,0 -0.85672,-0.12734 -0.62756,-0.28297 z m -96.08333,-1.62482 c 0,-1.08126 5.92322,-3.25769 7.02042,-2.57959 0.58696,0.36276 1.60998,0.22861 2.27338,-0.2981 0.66341,-0.52672 2.09088,-0.81602 3.17216,-0.64288 1.08128,0.17313 2.43128,-0.0699 3,-0.54014 0.56872,-0.47021 2.15904,-0.84882 3.53404,-0.84137 1.375,0.007 4.075,-0.39262 6,-0.88904 3.9505,-1.01877 7.3122,-0.61526 6.45323,0.77459 -0.3142,0.50838 0.69279,0.938 2.23775,0.95473 5.67322,0.0614 -0.24619,1.90039 -6.79474,2.11092 -3.51793,0.11309 -7.52124,0.62299 -8.89624,1.13311 -2.83725,1.0526 -18,1.74147 -18,0.81777 z m -78.88629,-2.53926 c 0.24588,-0.24587 2.00838,-0.70388 3.91667,-1.0178 2.50784,-0.41255 3.05382,-0.29287 1.96962,0.43173 -1.44468,0.96552 -6.79882,1.49861 -5.88629,0.58607 z m 14.88629,-0.55295 c 0,-0.55 0.19844,-1 0.44098,-1 0.24254,0 0.7191,0.45 1.05902,1 0.33992,0.55 0.14148,1 -0.44098,1 -0.58246,0 -1.05902,-0.45 -1.05902,-1 z m 47.07895,-6.41667 c -0.0434,-1.05416 0.19293,-1.64479 0.52522,-1.3125 0.33229,0.33229 0.36781,1.19479 0.0789,1.91667 -0.31922,0.79773 -0.55618,0.56078 -0.60416,-0.60417 z m -1.07895,-5.58333 c 0,-1.65 0.17393,-3 0.3865,-3 0.21258,0 0.58464,1.35 0.82681,3 0.24217,1.65 0.0682,3 -0.3865,3 -0.45475,0 -0.82681,-1.35 -0.82681,-3 z m -63,-1.25538 c 0,-0.99357 -0.89353,-1.26709 -3.08736,-0.94511 -2.90312,0.42609 -3.01053,0.3301 -1.79985,-1.60851 0.70813,-1.1339 1.64388,-1.84139 2.07944,-1.57219 0.43556,0.26919 1.58299,0.0288 2.54985,-0.53428 1.65242,-0.96227 1.64647,-1.02554 -0.0991,-1.05412 -1.32989,-0.0218 -1.67239,-0.51145 -1.20665,-1.72516 0.35768,-0.93211 0.89016,-3.74461 1.18327,-6.25 0.50034,-4.27659 2.62784,-8.05525 4.53536,-8.05525 0.46475,0 0.84501,0.70156 0.84501,1.55902 0,0.85746 0.45,1.2809 1,0.94098 0.59512,-0.3678 1,0.82295 1,2.94098 0,1.95746 0.45,3.55902 1,3.55902 0.55,0 1,0.45 1,1 0,0.55 -0.72378,1 -1.60841,1 -1.21325,0 -1.45534,0.60988 -0.98537,2.48239 0.46224,1.84168 0.10307,2.80712 -1.39159,3.74055 -1.10805,0.69198 -2.01463,1.63205 -2.01463,2.08904 0,0.45698 -0.675,1.50588 -1.5,2.33088 -1.23629,1.23629 -1.5,1.25418 -1.5,0.10176 z m 160,-24.74462 c 0,-0.55 0.19844,-1 0.44098,-1 0.24254,0 0.7191,0.45 1.05902,1 0.33992,0.55 0.14148,1 -0.44098,1 -0.58246,0 -1.05902,-0.45 -1.05902,-1 z m 2.62354,-3.53866 c -0.96498,-2.51469 -0.68031,-3.16355 0.49853,-1.13634 0.58369,1.00375 0.8506,2.03566 0.59313,2.29313 -0.25747,0.25747 -0.74872,-0.26309 -1.09166,-1.15679 z m -3.12354,-1.46134 c -0.33992,-0.55 -0.14148,-1 0.44098,-1 0.58246,0 1.05902,0.45 1.05902,1 0,0.55 -0.19844,1 -0.44098,1 -0.24254,0 -0.7191,-0.45 -1.05902,-1 z m -5.03617,-20.75 c -1.16193,-4.24353 -1.21974,-6.25 -0.18008,-6.25 0.52223,0 0.73429,0.82303 0.47123,1.82896 -0.26306,1.00593 0.13446,2.66694 0.88337,3.69113 1.56992,2.147 1.74997,3.47991 0.47006,3.47991 -0.49038,0 -1.23044,-1.2375 -1.64458,-2.75 z m -10.46383,-12.25 c 0,-0.55 0.19844,-1 0.44098,-1 0.24254,0 0.7191,0.45 1.05902,1 0.33992,0.55 0.14148,1 -0.44098,1 -0.58246,0 -1.05902,-0.45 -1.05902,-1 z m -116,-22 c -0.94868,-0.61308 -1.0521,-0.975 -0.28138,-0.98469 0.67023,-0.008 0.98725,-0.61821 0.70449,-1.3551 -0.62752,-1.63527 2.08496,-4.08227 3.53309,-3.18728 1.7274,1.06759 1.17792,3.34973 -0.97072,4.03168 -1.10799,0.35166 -1.75643,1.05698 -1.44098,1.56739 0.72297,1.16979 0.35014,1.15241 -1.5445,-0.072 z m 140.69728,-0.75 c -1.15147,-2.05249 -1.63256,-6.25 -0.71633,-6.25 0.56048,0 1.01905,1.37656 1.01905,3.05902 0,1.7847 0.41658,2.80156 1,2.44098 0.55,-0.33992 1,-0.14148 1,0.44098 0,1.21103 -1.67089,1.43526 -2.30272,0.30902 z M 322.63945,755.00475 c 0.5014,-1.30661 0.2682,-1.57437 -0.96052,-1.10287 -1.14228,0.43834 -1.45806,0.19368 -1.06662,-0.82639 0.30583,-0.79699 1.14541,-1.44907 1.86574,-1.44907 0.72032,0 1.51057,-0.5625 1.7561,-1.25 0.25967,-0.72707 0.81746,-0.87897 1.33334,-0.3631 0.51587,0.51588 0.36397,1.07367 -0.3631,1.33334 -0.6875,0.24553 -1.25,1.28237 -1.25,2.30408 0,1.0217 -0.44485,2.13258 -0.98855,2.4686 -0.58825,0.36356 -0.72041,-0.0878 -0.32639,-1.11459 z m 45.81494,-8.37833 c -0.33992,-0.55 -0.14148,-1 0.44098,-1 0.58246,0 1.05902,0.45 1.05902,1 0,0.55 -0.19844,1 -0.44098,1 -0.24254,0 -0.7191,-0.45 -1.05902,-1 z m 50.37244,-21.75 c -1.26951,-1.61876 -1.22245,-1.63998 0.62756,-0.28297 1.1,0.80687 2.1875,1.59437 2.41667,1.75 0.22916,0.15563 -0.0532,0.28297 -0.62756,0.28297 -0.57432,0 -1.66182,-0.7875 -2.41667,-1.75 z m -0.87244,-17.13197 c 0,-0.55 0.45,-1.27811 1,-1.61803 0.55,-0.33992 1,-0.16803 1,0.38197 0,0.55 -0.45,1.27811 -1,1.61803 -0.55,0.33992 -1,0.16803 -1,-0.38197 z"
           id="path3191"
           inkscape:connector-curvature="0" />
      </g>
    </g>
  </g>
</svg>
