<?xml version="1.0" encoding="UTF-8" standalone="no"?>
<!-- Created with Inkscape (http://www.inkscape.org/) -->

<svg
   xmlns:dc="http://purl.org/dc/elements/1.1/"
   xmlns:cc="http://creativecommons.org/ns#"
   xmlns:rdf="http://www.w3.org/1999/02/22-rdf-syntax-ns#"
   xmlns:svg="http://www.w3.org/2000/svg"
   xmlns="http://www.w3.org/2000/svg"
   xmlns:sodipodi="http://sodipodi.sourceforge.net/DTD/sodipodi-0.dtd"
   xmlns:inkscape="http://www.inkscape.org/namespaces/inkscape"
   width="100"
   height="100"
   id="svg3259"
   version="1.1"
   inkscape:version="0.48.2 r9819"
   sodipodi:docname="3.svg">
  <defs
     id="defs3261" />
  <sodipodi:namedview
     id="base"
     pagecolor="#ffffff"
     bordercolor="#666666"
     borderopacity="1.0"
     inkscape:pageopacity="0.0"
     inkscape:pageshadow="2"
     inkscape:zoom="0.35"
     inkscape:cx="142.14286"
     inkscape:cy="47.142862"
     inkscape:document-units="px"
     inkscape:current-layer="layer1"
     showgrid="false"
     fit-margin-top="0"
     fit-margin-left="0"
     fit-margin-right="0"
     fit-margin-bottom="0"
     inkscape:window-width="978"
     inkscape:window-height="619"
     inkscape:window-x="360"
     inkscape:window-y="210"
     inkscape:window-maximized="0" />
  <metadata
     id="metadata3264">
    <rdf:RDF>
      <cc:Work
         rdf:about="">
        <dc:format>image/svg+xml</dc:format>
        <dc:type
           rdf:resource="http://purl.org/dc/dcmitype/StillImage" />
        <dc:title></dc:title>
      </cc:Work>
    </rdf:RDF>
  </metadata>
  <g
     inkscape:label="Layer 1"
     inkscape:groupmode="layer"
     id="layer1"
     transform="translate(-232.85714,-479.50504)">
    <g
       id="g3202"
       transform="matrix(0.42425803,0,0,0.37789131,96.45494,348.40758)">
      <g
         id="g3098"
         transform="translate(273.75133,-23.233508)"
         style="fill:#1a1a1a">
        <path
           style="fill:#1a1a1a"
           d="m 49.17957,626.53687 c 0.782791,-4.53278 1.210259,-9.35564 0.94993,-10.71747 -0.447143,-2.33907 0.330996,-4.55574 5.806591,-16.54111 1.256355,-2.75 2.585521,-5.98589 2.953703,-7.19087 0.368181,-1.20498 2.313149,-3.00498 4.322149,-4 2.530004,-1.25306 5.293762,-4.26806 8.991745,-9.80913 2.936459,-4.4 5.883351,-8.1235 6.54865,-8.27444 0.812239,-0.18428 1.232838,1.33878 1.280262,4.63606 0.03885,2.70077 0.836094,6.91484 1.771665,9.3646 2.335162,6.11453 16.89305,33.56421 22.817585,43.02378 l 4.85383,7.75 -30.859683,0 -30.859684,0 1.423257,-8.24142 z m 75.2824,-0.25858 0,-8.5 3.59943,0 3.59942,0 -8.32417,-7.94192 c -4.57829,-4.36806 -8.03631,-8.22978 -7.68448,-8.58161 0.35183,-0.35183 3.26546,2.04104 6.47474,5.3175 7.9724,8.13927 13.36618,10.46842 24.83506,10.72431 4.95,0.11045 11.53282,0.54455 14.6285,0.96467 5.16483,0.70093 6.11218,0.50325 11.5,-2.39959 3.22932,-1.7399 9.584,-6.70444 14.1215,-11.0323 4.5375,-4.32787 8.25,-7.31643 8.25,-6.64123 0,2.29782 -7.48014,13.57188 -14.39403,21.69466 -5.36152,6.29899 -6.58414,8.29567 -5.5,8.98217 1.90307,1.20504 1.93355,1.19824 5.89403,-1.31638 1.925,-1.22223 6.875,-4.05956 11,-6.30517 l 7.5,-4.08292 0.10163,-4.44109 c 0.0851,-3.72008 1.28844,-15.93629 1.91498,-19.4411 0.0983,-0.55 0.2473,-2.0676 0.33108,-3.37244 0.11387,-1.77366 0.4678,-2.11217 1.40231,-1.34121 3.83531,3.1641 48.17179,19.83528 60.25,22.6549 8.97042,2.09411 19.38444,12.95979 19.46456,20.30875 l 0.0354,3.25 -34.39469,0 -34.39469,0 0.87083,-3.75 c 0.47896,-2.0625 0.88157,-6.3375 0.89469,-9.5 0.0211,-5.09129 -0.20526,-5.75 -1.97614,-5.75 -1.81484,0 -2.00126,0.67122 -2.01365,7.25 -0.008,3.9875 -0.285,8.2625 -0.61664,9.5 l -0.60297,2.25 -43.38337,0 -43.38337,0 0,-8.5 z m 86,-11.55902 c 0,-0.51754 -0.45,-0.94098 -1,-0.94098 -0.55,0 -1,0.70156 -1,1.55902 0,0.85746 0.45,1.2809 1,0.94098 0.55,-0.33992 1,-1.04148 1,-1.55902 z m -60,-5.35765 c 0,-0.87083 0.7125,-1.58333 1.58333,-1.58333 0.87084,0 1.40521,0.53437 1.1875,1.1875 -0.61807,1.85422 -2.77083,2.16176 -2.77083,0.39583 z m -42.50959,-15.33333 c -2.63197,-2.0625 -6.40654,-5.25651 -8.387909,-7.0978 l -3.602498,-3.3478 4.885227,3.3478 c 5.2432,3.59313 13.51076,10.73924 12.50268,10.80679 -0.33664,0.0225 -2.76552,-1.64649 -5.3975,-3.70899 z m 52.00959,-0.74148 c -0.55,-0.18347 -2.2375,-0.60651 -3.75,-0.9401 -3.94069,-0.86913 -3.46208,-3.34421 0.80134,-4.14403 2.80915,-0.527 3.84744,-0.27523 4.96819,1.20469 2.52394,3.33278 1.60922,5.08993 -2.01953,3.87944 z m 16.5,-10.9495 c 0,-1.75653 0.60006,-2.01516 1.45729,-0.62812 0.31644,0.512 0.11799,1.21356 -0.44098,1.55902 -0.55897,0.34546 -1.01631,-0.0734 -1.01631,-0.9309 z m -4.47861,-1.53539 c -1.78315,-1.97035 -1.77618,-2.02363 0.26461,-2.02363 2.46873,0 3.38256,1.10923 2.32439,2.82138 -0.55743,0.90194 -1.24159,0.69113 -2.589,-0.79775 z m 1.25704,-4.18835 c -0.37717,-1.13149 -1.99951,-1.37518 -11.27843,-1.69407 -6.70556,-0.23045 -4.08029,-1.84171 3.27712,-2.01133 5.51266,-0.12708 12.22288,-1.89164 12.22288,-3.21419 0,-1.07694 -5.10672,-1.77263 -8.71447,-1.18717 -2.09144,0.33939 -3.28553,0.12217 -3.28553,-0.59768 0,-0.62196 -1.12269,-1.13084 -2.49488,-1.13084 -1.98857,0 -2.93819,-0.94312 -4.67938,-4.64733 l -2.1845,-4.64733 2.73514,-2.35267 c 2.77781,-2.38936 6.62362,-3.17475 6.62362,-1.35267 0,2.03089 1.99454,0.91123 3.47432,-1.95034 2.25562,-4.36189 1.8763,-7.33345 -1.47432,-11.54966 -1.65,-2.07626 -3,-4.36992 -3,-5.09704 0,-0.72711 -1.17573,-2.41222 -2.61273,-3.74468 -3.07847,-2.85452 -4.28208,-8.0322 -4.34372,-18.68577 -0.0471,-8.14242 1.53775,-11.97251 4.95414,-11.97251 1.03635,0 2.16239,-0.45 2.50231,-1 0.33992,-0.55 1.28093,-1 2.09114,-1 0.8102,0 3.06603,-0.66557 5.01295,-1.47904 5.01414,-2.09505 3.42592,-3.73528 -2.0276,-2.09402 -5.45958,1.6431 -7.37667,0.70916 -6.04024,-2.94259 0.73045,-1.99592 2.53725,-3.25147 7.46375,-5.18656 3.575,-1.40423 6.9275,-2.94569 7.45,-3.42547 0.5225,-0.47978 1.8725,-0.874 3,-0.87606 1.1275,-0.002 3.4,-0.8259 5.05,-1.83078 1.65,-1.00487 4.25146,-2.14026 5.78102,-2.5231 4.36274,-1.09194 6.24779,-5.2249 6.04469,-13.25299 -0.16955,-6.70203 -1.22474,-13.56361 -2.78953,-18.13939 -0.89386,-2.61382 -3.96165,-2.96739 -6.21298,-0.71606 -1.89446,1.89446 -4.56318,1.14998 -8.57775,-2.39288 -1.64598,-1.45258 -3.49956,-2.46802 -4.11907,-2.25654 -0.61951,0.21149 -2.86082,0.30299 -4.98069,0.20334 -2.15961,-0.10152 -4.94319,0.53227 -6.33079,1.44146 -1.36206,0.89246 -3.09205,1.38644 -3.84441,1.09773 -1.77084,-0.67953 -7.49812,2.18631 -9.63441,4.82091 -0.91516,1.12862 -1.9999,1.7173 -2.41054,1.30817 -0.41063,-0.40913 0.0729,-1.64939 1.07446,-2.75613 1.00159,-1.10674 1.49008,-2.34325 1.08553,-2.7478 -0.40454,-0.40455 -1.17414,0.0482 -1.71022,1.00613 -0.53608,0.95792 -1.54447,1.74167 -2.24086,1.74167 -0.69639,0 -2.27782,1.8 -3.51429,4 -2.25454,4.01141 -4.12016,5.19886 -4.12016,2.62245 0,-0.75766 0.675,-1.93776 1.5,-2.62245 0.825,-0.68469 1.5,-2.07567 1.5,-3.09106 0,-2.95406 -2.8339,-1.15485 -5.06292,3.2144 -1.08775,2.13216 -2.42156,3.87666 -2.96402,3.87666 -0.54246,0 -1.96726,1.12822 -3.16623,2.50716 -1.30914,1.50564 -2.43816,2.08935 -2.82636,1.46124 -0.43452,-0.70307 -1.48546,-0.7269 -3.20612,-0.0727 -2.84425,1.08138 -7.06435,0.38256 -6.194,-1.02569 0.30681,-0.49644 0.94303,-0.66457 1.41381,-0.37361 1.33317,0.82394 6.00584,-1.65662 6.00584,-3.1883 0,-2.57204 -3.01485,-2.53415 -6.44348,0.081 -3.83292,2.92351 -5.49757,3.13446 -10.55652,1.33775 -4.48299,-1.59215 -6,-2.58192 -6,-3.91469 0,-0.70184 1.67626,-0.84745 4.87342,-0.42333 4.50189,0.59719 5.00547,0.44495 6.60548,-1.99697 1.42647,-2.17706 1.49291,-2.79583 0.37658,-3.50715 -0.74552,-0.47503 -1.93577,-0.65072 -2.64501,-0.39042 -0.70925,0.26031 -2.05925,0.0909 -3,-0.37646 -0.94076,-0.46735 -3.2435,-1.34759 -5.1172,-1.95608 -2.8699,-0.932 -3.66002,-0.83494 -5.01409,0.61596 -0.884041,0.94726 -2.477843,2.20672 -3.541779,2.79881 -1.987264,1.10591 -3.21753,4.28353 -4.035616,10.42349 -1.055257,7.91998 -2.234774,12.97334 -3.338578,14.30334 -1.181327,1.42341 -1.957597,4.6299 -4.647409,19.19665 -1.557137,8.43272 -4.141845,18.45938 -4.972709,19.29025 -0.6757,0.6757 -4.543086,-8.51496 -4.543086,-10.79643 0,-1.0122 -1.073549,-3.11621 -2.385665,-4.67557 -1.312116,-1.55936 -3.089154,-4.51889 -3.948973,-6.57673 -0.85982,-2.05783 -2.036271,-3.74152 -2.614335,-3.74152 -0.578065,0 -1.051027,-0.66088 -1.051027,-1.46862 0,-0.89459 0.586289,-1.24363 1.5,-0.89301 0.949843,0.36449 1.5,-0.0138 1.5,-1.03138 0,-1.00626 -0.852597,-1.60699 -2.280762,-1.60699 -1.63948,0 -2.614705,-0.88471 -3.46845,-3.14654 -0.653227,-1.7306 -0.963105,-3.50992 -0.688616,-3.95406 0.274488,-0.44413 -0.118647,-3.48135 -0.873634,-6.74937 -0.754988,-3.26803 -1.160375,-7.38856 -0.900862,-9.15673 0.272764,-1.85846 -0.01972,-3.51868 -0.693231,-3.93493 -0.884557,-0.54669 -0.888562,-2.50637 -0.01663,-8.13921 1.181228,-7.63097 4.417715,-15.30083 8.530063,-20.21463 1.286737,-1.53751 2.848528,-4.68751 3.470648,-7 1.657293,-6.16036 3.954216,-10.26959 4.892107,-8.75205 1.004845,1.62588 5.302531,-2.79825 4.570755,-4.70522 -0.279218,-0.72763 0.139006,-1.57112 0.929387,-1.87442 2.19959,-0.84406 5.443205,-6.98578 4.862387,-9.20683 -0.389182,-1.48824 0.759984,-2.98358 4.665023,-6.07034 2.849775,-2.25262 5.609223,-4.09567 6.132105,-4.09567 0.522882,0 2.169973,-0.87513 3.660207,-1.94473 1.49022,-1.06961 8.7845,-3.95547 16.2095,-6.41302 13.26701,-4.39118 13.69847,-4.46308 25,-4.16637 12.99179,0.34109 22,1.99515 22,4.0396 0,1.36735 3.72437,3.09349 4.65869,2.15916 0.27939,-0.27939 -0.50765,-1.5236 -1.74897,-2.76492 -1.72442,-1.72442 -1.84275,-2.098 -0.50154,-1.58333 0.96547,0.37049 3.51859,0.67361 5.67361,0.67361 2.58721,0 3.91821,0.45033 3.91821,1.32569 0,1.60915 4.16555,5.67431 5.81445,5.67431 0.65205,0 1.18555,-0.675 1.18555,-1.5 0,-2.14518 1.75267,-1.85463 2.47134,0.4097 0.33336,1.05033 1.30723,2.49157 2.16416,3.20276 1.29657,1.07605 1.71798,1.00729 2.51097,-0.4097 1.30178,-2.32616 2.39516,-2.13773 2.58981,0.44632 0.25699,3.4116 1.93795,4.45571 4.06883,2.52729 2.69275,-2.4369 3.90407,-2.05996 3.45011,1.07363 -0.29132,2.01092 0.42378,3.66812 2.66076,6.16618 2.77537,3.09929 3.29658,3.308 5.61864,2.25 3.41989,-1.55821 4.46538,-1.46978 4.46538,0.37766 0,0.88558 0.70192,1.41855 1.64626,1.25 0.90544,-0.16161 1.84294,0.26866 2.08333,0.95616 0.2587,0.73987 -0.41315,1.25 -1.64626,1.25 -2.35444,0 -2.87466,2.75911 -0.67908,3.60163 1.2039,0.46198 1.20478,0.92119 0.006,3.21862 -2.06573,3.95974 -1.74374,5.17975 1.36724,5.17975 3.16125,0 7.22251,2.47789 7.22251,4.40666 0,0.7113 1.33538,3.13671 2.96752,5.38981 1.63214,2.2531 3.25699,5.24987 3.61078,6.65949 0.35379,1.40961 1.07117,2.8274 1.59416,3.15063 0.523,0.32323 1.33398,1.55648 1.80218,2.74055 0.4682,1.18407 1.55739,3.80664 2.42042,5.82792 l 1.56916,3.67507 -2.98211,-0.85526 c -1.64016,-0.47039 -2.98211,-0.74142 -2.98211,-0.60228 0,0.13914 1.35,3.0399 3,6.44613 3.11453,6.42958 3.71089,9.16128 2,9.16128 -0.55,0 -1,-0.60526 -1,-1.34501 0,-0.73976 -0.89927,-2.15884 -1.99837,-3.15351 -1.98978,-1.80073 -1.99169,-1.78742 -0.44436,3.09501 2.30538,7.27443 2.80374,11.86044 1.54455,14.21326 -0.61757,1.15393 -1.40513,4.9313 -1.75013,8.39415 -0.345,3.46286 -1.05109,7.12093 -1.56907,8.12906 -0.87793,1.70869 -1.0655,1.72101 -2.76641,0.18171 -2.52151,-2.28194 -5.75457,-0.20629 -6.98643,4.48533 -2.38436,9.08106 -2.38277,9 -0.17673,9 1.59781,0 2.31797,-0.96925 3.15778,-4.25 1.64715,-6.43469 1.80868,-6.75 3.45779,-6.75 2.07143,0 1.92007,1.85023 -0.47236,5.77417 -1.09794,1.80079 -1.99626,3.93829 -1.99626,4.75 0,0.81171 -0.9,2.37583 -2,3.47583 -1.1,1.1 -2.0697,2.3375 -2.1549,2.75 -0.32935,1.59472 -4.19978,6.14883 -4.87243,5.73311 -0.3901,-0.2411 -1.01873,-3.26093 -1.39696,-6.71073 -0.98094,-8.94723 -4.46566,-23.0945 -5.97871,-24.27238 -0.70651,-0.55 -1.60025,-2.6875 -1.98609,-4.75 -0.41223,-2.20353 -1.27617,-3.75 -2.09495,-3.75 -1.09382,0 -1.31944,1.54455 -1.0494,7.18403 0.34672,7.24085 -0.59137,11.63921 -2.77912,13.03031 -0.65309,0.41527 -2.87494,0.76193 -4.93744,0.77035 -2.0625,0.008 -3.75,0.36981 -3.75,0.80308 0,0.43328 1.29522,2.33924 2.87826,4.23547 1.58304,1.89623 2.6599,4.01673 2.39301,4.71222 -0.75529,1.96825 -3.97989,1.4868 -4.54619,-0.67877 -0.5833,-2.23053 -6.95178,-4.42919 -7.64175,-2.63823 -0.22916,0.59485 -0.22916,1.15328 0,1.24097 0.63406,0.24261 -4.35421,3.91668 -6.26022,4.61091 -0.92228,0.33593 -2.21488,-0.0375 -2.87244,-0.82978 -1.87321,-2.25708 -3.54745,-1.73309 -7.37902,2.30944 -4.00461,4.2251 -4.22833,5.4341 -1.99475,10.77981 0.8673,2.07573 1.35804,4.61099 1.09053,5.63392 -0.2675,1.02294 0.38724,4.21707 1.45498,7.09807 1.99612,5.386 3.0425,12.32412 2.87843,19.08572 -0.0754,3.10556 0.53536,4.44837 3.16691,6.96323 3.12875,2.98999 3.2643,3.43992 3.36002,11.15247 0.0549,4.42023 0.29606,8.6807 0.53599,9.46771 0.53272,1.74738 -5.70515,2.64491 -6.28533,0.90435 z m 6.22157,-75.8943 c 0,-0.58246 -0.45,-0.7809 -1,-0.44098 -0.55,0.33992 -1,0.81648 -1,1.05902 0,0.24254 0.45,0.44098 1,0.44098 0.55,0 1,-0.47656 1,-1.05902 z m 50.1038,-19.23718 c -1.28349,-1.28349 -2.58505,-0.2915 -1.63484,1.24598 0.36808,0.59556 1.12735,0.79971 1.68727,0.45366 0.683,-0.42212 0.66575,-0.98146 -0.0524,-1.69964 z m -6.1038,-1.9538 c 0,-1.17109 -1.45675,-0.87974 -1.875,0.375 -0.20625,0.61875 0.13125,0.95625 0.75,0.75 0.61875,-0.20625 1.125,-0.7125 1.125,-1.125 z m 2,-4.19098 c 0,-1.59263 -1.81436,-3.07799 -2.69007,-2.20228 -0.82264,0.82264 0.46152,3.64326 1.65869,3.64326 0.56726,0 1.03138,-0.64844 1.03138,-1.44098 z m -67.5,-31.55902 c -0.33992,-0.55 -0.81648,-1 -1.05902,-1 -0.24254,0 -0.44098,0.45 -0.44098,1 0,0.55 0.47656,1 1.05902,1 0.58246,0 0.7809,-0.45 0.44098,-1 z m -45.5,-25.59227 c 0,-0.32575 -0.9,-1.73644 -2,-3.13486 -2.26912,-2.88471 -2.52661,-2.52275 -0.83948,1.18008 1.03375,2.26883 2.83948,3.51195 2.83948,1.95478 z m 12.98355,-5.15773 c -0.0339,-1.54503 -4.53225,-8.61053 -5.73355,-9.00559 -2.11794,-0.69651 -1.38796,2.2517 1.5,6.05812 2.61069,3.44097 4.26971,4.596 4.23355,2.94747 z m 56.3909,-7.87334 c -0.9692,-2.04242 -1.92347,-3.22959 -2.12062,-2.63815 -0.51209,1.53627 2.87578,9.00853 3.4261,7.55657 0.25118,-0.66271 -0.33629,-2.876 -1.30548,-4.91842 z m 7.77957,-4.89315 c -0.76526,-2.86143 -0.81599,-2.88415 -1.40557,-0.62958 -0.72306,2.76498 0.15685,5.64077 1.3583,4.43932 0.46265,-0.46265 0.48392,-2.17703 0.0473,-3.80974 z m -39.04152,-0.77101 c -0.81667,-0.81667 -1.1125,-0.70476 -1.1125,0.42083 0,1.98786 1.3447,3.33256 1.84167,1.84167 0.21083,-0.6325 -0.1173,-1.65063 -0.72917,-2.2625 z m -11.6125,-22.7125 c -0.33992,-0.55 -0.81648,-1 -1.05902,-1 -0.24254,0 -0.44098,0.45 -0.44098,1 0,0.55 0.47656,1 1.05902,1 0.58246,0 0.7809,-0.45 0.44098,-1 z m 35.86163,-0.5 c -0.31659,-0.825 -1.25756,-1.5 -2.09106,-1.5 -1.23369,0 -1.284,0.27889 -0.27057,1.5 0.68469,0.825 1.62567,1.5 2.09106,1.5 0.46539,0 0.58715,-0.675 0.27057,-1.5 z m -54.01008,196.24154 c -0.26402,-0.41715 0.52723,-1.13107 1.75834,-1.58649 1.87418,-0.6933 6.41444,0.57146 8.7436,2.43567 0.19442,0.15561 -1.98098,0.19885 -4.83421,0.0961 -2.85323,-0.10275 -5.40371,-0.52813 -5.66773,-0.94528 z m 15.64845,-20.74154 c 0,-1.26441 2.04347,-1.26441 4,0 1.16887,0.75538 0.89294,0.97275 -1.25,0.98469 -1.5125,0.008 -2.75,-0.43469 -2.75,-0.98469 z m 40.07895,-1.41667 c -0.0434,-1.05416 0.19292,-1.64479 0.52522,-1.3125 0.33229,0.33229 0.36781,1.19479 0.0789,1.91667 -0.31922,0.79773 -0.55618,0.56078 -0.60416,-0.60417 z m -94.45671,-9.38555 c -1.044828,-1.69056 -3.593805,-9.77889 -3.607684,-11.44778 -0.02122,-2.55146 2.674746,-2.14363 3.305276,0.5 1.786591,7.49067 1.955993,13.62334 0.302408,10.94778 z m 31.04443,-38.86445 c -0.36667,-0.36666 -0.66667,-1.49166 -0.66667,-2.5 0,-1.9304 -1.9423,-2.44783 -3.55,-0.94572 -0.5225,0.48818 -1.9625,1.1935 -3.2,1.56738 -1.78595,0.53958 -2.25,0.28537 -2.25,-1.23261 0,-3.81563 3.66826,-5.72238 11.00889,-5.72238 3.73977,0 6.59112,-0.3375 6.33633,-0.75 -0.25479,-0.4125 -1.98514,-0.75 -3.84522,-0.75 -1.86008,0 -3.68509,-0.49046 -4.05557,-1.08992 -0.88259,-1.42805 -11.89848,-0.60807 -13.875662,1.03285 -0.814635,0.67609 -1.942155,0.94434 -2.505598,0.59611 -1.038142,-0.64161 -0.722033,-9.66396 0.402329,-11.48321 1.630373,-2.638 12.611101,-3.35893 14.114331,-0.92667 0.29601,0.47896 1.80655,0.87084 3.35674,0.87084 1.5502,0 3.35964,0.65198 4.02098,1.44885 0.66134,0.79686 2.85394,1.98318 4.87244,2.63625 10.26652,3.32166 19.54453,10.9149 13.33668,10.9149 -2.63641,0 -3.21574,0.94856 -1.88286,3.08285 0.89555,1.43399 0.88189,2.15145 -0.0589,3.09219 -0.96661,0.96661 -1.22496,0.95943 -1.22496,-0.0341 0,-0.69246 -0.45435,-0.97821 -1.00966,-0.63501 -0.55531,0.3432 -2.19099,-0.30524 -3.63485,-1.44099 -3.40852,-2.68113 -4.86207,-2.60344 -8.13892,0.43502 -2.57756,2.39005 -6.13044,3.25279 -7.5499,1.83333 z m 4.08319,-3.9168 c -0.95295,-0.95296 -2.86349,0.5906 -2.1533,1.7397 0.42212,0.683 0.98146,0.66575 1.69964,-0.0524 0.58876,-0.58876 0.79291,-1.34803 0.45366,-1.68727 z m 87.75014,-112.41653 c -0.33992,-0.55 -0.16803,-1 0.38197,-1 0.55,0 1.27811,0.45 1.61803,1 0.33992,0.55 0.16803,1 -0.38197,1 -0.55,0 -1.27811,-0.45 -1.61803,-1 z"
           id="path3100"
           inkscape:connector-curvature="0" />
      </g>
    </g>
  </g>
</svg>
