<?xml version="1.0" encoding="UTF-8" standalone="no"?>
<!-- Created with Inkscape (http://www.inkscape.org/) -->

<svg
   xmlns:dc="http://purl.org/dc/elements/1.1/"
   xmlns:cc="http://creativecommons.org/ns#"
   xmlns:rdf="http://www.w3.org/1999/02/22-rdf-syntax-ns#"
   xmlns:svg="http://www.w3.org/2000/svg"
   xmlns="http://www.w3.org/2000/svg"
   xmlns:sodipodi="http://sodipodi.sourceforge.net/DTD/sodipodi-0.dtd"
   xmlns:inkscape="http://www.inkscape.org/namespaces/inkscape"
   width="100"
   height="100"
   id="svg3259"
   version="1.1"
   inkscape:version="0.48.2 r9819"
   sodipodi:docname="2.svg">
  <defs
     id="defs3261" />
  <sodipodi:namedview
     id="base"
     pagecolor="#ffffff"
     bordercolor="#666666"
     borderopacity="1.0"
     inkscape:pageopacity="0.0"
     inkscape:pageshadow="2"
     inkscape:zoom="0.35"
     inkscape:cx="142.14286"
     inkscape:cy="47.142862"
     inkscape:document-units="px"
     inkscape:current-layer="layer1"
     showgrid="false"
     fit-margin-top="0"
     fit-margin-left="0"
     fit-margin-right="0"
     fit-margin-bottom="0"
     inkscape:window-width="978"
     inkscape:window-height="619"
     inkscape:window-x="360"
     inkscape:window-y="210"
     inkscape:window-maximized="0" />
  <metadata
     id="metadata3264">
    <rdf:RDF>
      <cc:Work
         rdf:about="">
        <dc:format>image/svg+xml</dc:format>
        <dc:type
           rdf:resource="http://purl.org/dc/dcmitype/StillImage" />
        <dc:title></dc:title>
      </cc:Work>
    </rdf:RDF>
  </metadata>
  <g
     inkscape:label="Layer 1"
     inkscape:groupmode="layer"
     id="layer1"
     transform="translate(-232.85714,-479.50504)">
    <g
       id="g3198"
       transform="matrix(0.33226517,0,0,0.31520829,121.04056,475.46717)">
      <g
         style="fill:#1a1a1a"
         transform="matrix(1.7429526,0,0,1.7429526,133.79682,-784.20243)"
         id="g3064">
        <path
           inkscape:connector-curvature="0"
           id="path3066"
           d="m 116.4899,638.49511 c 1.70043,-1.5892 7.72266,-2.3698 7.25306,-0.94013 -0.22421,0.68259 -2.17287,1.38364 -4.33036,1.5579 -2.46586,0.19916 -3.55131,-0.0303 -2.9227,-0.61777 z m 21,-1.73714 c 3.19884,-2.62961 11.19807,-6.09718 12.06515,-5.2301 0.28632,0.28631 -0.25706,2.15128 -1.2075,4.14437 -1.70921,3.58426 -1.79427,3.62342 -7.79286,3.58785 l -6.06479,-0.036 3,-2.46615 z m 30.94113,1.00628 c 2.4734,-1.87079 3.55887,-1.86109 3.55887,0.0318 0,0.97741 -0.95809,1.48892 -2.75,1.4682 -2.63406,-0.0305 -2.66816,-0.0937 -0.80887,-1.5 z m 4.55887,0.99968 c 0,-0.29266 0.75654,-2.20516 1.68121,-4.25 0.92466,-2.04483 2.62261,-6.19288 3.77322,-9.21788 1.8427,-4.84453 2.38719,-5.4595 4.56879,-5.16013 6.78774,0.93141 15.50645,-0.01 19.17086,-2.0691 2.09326,-1.17648 3.80592,-2.50619 3.80592,-2.95491 0,-0.44872 1.17413,-0.81586 2.60918,-0.81586 1.8186,0 4.30249,-1.66651 8.19761,-5.5 3.07364,-3.025 5.24236,-5.5 4.81939,-5.5 -0.42297,0 -0.0654,-0.70369 0.79472,-1.56376 0.86007,-0.86006 2.03692,-1.27132 2.61523,-0.91391 1.35756,0.83902 3.96387,-1.32062 3.96387,-3.28453 0,-0.83452 0.75,-2.06573 1.66667,-2.73601 0.94325,-0.68972 1.66666,-2.58228 1.66666,-4.36024 0,-1.72785 0.27714,-3.14155 0.61587,-3.14155 1.01302,0 1.12352,-9.83702 0.11748,-10.45879 -0.51067,-0.31561 -1.21567,-0.10915 -1.56668,0.45879 -0.35101,0.56794 -1.03149,0.78956 -1.51218,0.49247 -0.48069,-0.29708 -0.82283,0.93308 -0.76031,2.73369 0.1722,4.95959 -1.99012,14.67931 -3.63063,16.31982 -1.95693,1.95693 -2.12607,1.87201 -2.37989,-1.19487 -0.12058,-1.45689 -0.70826,-3.23813 -1.30596,-3.95831 -1.24444,-1.49946 -0.3711,-10.13352 1.21878,-12.04921 0.5974,-0.71982 0.73753,-3.20153 0.34067,-6.0332 -0.95091,-6.78501 -0.82518,-9.69216 0.43739,-10.11301 0.60067,-0.20023 1.09213,-2.04054 1.09213,-4.08958 0,-2.04905 0.66069,-4.59905 1.4682,-5.66667 0.8075,-1.06762 1.48528,-2.61613 1.50616,-3.44113 0.0209,-0.825 0.71019,-2.78894 1.5318,-4.36431 0.82161,-1.57537 1.49384,-3.47034 1.49384,-4.21104 0,-0.74071 0.91194,-2.19634 2.02654,-3.23475 1.95075,-1.8174 1.8365,-5.84132 -0.13132,-4.62514 -0.49237,0.3043 -0.89522,-0.39984 -0.89522,-1.56476 0,-1.16492 -0.41157,-1.86367 -0.91459,-1.55279 -0.50302,0.31089 -1.10325,-5e-5 -1.33384,-0.69098 -0.54425,-1.63075 -9.71173,0.61612 -11.36181,2.78468 -0.61064,0.8025 -1.62314,1.45909 -2.25,1.45909 -0.62687,0 -1.13976,0.4641 -1.13976,1.03133 0,0.56722 -1.4625,0.97304 -3.25,0.90182 -1.7875,-0.0712 -4.66197,0.31877 -6.38772,0.86666 -2.49077,0.79078 -3.4659,0.668 -4.72939,-0.59549 -1.45556,-1.45556 -1.80688,-1.38949 -4.10834,0.77261 -1.38416,1.30036 -2.85594,2.02218 -3.27061,1.60404 -0.96288,-0.97093 3.9622,-4.92375 8.92087,-7.1598 2.10386,-0.94871 3.82519,-2.1488 3.82519,-2.66688 0,-1.3391 -10.00834,0.12403 -12.75,1.86393 -2.75049,1.7455 -2.99703,2.85195 -0.31574,1.41696 3.50416,-1.87536 4.4059,-1.07977 1.66024,1.46482 -1.48365,1.375 -2.96225,2.5 -3.28578,2.5 -0.32353,0 -1.18603,0.7875 -1.91667,1.75 -1.26518,1.66667 -1.32996,1.66667 -1.36025,0 -0.0486,-2.67606 -1.91057,-2.08121 -2.64501,0.84502 -0.48121,1.91733 -0.87392,2.24377 -1.50373,1.25 -0.46884,-0.73976 -0.85932,-2.37164 -0.86775,-3.62641 -0.008,-1.25476 -0.69031,-2.5404 -1.51531,-2.85698 -0.85503,-0.32811 -1.5,-1.81954 -1.5,-3.46862 0,-2.37948 0.42203,-2.89301 2.37755,-2.89301 1.30766,0 2.93776,-0.675 3.62245,-1.5 0.68469,-0.825 1.97729,-1.50655 2.87244,-1.51455 0.89516,-0.008 3.6214,-0.70882 6.05833,-1.55736 2.70249,-0.94101 5.8384,-1.30499 8.0395,-0.93311 3.95938,0.66893 11.9662,-0.77416 12.92777,-2.33 1.15004,-1.86081 5.90404,-0.0897 6.53787,2.4357 0.694,2.76509 3.49301,3.25503 3.70946,0.64932 0.38024,-4.57752 -0.56669,-9.13307 -2.75156,-13.23733 -1.3166,-2.47322 -2.39381,-5.27415 -2.39381,-6.2243 0,-1.64945 -3.30034,-8.35129 -4.99115,-10.13528 -0.44147,-0.4658 -4.33656,-1.00221 -8.65576,-1.19203 -4.3192,-0.18982 -9.71907,-0.60759 -11.99972,-0.92839 -7.90252,-1.11158 -22.2655,4.03387 -31.30752,11.21573 -1.55692,1.23662 -6.09808,3.57804 -10.09147,5.20317 -3.9934,1.62512 -7.65375,3.3478 -8.13412,3.82817 -1.98049,1.98049 -2.11471,11.38213 -0.26836,18.79671 1.01673,4.08295 2.20849,7.42355 2.64835,7.42355 0.43986,0 0.79975,-0.47296 0.79975,-1.05103 0,-1.62563 6.18843,-3.82677 9.16117,-3.25849 1.46336,0.27974 3.46216,0.0601 4.44178,-0.48816 2.88252,-1.61314 9.29556,3.2129 9.36525,7.04768 0.0175,0.9625 -0.6983,1.75 -1.59065,1.75 -1.33963,0 -1.40213,0.26546 -0.35855,1.52289 1.04585,1.26018 1.00298,1.42278 -0.24851,0.94253 -0.83421,-0.32011 -1.7588,0.0617 -2.06188,0.85155 -0.86823,2.26257 -6.34261,3.82896 -7.69342,2.20133 -0.89965,-1.08401 -1.58002,-0.86256 -3.6212,1.17862 -1.79491,1.79491 -3.24216,2.3741 -5.06266,2.02608 -2.48546,-0.47512 -2.53123,-0.38389 -1.8289,3.64484 0.3962,2.27269 1.02463,7.16406 1.39653,10.86972 0.37189,3.70566 1.22176,7.28316 1.8886,7.95 0.66684,0.66684 1.21244,1.99692 1.21244,2.95574 0,0.95881 0.88179,2.36092 1.95953,3.1158 1.89812,1.3295 8.04047,12.54765 8.04047,14.68481 0,0.58085 0.37777,1.05609 0.83948,1.05609 0.46172,0 1.38146,1.2375 2.04387,2.75 0.95284,2.17567 0.26981,1.74901 -3.27046,-2.04291 -2.46116,-2.6361 -4.69537,-5.3361 -4.96491,-6 -0.33378,-0.82211 -0.51526,-0.75899 -0.56903,0.1979 -0.0607,1.0794 -0.54913,0.97948 -2.10789,-0.43118 -1.97604,-1.78829 -2.06953,-1.77824 -3.58501,0.38542 -1.10629,1.57945 -2.18184,2.05042 -3.72106,1.6294 -1.99487,-0.54565 -2.0287,-0.48212 -0.43053,0.80847 2.41315,1.94873 1.06963,2.84199 -3.16295,2.10292 -3.27004,-0.571 -3.41195,-0.50116 -1.68121,0.82734 1.72434,1.3236 1.74297,1.50752 0.21214,2.09495 -1.08964,0.41814 -1.90231,0.0362 -2.31735,-1.08917 -0.35157,-0.95323 -0.98534,-1.96975 -1.40839,-2.25893 -0.42304,-0.28918 -1.03452,-2.08918 -1.35883,-4 -0.32431,-1.91082 -0.77888,-4.14921 -1.01017,-4.97421 -0.23129,-0.825 -0.66786,-4.65 -0.97017,-8.5 -0.76875,-9.79032 -1.49541,-15.27814 -2.71448,-20.5 -0.80244,-3.43722 -0.62785,-8.27878 0.73922,-20.5 1.88958,-16.89224 1.99077,-23.91519 0.4047,-28.08688 -2.62095,-6.89362 0.60719,-16.13811 9.02364,-25.84113 5.54404,-6.39152 6.00939,-7.29868 6.00939,-11.71481 0,-3.71342 0.43487,-5.01955 1.93931,-5.8247 2.24497,-1.20147 3.34637,-0.0972 2.01002,2.01527 -1.17121,1.85141 -1.21572,5.66958 -0.0743,6.37501 0.80335,0.4965 15.35742,-5.32187 16.71968,-6.68412 0.64598,-0.64599 -6.04446,-2.72405 -8.79925,-2.73306 -1.39363,-0.005 -1.24682,-0.4633 0.80485,-2.51497 l 2.50939,-2.50939 49.05697,0.25939 49.05697,0.25939 -5.86182,3.31093 c -6.38838,3.60835 -11.77801,10.56025 -12.92433,16.67064 -0.5518,2.94133 -0.0126,4.16822 4.38429,9.9764 2.7574,3.64245 5.83612,8.61164 6.84159,11.04264 1.6607,4.01518 2.12954,4.40868 5.11898,4.29629 1.80997,-0.068 3.81438,0.39982 4.45425,1.03969 0.63988,0.63988 2.54903,1.16341 4.24256,1.16341 4.57798,0 15.59162,5.92884 17.64756,9.5 1.49998,2.60548 1.73673,6.18905 1.8002,27.25 l 0.0731,24.25 -10.25,0.009 c -21.15636,0.0179 -23.91927,1.28898 -21.93534,10.09105 0.84773,3.76114 1.0954,4.07346 1.70519,2.15026 0.4282,-1.35047 1.56632,-2.29073 2.84678,-2.35189 13.04316,-0.62292 25.64823,-0.35816 25.73026,0.54045 0.0533,0.58379 0.0222,2.70316 -0.0691,4.7097 -0.0913,2.00655 0.31509,3.9456 0.90311,4.30902 0.67056,0.41443 1.06912,5.53159 1.06912,13.72674 l 0,13.06598 -2.88007,-0.57601 c -9.35598,-1.8712 -13.38132,-5.86008 -19.2978,-19.12296 -1.92569,-4.3168 -3.40034,-6.24377 -5.25,-6.86032 -1.41467,-0.47156 -2.57902,-1.60738 -2.58744,-2.52404 -0.0133,-1.44182 -0.1463,-1.46433 -0.98471,-0.16698 -0.53316,0.825 -0.99124,4.2 -1.01796,7.5 -0.052,6.42018 -0.76368,7.7529 -6.80877,12.75 -4.60732,3.8086 -5.644,3.43632 -2.78469,-1 1.32933,-2.0625 2.7095,-4.875 3.06705,-6.25 l 0.65008,-2.5 -2.17661,2.5 c -1.19714,1.375 -3.47098,4.78648 -5.05298,7.58107 -4.04271,7.14143 -20.80236,22.81125 -28.32093,26.47932 -7.96968,3.88816 -15.065,4.00754 -21.90091,0.36851 -4.62624,-2.46274 -4.88868,-2.49435 -6.22663,-0.75 -0.76826,1.0016 -1.68628,3.5086 -2.04005,5.5711 l -0.64322,3.75 -5.87219,0 c -3.2297,0 -5.87219,-0.23945 -5.87219,-0.53212 z m -17,-55.58591 c 0,-0.55 -0.45,-0.72189 -1,-0.38197 -0.55,0.33992 -1,1.06803 -1,1.61803 0,0.55 0.45,0.72189 1,0.38197 0.55,-0.33992 1,-1.06803 1,-1.61803 z m 127.50437,-2.88903 c 0.78425,-1.26896 -2.0152,-2.4133 -3.56325,-1.45655 -0.84256,0.52073 -0.78793,0.94597 0.20212,1.5733 1.78772,1.13275 2.60646,1.10431 3.36113,-0.11675 z m -25.41056,-19.2789 c 1.67583,-1.43047 3.19196,-4.40351 4.28392,-8.40053 0.92956,-3.40257 3.02485,-9.13019 4.65619,-12.72805 3.52879,-7.78258 3.57154,-8.42357 0.88727,-13.30504 -3.56974,-6.49177 -7.35364,-7.94137 -11.55858,-4.42804 -2.12287,1.7737 -6.83824,10.00532 -6.13453,10.70903 0.20218,0.20218 2.13719,-1.86643 4.30004,-4.59691 3.01889,-3.81119 4.57587,-4.9645 6.70216,-4.9645 1.52334,0 2.76729,0.3375 2.76432,0.75 -0.003,0.4125 -2.1912,2.85896 -4.86275,5.43659 -4.15801,4.01182 -4.95331,5.40983 -5.52373,9.70988 -0.3665,2.76281 -0.36391,6.22837 0.006,7.70124 0.52125,2.07684 0.17764,3.05094 -1.53079,4.33962 -1.62038,1.22225 -2.2179,2.74779 -2.2596,5.769 -0.0312,2.25903 0.24734,4.59926 0.61893,5.2005 1.0966,1.77434 4.86322,1.18715 7.65139,-1.19279 z m -0.45465,-8.21198 c -0.89287,-2.32679 -0.83256,-2.50206 0.86084,-2.50206 1.68345,0 1.87336,0.86269 0.62385,2.83385 -0.67448,1.06401 -0.97482,0.9969 -1.48469,-0.33179 z m 3.44644,-8.00206 c 0.10413,-1.89422 1.77076,-5.08385 1.8288,-3.5 0.0302,0.825 -0.38124,2.175 -0.9144,3 -0.53316,0.825 -0.94464,1.05 -0.9144,0.5 z m -0.32306,-11.66458 c -0.41693,-2.84068 -0.33121,-2.96603 0.888,-1.29866 1.57459,2.15338 1.69082,3.13423 0.46146,3.89402 -0.4884,0.30185 -1.09566,-0.86606 -1.34946,-2.59536 z m -101.76254,7.85852 c 2.8948,-0.90082 3.12265,-1.15193 1.31769,-1.45223 -1.20028,-0.19969 -3.56278,0.35079 -5.25,1.22329 -3.25926,1.68542 -4.2658,3.23879 -1.31769,2.03354 0.9625,-0.39349 3.325,-1.20556 5.25,-1.8046 z m 73.21331,-14.69394 c -0.24217,-1.65 -0.63305,-3 -0.86862,-3 -1.16915,0 -4.60216,4.07586 -3.96754,4.71048 0.40238,0.40238 1.08435,0.16083 1.51549,-0.53678 0.61358,-0.99279 1.06292,-0.93218 2.06808,0.27897 1.71583,2.06745 1.76146,2.01452 1.25259,-1.45267 z m 9.78669,-46.13533 c 0,-1.55017 -4.77639,-5.86467 -6.4925,-5.86467 -0.76421,0 -1.66758,0.45 -2.0075,1 -0.90506,1.46442 -2.5,1.21985 -2.5,-0.38337 0,-0.76085 -0.90062,-1.61889 -2.00138,-1.90674 -1.10076,-0.28786 -1.7492,-0.11534 -1.44098,0.38337 0.30822,0.49871 -0.42126,0.90674 -1.62107,0.90674 -1.82569,0 -1.97843,0.24463 -0.93657,1.5 0.68469,0.825 1.97729,1.53337 2.87244,1.57416 0.89516,0.0408 3.42756,0.90742 5.62756,1.92584 4.58811,2.12392 8.5,2.52186 8.5,0.86467 z m -12.65267,-12.40193 c -0.72111,-1.87917 -5.40332,-3.90968 -11.09733,-4.81251 -6.12915,-0.97182 -5.55437,1.33115 1,4.00672 6.5121,2.6583 10.94392,3.01197 10.09733,0.80579 z m 20.89137,168.80124 c -1.24372,-1.29626 -1.69372,-2.2265 -1,-2.0672 1.60957,0.36962 1.7723,-1.07853 0.44783,-3.98542 -0.57943,-1.27172 -1.63012,-2.06325 -2.36465,-1.78138 -0.72703,0.27899 -1.32188,0.0714 -1.32188,-0.46136 0,-0.53274 -1.0125,-0.97551 -2.25,-0.98393 -1.82735,-0.0124 -1.96823,-0.20028 -0.75,-1 1.33333,-0.87528 1.33333,-1.0941 0,-1.96938 -1.28415,-0.84299 -1.24817,-0.98689 0.25,-1 2.32627,-0.0204 2.21645,-1.24291 -0.25,-2.78324 -1.1,-0.68696 -2,-1.88034 -2,-2.65195 0,-1.87949 12.74616,-13.47831 15.59819,-14.19412 1.2414,-0.31157 2.50695,-1.21761 2.81233,-2.01341 0.4028,-1.04967 2.03302,0.005 5.93801,3.84025 2.96053,2.90794 6.1493,6.49308 7.08616,7.96699 1.6119,2.53592 1.606,2.83127 -0.10992,5.5 -0.99732,1.55109 -4.40338,5.92703 -7.56903,9.72429 -3.16566,3.79727 -5.75574,7.25445 -5.75574,7.68262 0,0.72446 -3.2157,2.13504 -5.5,2.41259 -0.55,0.0668 -2.01759,-0.93908 -3.2613,-2.23535 z m 15.37429,-0.51398 c 0.91539,-1.7875 2.83945,-4.612 4.27568,-6.27667 1.43623,-1.66466 3.50116,-4.70216 4.58873,-6.75 1.08758,-2.04783 2.55008,-3.72333 3.25,-3.72333 1.67628,0 1.62537,0.36646 -0.7274,5.23614 -1.1,2.27673 -2,4.61277 -2,5.19118 0,0.57842 -0.7875,2.96721 -1.75,5.30842 -1.62267,3.94704 -2.02472,4.25704 -5.52568,4.26051 l -3.77568,0.004 1.66435,-3.25 z m -20.11299,-4.75 c -0.33992,-0.55 -0.14148,-1 0.44098,-1 0.58246,0 1.05902,0.45 1.05902,1 0,0.55 -0.19844,1 -0.44098,1 -0.24254,0 -0.7191,-0.45 -1.05902,-1 z m -7.44465,-7.5 c -0.0296,-2.39304 1.57818,-5.1998 2.46854,-4.30945 0.34794,0.34795 -0.0596,1.90992 -0.90559,3.47104 -1.26837,2.34045 -1.54256,2.48754 -1.56295,0.83841 z m -62.86679,-8.53896 c -2.02066,-1.88252 -2.69234,-2.96104 -1.8441,-2.96104 0.18945,0 1.65195,1.12445 3.25,2.49878 1.59805,1.37433 2.42789,2.49933 1.8441,2.5 -0.58379,6.7e-4 -2.04629,-0.91631 -3.25,-2.03774 z m -5.72968,-13.02757 c -0.36253,-0.58659 -0.44468,-1.281 -0.18255,-1.54313 0.26212,-0.26213 0.74306,0.21781 1.06875,1.06653 0.67618,1.76211 0.0999,2.07206 -0.8862,0.4766 z m -22.18805,-4.53764 c 0.33229,-0.33229 1.1948,-0.36781 1.91667,-0.0789 0.79773,0.31922 0.56078,0.55618 -0.60417,0.60416 -1.05416,0.0434 -1.64479,-0.19293 -1.3125,-0.52522 z m 38.27917,-0.29048 c 0.5225,-0.49205 2.525,-1.16143 4.45,-1.4875 l 3.5,-0.59286 -3,1.4424 c -3.40418,1.63673 -6.42381,2.0259 -4.95,0.63796 z m -12.55,-6.89106 c 0,-0.43215 0.7875,-0.83826 1.75,-0.90247 0.9625,-0.0642 3.55,-0.39108 5.75,-0.72636 l 4,-0.6096 -3.5,1.43599 c -3.89351,1.59744 -8,2.00934 -8,0.80244 z m 14.5,-2.46297 c 1.1,-0.81223 3.575,-1.75782 5.5,-2.10131 10.02771,-1.78927 16.34538,-2.63797 16.7352,-2.24814 1.00618,1.00618 -3.75458,2.46464 -11.2352,3.4419 -4.4,0.57482 -9.125,1.34645 -10.5,1.71473 -2.40734,0.6448 -2.42587,0.61488 -0.5,-0.80718 z m -9.71195,-14.1175 c -5.12715,-1.87761 -4.23528,-3.62098 1.62245,-3.17146 4.86449,0.37329 5.42356,0.19725 6.4369,-2.02678 0.73446,-1.61197 1.93471,-2.43558 3.54937,-2.43558 5.54929,0 6.3694,-2.25076 2.82386,-7.75 -1.77738,-2.75677 -0.89592,-2.92529 1.70368,-0.32569 2.83718,2.83718 4.07569,5.5675 4.07569,8.98496 0,2.61289 -0.598,3.30786 -4.25,4.93913 -5.19889,2.32224 -12.32076,3.11885 -15.96195,1.78542 z m 9.2909,-15.05049 c -0.0434,-1.05416 0.19292,-1.64479 0.52522,-1.3125 0.33229,0.3323 0.36781,1.1948 0.079,1.91667 -0.31923,0.79773 -0.55619,0.56078 -0.60417,-0.60417 z m -48.1267,-81.64931 c -1.26384,-0.81285 -1.25765,-1.06177 0.0478,-1.91871 2.10053,-1.37891 3,-1.25128 3,0.42567 0,1.97465 -1.30494,2.61392 -3.04775,1.49304 z"
           style="fill:#1a1a1a" />
      </g>
    </g>
  </g>
</svg>
