<?xml version="1.0" encoding="UTF-8" standalone="no"?>
<!-- Created with Inkscape (http://www.inkscape.org/) -->

<svg
   xmlns:dc="http://purl.org/dc/elements/1.1/"
   xmlns:cc="http://creativecommons.org/ns#"
   xmlns:rdf="http://www.w3.org/1999/02/22-rdf-syntax-ns#"
   xmlns:svg="http://www.w3.org/2000/svg"
   xmlns="http://www.w3.org/2000/svg"
   xmlns:sodipodi="http://sodipodi.sourceforge.net/DTD/sodipodi-0.dtd"
   xmlns:inkscape="http://www.inkscape.org/namespaces/inkscape"
   width="100"
   height="100"
   id="svg3259"
   version="1.1"
   inkscape:version="0.48.2 r9819"
   sodipodi:docname="2.svg">
  <defs
     id="defs3261" />
  <sodipodi:namedview
     id="base"
     pagecolor="#ffffff"
     bordercolor="#666666"
     borderopacity="1.0"
     inkscape:pageopacity="0.0"
     inkscape:pageshadow="2"
     inkscape:zoom="0.35"
     inkscape:cx="142.14286"
     inkscape:cy="47.142862"
     inkscape:document-units="px"
     inkscape:current-layer="layer1"
     showgrid="false"
     fit-margin-top="0"
     fit-margin-left="0"
     fit-margin-right="0"
     fit-margin-bottom="0"
     inkscape:window-width="978"
     inkscape:window-height="619"
     inkscape:window-x="360"
     inkscape:window-y="210"
     inkscape:window-maximized="0" />
  <metadata
     id="metadata3264">
    <rdf:RDF>
      <cc:Work
         rdf:about="">
        <dc:format>image/svg+xml</dc:format>
        <dc:type
           rdf:resource="http://purl.org/dc/dcmitype/StillImage" />
        <dc:title></dc:title>
      </cc:Work>
    </rdf:RDF>
  </metadata>
  <g
     inkscape:label="Layer 1"
     inkscape:groupmode="layer"
     id="layer1"
     transform="translate(-232.85714,-479.50504)">
    <g
       id="g3206"
       transform="matrix(0.42918448,0,0,0.45094371,242.97129,316.61671)">
      <path
         style="fill:#1a1a1a"
         d="m -23.56597,567.11875 0,-15.85498 9.25,-5.99882 c 12.17215,-7.8939 12.41604,-8.00755 18.37691,-8.56313 4.46975,-0.4166 6.02961,-1.23093 12.16937,-6.35298 3.87335,-3.23132 11.07441,-10.83743 16.00236,-16.90248 4.92795,-6.06505 9.59114,-11.55123 10.36264,-12.19152 0.92072,-0.76413 1.26974,-2.55874 1.01569,-5.22264 -0.33148,-3.47591 -0.72234,-4.05848 -2.72298,-4.05848 -3.19314,0 -4.00427,-1.73445 -1.89904,-4.06072 1.66846,-1.84362 1.66592,-2.12308 -0.0539,-5.93698 -1.91808,-4.25356 -3.14945,-5.04356 -3.67771,-2.35948 -0.21056,1.06988 -0.958,0.30945 -2.14318,-2.18042 -1.67217,-3.51298 -1.67973,-3.70716 -0.0931,-2.39282 1.60022,1.32563 1.67392,1.1485 1.00608,-2.41801 -0.49183,-2.62656 -0.38289,-3.6397 0.34314,-3.19099 0.58508,0.3616 1.06378,0.1809 1.06378,-0.40156 0,-0.58246 -0.43563,-1.05902 -0.96807,-1.05902 -0.53243,0 -1.63941,-1.2375 -2.45996,-2.75 l -1.4919,-2.75 -0.0792,2.5 c -0.0762,2.40684 -0.12914,2.38527 -1.41979,-0.57883 -0.73734,-1.69335 -1.36661,-4.96283 -1.39839,-7.26551 -0.0318,-2.30267 -0.33391,-5.05668 -0.6714,-6.12002 -0.39473,-1.24368 0.12624,-2.67319 1.46045,-4.00741 1.62112,-1.62111 1.85068,-2.49148 1.05115,-3.98541 -0.5626,-1.05123 -1.02291,-3.21076 -1.02291,-4.79894 0,-1.58818 -0.72853,-5.02572 -1.61896,-7.63898 -1.04211,-3.05843 -1.38467,-6.06144 -0.96141,-8.42814 0.36164,-2.02222 0.81203,-5.04935 1.00086,-6.72697 0.18883,-1.67761 1.46747,-5.27761 2.84143,-8 1.37395,-2.72238 2.82145,-7.42479 3.21666,-10.44979 0.39522,-3.025 1.50453,-7.3 2.46515,-9.5 2.80592,-6.4261 15.123,-16.69385 22.24305,-18.54222 1.82227,-0.47306 5.78822,-1.74222 8.81322,-2.82035 3.025,-1.07812 10.17871,-2.73584 15.89713,-3.68381 8.49998,-1.40908 11.78442,-1.5302 18,-0.66381 4.18158,0.58287 8.77552,0.82855 10.20876,0.54595 2.64149,-0.52084 16.54496,3.39809 21.92376,6.17957 1.61507,0.83519 3.57304,2.74947 4.35104,4.25396 0.77801,1.50449 2.36062,3.59161 3.51693,4.63806 1.15631,1.04644 2.10238,2.40252 2.10238,3.01351 0,0.61098 1.85545,4.25374 4.12323,8.09501 5.78553,9.79982 9.68331,19.58829 10.24882,25.7378 0.26534,2.88548 0.80219,10.72897 1.19298,17.42998 0.5928,10.16486 0.46209,12.43209 -0.78885,13.68303 -2.13789,2.13789 -4.95539,14.16114 -4.22759,18.04061 0.45686,2.43531 -0.15611,4.87319 -2.4415,9.71023 -1.98487,4.20099 -2.87962,7.40651 -2.55975,9.17052 0.3433,1.89316 0.0686,2.71196 -0.9097,2.71196 -1.42272,0 -4.81327,15.44792 -5.03554,22.9428 l -0.1021,3.44279 13,0.22508 c 11.02946,0.19096 37.76549,2.54816 45.23166,3.98789 1.22741,0.23669 3.81491,1.82045 5.75,3.51948 l 3.51834,3.08914 0,30.39641 0,30.39641 -46.39301,0 c -40.31574,0 -46.46841,-0.19649 -46.96862,-1.5 -0.33832,-0.88165 -1.83848,-1.5 -3.6391,-1.5 -1.68493,0 -4.67901,0.675 -6.65351,1.5 -3.06196,1.27937 -12.83866,1.5 -66.46789,1.5 l -62.87788,0 0,-15.85497 z m 89.25505,-9.6657 c -1.60224,-5.22055 -0.37633,-6.12739 6.37025,-4.71228 3.15564,0.6619 5.90258,1.03841 6.1043,0.83669 0.20173,-0.20172 -2.15985,-2.52533 -5.24794,-5.16356 -3.08809,-2.63824 -6.32001,-6.17906 -7.18205,-7.86849 -0.86203,-1.68943 -3.33525,-5.09669 -5.49603,-7.57169 -5.89539,-6.75268 -6.33193,-7.37272 -5.97024,-8.47976 0.18333,-0.56113 -0.005,-0.68176 -0.41885,-0.26806 -1.48049,1.48049 -4.36472,-2.59703 -6.44988,-9.11838 -1.16661,-3.64859 -2.35182,-7.3088 -2.63379,-8.1338 -0.89933,-2.63127 -4.40605,7.98181 -4.47239,13.53566 -0.0345,2.88739 0.64661,7.66058 1.51354,10.60707 2.16371,7.3539 10.99091,22.53852 17.62804,30.32391 l 5.5,6.45153 0.87912,-3.58504 c 0.5401,-2.20249 0.49225,-4.84561 -0.12408,-6.8538 z m 44.06006,-1.38929 c 1.5483,-0.59952 3.18239,-1.09004 3.63131,-1.09004 0.44892,0 2.07892,-1.65549 3.62222,-3.67887 2.05566,-2.69511 2.34092,-3.5004 1.06676,-3.01146 -1.03764,0.39818 -1.4928,0.26864 -1.12831,-0.32112 0.33602,-0.5437 1.2594,-0.98855 2.05194,-0.98855 0.79254,0 1.44535,-0.5625 1.45069,-1.25 0.005,-0.6875 1.58253,-3.22861 3.50488,-5.6469 4.19488,-5.27712 6.48541,-12.41605 6.48541,-20.21317 0,-3.77518 0.51467,-6.26174 1.5,-7.24707 0.825,-0.825 1.5,-2.86802 1.5,-4.54005 0,-2.42219 0.33753,-2.91052 1.66074,-2.40275 1.32696,0.5092 1.54354,0.18912 1.07762,-1.59256 -0.37482,-1.43333 -0.075,-2.42481 0.83926,-2.77566 0.78231,-0.3002 1.42238,-1.37111 1.42238,-2.37981 0,-1.0087 0.45,-2.11211 1,-2.45203 0.55,-0.33992 1,-1.49148 1,-2.55902 0,-1.06754 0.37877,-1.94098 0.84171,-1.94098 0.81578,0 2.84071,-5.95823 3.05869,-9 0.0591,-0.825 0.37915,-3.075 0.71117,-5 0.90603,-5.25305 0.64796,-10.14061 -0.60132,-11.38857 -0.81675,-0.81587 -0.92559,0.0592 -0.4093,3.29071 l 0.70332,4.40213 -2.31578,-2.31578 -2.31578,-2.31578 -2.36025,2.91364 c -1.29814,1.60251 -2.80938,2.79785 -3.35832,2.65633 -0.54894,-0.14153 -1.45078,0.93338 -2.00409,2.38869 -0.5533,1.4553 -1.25488,2.39714 -1.55905,2.09296 -0.30417,-0.30417 -0.0278,-1.53449 0.61419,-2.73403 0.97837,-1.8281 0.83644,-2.48919 -0.87716,-4.08565 -2.76772,-2.57853 -3.49779,-2.41268 -4.82193,1.09535 -1.33447,3.53541 -4.13739,3.94889 -6.8029,1.00353 -1.11546,-1.23256 -2.22699,-1.66506 -2.90499,-1.13032 -0.60402,0.47638 -2.89821,1.43168 -5.09821,2.12289 -2.2,0.69122 -4.85324,1.98736 -5.8961,2.88033 -3.50718,3.00309 -1.14722,-0.68378 3.71443,-5.80291 2.65008,-2.79044 5.34121,-5.07352 5.98028,-5.07352 1.41221,0 13.06694,-7.0519 13.53472,-8.18942 0.18334,-0.44582 1.19584,-0.81058 2.25,-0.81058 1.05417,0 1.91667,-0.3876 1.91667,-0.86133 0,-0.47373 1.2375,-0.62619 2.75,-0.3388 2.46882,0.4691 2.60967,0.35267 1.37756,-1.13867 -0.98621,-1.19369 -1.07308,-2.02191 -0.30871,-2.94293 0.58505,-0.70495 1.82295,-5.73573 2.75088,-11.17952 1.27935,-7.50546 1.41439,-10.33453 0.5587,-11.7047 -0.62063,-0.9938 -1.12843,-2.95214 -1.12843,-4.35187 0,-2.65547 -0.62094,-3.10714 -5.37498,-3.90971 -2.11243,-0.35662 -3.33141,0.0783 -4.59584,1.63983 -0.94648,1.16884 -2.48072,2.2367 -3.40944,2.373 -0.92871,0.13631 -4.37308,1.64497 -7.65415,3.35259 -3.28108,1.70761 -5.96559,2.81506 -5.96559,2.46098 0,-0.35407 -0.68893,-0.072 -1.53096,0.62683 -4.75261,3.94431 -29.75757,13.99296 -34.73576,13.95912 -3.55751,-0.0242 -10.79923,-2.47348 -11.72049,-3.96412 -1.01682,-1.64526 -11.75135,-2.25274 -12.69945,-0.71868 -0.4038,0.65335 0.0275,0.78118 1.16406,0.34503 1.50651,-0.57811 1.60182,-0.44743 0.57559,0.7891 -1.34541,1.62111 -0.53894,7.56385 1.02646,7.56385 0.5063,0 0.92055,2.025 0.92055,4.5 0,4.25902 1.23677,5.97844 2.33772,3.25 0.38621,-0.95713 0.52288,-0.94173 0.58333,0.0657 0.0434,0.72366 -0.40512,2.22022 -0.99675,3.3257 -0.93975,1.75593 -0.84496,1.89761 0.75,1.12107 2.50312,-1.21869 6.02247,-0.82286 8.09723,0.91072 0.95066,0.79433 5.10347,2.47 9.22847,3.72372 11.39554,3.46346 14.2348,5.11677 15.46988,9.00816 0.66002,2.07951 0.51355,2.29086 -1.10448,1.59378 -1.02597,-0.44201 -3.4404,-1.01341 -5.3654,-1.26978 -1.925,-0.25636 -4.06516,-0.9201 -4.75591,-1.47496 -0.90624,-0.72797 -1.8313,-0.27735 -3.32258,1.6185 -3.10351,3.94552 -7.92151,2.989 -7.92151,-1.57261 0,-2.32222 -1.24891,-2.28742 -3.40485,0.0949 -2.30751,2.54976 -6.4911,3.21943 -9.16547,1.46711 -1.91873,-1.2572 -2.26073,-1.24463 -2.77754,0.10214 -0.32416,0.8447 -1.2873,1.53585 -2.14032,1.53585 -1.09224,0 -1.40069,0.66545 -1.04291,2.25 0.27942,1.2375 0.89049,4.09517 1.35793,6.35039 1.05434,5.08678 5.00451,13.39767 6.67207,14.03757 0.84135,0.32285 1.08146,1.90534 0.74373,4.90166 -0.37264,3.3061 -0.12767,4.56727 0.96889,4.98806 0.94207,0.3615 1.52714,2.13646 1.63381,4.95655 0.19803,5.23541 2.20381,11.71515 3.78678,12.23329 0.77931,0.25508 0.97251,-1.04555 0.61995,-4.17348 -0.2817,-2.49922 -0.28979,-4.54404 -0.018,-4.54404 0.60757,0 2.87989,6.14494 5.81577,15.72738 1.21788,3.97505 2.59974,6.98918 3.07078,6.69806 0.47105,-0.29112 0.63844,0.0566 0.37198,0.77262 -0.2797,0.75166 1.64009,2.78125 4.54217,4.80194 2.76465,1.925 5.65567,4.0625 6.42449,4.75 0.76883,0.6875 1.82491,1.25 2.34685,1.25 0.52194,0 1.48701,0.64829 2.1446,1.44064 1.95533,2.35602 14.89156,2.76855 20.36437,0.6494 z m -25.5651,-26.39534 c -4.54113,-0.98461 -5.75561,-1.95517 -3.88962,-3.10841 0.4732,-0.29246 4.40516,0.0847 8.73768,0.83809 10.60795,1.84467 11.72268,1.66989 24.94729,-3.91155 2.43652,-1.02833 3.38614,-1.03609 4.75,-0.0388 2.33154,1.70485 2.13801,2.52597 -0.59535,2.52597 -1.265,0 -2.79676,0.49676 -3.40391,1.10391 -3.15793,3.15793 -20.96474,4.66823 -30.54609,2.59079 z m 28,-10.35698 c 0.6875,-0.27741 1.8125,-0.27741 2.5,0 0.6875,0.27741 0.125,0.50439 -1.25,0.50439 -1.375,0 -1.9375,-0.22698 -1.25,-0.50439 z m -20.55,-1.53772 c -1.8517,-1.8517 -1.42824,-2.67157 1.05,-2.03297 2.01557,0.51939 2.10505,0.40309 0.85882,-1.11619 -0.77889,-0.94954 -2.14716,-1.45606 -3.10882,-1.15084 -0.9447,0.29984 -2.28627,-0.14 -2.98126,-0.97742 -1.07692,-1.29761 -0.87615,-1.52258 1.35882,-1.52258 1.44234,0 2.62244,-0.41538 2.62244,-0.92308 0,-0.50769 1.37172,0.44865 3.04827,2.1252 2.68043,2.68042 3.54253,2.98197 7.14412,2.4989 2.25272,-0.30215 4.47076,-1.14599 4.92899,-1.87519 0.45823,-0.72921 0.59964,-3.80083 0.31425,-6.82583 -0.37145,-3.93716 -0.22727,-5.07377 0.50742,-4 0.56448,0.825 1.03322,2.7375 1.04164,4.25 0.0152,2.73668 1.33712,3.65636 2.51531,1.75 0.33992,-0.55 0.99914,-1 1.46493,-1 1.50301,0 -1.40441,4.98345 -3.25672,5.58216 -1.28069,0.41394 -1.61856,1.19794 -1.18449,2.74849 0.47134,1.6837 0.37878,1.83655 -0.41346,0.68275 -0.87352,-1.27218 -1.3213,-1.164 -3.10446,0.75 -1.59359,1.71051 -3.20359,2.2366 -6.84476,2.2366 -2.61857,0 -5.30104,-0.54 -5.96104,-1.2 z m -1.16482,-12.73426 c -1.26636,-2.36622 -1.30099,-3.06574 -0.15176,-3.06574 0.48589,0 1.09848,1.125 1.36133,2.5 0.57323,2.99863 0.18872,3.17847 -1.20957,0.56574 z M 62.41398,481.44955 c -1.93237,-2.32837 -0.55356,-2.76715 1.51451,-0.48196 0.99854,1.10337 1.35088,2.00613 0.78298,2.00613 -0.5679,0 -1.60177,-0.68587 -2.29749,-1.52417 z m 68.82067,66.02901 c 0.95333,-0.86308 1.0859,-2.45822 0.4965,-5.97387 l -0.80412,-4.79638 -4.08728,6.38271 c -2.248,3.51048 -4.64678,7.43636 -5.33062,8.72416 -1.23811,2.33159 -1.22298,2.32986 3.59078,-0.40883 2.65877,-1.51266 5.41941,-3.28017 6.13474,-3.92779 z M 66.30922,537.22372 c -1.57413,-2.58006 -1.7724,-3.33579 -0.6355,-2.42232 1.4657,1.17764 1.62791,1.00813 1.4354,-1.5 -0.16598,-2.16263 -0.74702,-2.85464 -2.47048,-2.94232 -1.84715,-0.094 -2.13834,0.26664 -1.61501,2 0.75487,2.50025 4.35589,8.61464 5.07353,8.61464 0.275,0 -0.52958,-1.6875 -1.78794,-3.75 z m -1.37518,-5.25 c -0.33992,-0.55 -0.14148,-1 0.44098,-1 0.58246,0 1.05902,0.45 1.05902,1 0,0.55 -0.19844,1 -0.44099,1 -0.24254,0 -0.71909,-0.45 -1.05901,-1 z m -5.5,-56.55902 c 0,-0.24254 -0.45,-0.44098 -1,-0.44098 -0.55,0 -1,0.47656 -1,1.05902 0,0.58246 0.45,0.7809 1,0.44098 0.55,-0.33992 1,-0.81648 1,-1.05902 z m 9.34204,-3.87089 c 2.66312,0.40755 2.81783,0.33205 0.98732,-0.48182 -2.26301,-1.00617 -10.19918,-1.24575 -11.68613,-0.35279 -1.79583,1.07847 1.75985,2.00931 4.58273,1.19971 1.62697,-0.4666 4.3792,-0.6309 6.11608,-0.3651 z m 60.38492,-3.2164 c 2.32483,-0.34057 3.9608,-1.04989 3.63548,-1.57626 -0.74665,-1.20812 -7.0032,-0.0778 -10.34211,1.86845 l -2.52033,1.46909 2.5,-0.57103 c 1.375,-0.31407 4.40213,-0.84968 6.72696,-1.19025 z m 27.43093,-17.35369 c 0,-1.375 0.22698,-1.9375 0.50439,-1.25 0.27741,0.6875 0.27741,1.8125 0,2.5 -0.27741,0.6875 -0.50439,0.125 -0.50439,-1.25 z"
         id="path3083"
         inkscape:connector-curvature="0" />
    </g>
  </g>
</svg>
