<?xml version="1.0" encoding="UTF-8" standalone="no"?>
<svg
   xmlns:dc="http://purl.org/dc/elements/1.1/"
   xmlns:cc="http://creativecommons.org/ns#"
   xmlns:rdf="http://www.w3.org/1999/02/22-rdf-syntax-ns#"
   xmlns:svg="http://www.w3.org/2000/svg"
   xmlns="http://www.w3.org/2000/svg"
   xmlns:sodipodi="http://sodipodi.sourceforge.net/DTD/sodipodi-0.dtd"
   xmlns:inkscape="http://www.inkscape.org/namespaces/inkscape"
   version="1.1"
   id="Layer_1"
   x="0px"
   y="0px"
   width="100%"
   height="100%"
   viewBox="0 0 50 50"
   enable-background="new 0 0 100 100"
   xml:space="preserve"
   inkscape:version="0.48.2 r9819"
   sodipodi:docname="bullet.svg"><metadata
   id="metadata249"><rdf:RDF><cc:Work
       rdf:about=""><dc:format>image/svg+xml</dc:format><dc:type
         rdf:resource="http://purl.org/dc/dcmitype/StillImage" /></cc:Work></rdf:RDF></metadata><defs
   id="defs247" /><sodipodi:namedview
   pagecolor="#ffffff"
   bordercolor="#666666"
   borderopacity="1"
   objecttolerance="10"
   gridtolerance="10"
   guidetolerance="10"
   inkscape:pageopacity="0"
   inkscape:pageshadow="2"
   inkscape:window-width="1920"
   inkscape:window-height="1018"
   id="namedview245"
   showgrid="false"
   inkscape:zoom="0.834386"
   inkscape:cx="-16.540924"
   inkscape:cy="-184.67698"
   inkscape:window-x="-8"
   inkscape:window-y="-8"
   inkscape:window-maximized="1"
   inkscape:current-layer="Layer_1" />





<path
   d="m 1.9165,24.99975 c 0,-11.5195 0.9585,-14.458 2.242,-14.458 1.746,0 6.313,0 6.313,0 0,0 1.0745,2.1495 1.612,2.1495 0.5375,0 0.135,-1.8805 2.351,-1.8805 2.216,0 18.1345,0 18.1345,0 0,0 13.3335,3.1805 15.2725,12.266 0.156,0.4845 0.242,1.0155 0.242,1.6055 0,0.108 -0.011,0.211 -0.014,0.3175 0.003,0.107 0.014,0.21 0.014,0.318 0,0.59 -0.0865,1.122 -0.242,1.6055 -1.939,9.085 -15.2725,12.2665 -15.2725,12.2665 0,0 -15.918,0 -18.1345,0 -2.2165,0 -1.8135,-1.881 -2.351,-1.881 -0.537,0 -1.612,2.1495 -1.612,2.1495 0,0 -4.567,0 -6.313,0 -1.2835,0 -2.242,-2.9385 -2.242,-14.4585 z"
   id="path67"
   inkscape:connector-curvature="0"
   style="fill:#000000" />
























</svg>